<svg width="24" height="24" viewBox="0 0 24 24" fill="none" xmlns="http://www.w3.org/2000/svg">
<g clip-path="url(#clip0_91_340)">
<path d="M21.971 8.91998L17.769 7.29998C17.6771 7.26459 17.5791 7.24765 17.4806 7.25013C17.3821 7.25261 17.2851 7.27447 17.1951 7.31444C17.1051 7.35442 17.0238 7.41173 16.9559 7.48312C16.888 7.5545 16.8349 7.63856 16.7995 7.73048C16.7641 7.82241 16.7472 7.9204 16.7497 8.01887C16.7521 8.11735 16.774 8.21436 16.814 8.30439C16.8539 8.39442 16.9113 8.47569 16.9826 8.54356C17.054 8.61144 17.1381 8.66459 17.23 8.69998L19.398 9.53498C19.445 9.55324 19.4853 9.58525 19.5137 9.62683C19.5422 9.66841 19.5574 9.71761 19.5574 9.76798C19.5574 9.81836 19.5422 9.86755 19.5137 9.90913C19.4853 9.95071 19.445 9.98272 19.398 10.001L12.089 12.925C12.0295 12.9479 11.9635 12.9479 11.904 12.925L4.569 9.98898C4.52164 9.97113 4.48084 9.93927 4.45204 9.89764C4.42325 9.85601 4.40782 9.8066 4.40782 9.75598C4.40782 9.70536 4.42325 9.65595 4.45204 9.61432C4.48084 9.5727 4.52164 9.54083 4.569 9.52298L6.763 8.69998C6.86197 8.67087 6.95386 8.62165 7.03294 8.55541C7.11202 8.48917 7.17659 8.40733 7.2226 8.315C7.26861 8.22267 7.29508 8.12184 7.30036 8.01882C7.30563 7.9158 7.2896 7.81279 7.25325 7.71625C7.21691 7.6197 7.16104 7.53169 7.08914 7.45772C7.01724 7.38375 6.93085 7.32541 6.83538 7.28634C6.73991 7.24727 6.6374 7.22832 6.53427 7.23066C6.43114 7.23301 6.3296 7.25661 6.236 7.29998L1.978 8.89998C1.83517 8.95813 1.71312 9.05788 1.62771 9.18627C1.54229 9.31467 1.49745 9.46578 1.499 9.61998V18.537C1.4991 18.6299 1.52506 18.7209 1.57399 18.7998C1.62292 18.8788 1.69287 18.9426 1.776 18.984L11.776 23.953H11.79C11.8551 23.9852 11.9268 24.002 11.9995 24.002C12.0722 24.002 12.1439 23.9852 12.209 23.953H12.223L22.223 18.984C22.3059 18.9424 22.3757 18.8786 22.4244 18.7997C22.4732 18.7207 22.499 18.6298 22.499 18.537V9.49998C22.5 9.48798 22.547 9.14098 21.971 8.91998Z" fill="currentColor"/>
<path d="M11.2 10.1C11.2931 10.2242 11.4139 10.325 11.5528 10.3944C11.6916 10.4639 11.8448 10.5 12 10.5C12.1552 10.5 12.3084 10.4639 12.4472 10.3944C12.5861 10.325 12.7069 10.2242 12.8 10.1L15.8 6.1C15.9114 5.95143 15.9793 5.77477 15.996 5.58981C16.0126 5.40484 15.9775 5.21889 15.8944 5.05279C15.8114 4.88668 15.6837 4.74698 15.5257 4.64935C15.3678 4.55171 15.1857 4.5 15 4.5H13.5V1.5C13.5 1.10218 13.342 0.720644 13.0607 0.43934C12.7794 0.158035 12.3978 0 12 0C11.6022 0 11.2206 0.158035 10.9393 0.43934C10.658 0.720644 10.5 1.10218 10.5 1.5V4.5H9C8.81429 4.5 8.63225 4.55171 8.47427 4.64935C8.31629 4.74698 8.18863 4.88668 8.10557 5.05279C8.02252 5.21889 7.98736 5.40484 8.00404 5.58981C8.02072 5.77477 8.08857 5.95143 8.2 6.1L11.2 10.1Z" fill="currentColor"/>
</g>
<defs>
<clipPath id="clip0_91_340">
<rect width="24" height="24" fill="white"/>
</clipPath>
</defs>
</svg>
