<svg width="24" height="24" viewBox="0 0 24 24" fill="none" xmlns="http://www.w3.org/2000/svg">
<path d="M8.8976 6.15113V7.96613V9.86287V15.2014C8.4221 14.91 7.86485 14.739 7.26635 14.739C5.53685 14.739 4.13397 16.1415 4.13397 17.8699C4.13397 19.6001 5.53647 21.0026 7.26635 21.0026C8.9951 21.0026 10.3972 19.6005 10.3976 17.8706V9.43162L18.3663 7.14075V12.4988C17.8908 12.2074 17.3336 12.0364 16.7351 12.0364C15.0048 12.0364 13.6027 13.4385 13.6027 15.1669C13.6027 16.8967 15.0048 18.2996 16.7351 18.2996C18.3641 18.2996 19.7028 17.0527 19.8513 15.4609H19.8663V6.7095V5.36475V2.99738L8.8976 6.15113Z" fill="#FA782F"/>
</svg>
