<svg width="24" height="24" viewBox="0 0 24 24" fill="none" xmlns="http://www.w3.org/2000/svg">
<path d="M20.3999 21H3.59994C3.26994 21 2.99994 20.73 2.99994 20.4V3.60002C2.99994 3.27002 3.26994 3.00002 3.59994 3.00002H20.3999C20.7299 3.00002 20.9999 3.27002 20.9999 3.60002V20.4C20.9999 20.73 20.7299 21 20.3999 21Z" fill="#FA782F"/>
<path d="M12.6936 12.41C12.9469 12.45 13.1769 12.5533 13.3836 12.72C13.5969 12.8867 13.7636 13.0933 13.8836 13.34C14.0103 13.5867 14.0736 13.85 14.0736 14.13C14.0736 14.4833 13.9836 14.8033 13.8036 15.09C13.6236 15.37 13.3603 15.5933 13.0136 15.76C12.6736 15.92 12.2703 16 11.8036 16H9.20359V9.03H11.7036C12.1769 9.03 12.5803 9.11 12.9136 9.27C13.2469 9.42333 13.4969 9.63333 13.6636 9.9C13.8303 10.1667 13.9136 10.4667 13.9136 10.8C13.9136 11.2133 13.8003 11.5567 13.5736 11.83C13.3536 12.0967 13.0603 12.29 12.6936 12.41ZM10.1136 12.04H11.6436C12.0703 12.04 12.4003 11.94 12.6336 11.74C12.8669 11.54 12.9836 11.2633 12.9836 10.91C12.9836 10.5567 12.8669 10.28 12.6336 10.08C12.4003 9.88 12.0636 9.78 11.6236 9.78H10.1136V12.04ZM11.7236 15.25C12.1769 15.25 12.5303 15.1433 12.7836 14.93C13.0369 14.7167 13.1636 14.42 13.1636 14.04C13.1636 13.6533 13.0303 13.35 12.7636 13.13C12.4969 12.9033 12.1403 12.79 11.6936 12.79H10.1136V15.25H11.7236Z" fill="white"/>
</svg>
