<svg width="24" height="24" viewBox="0 0 24 24" fill="none" xmlns="http://www.w3.org/2000/svg">
<path d="M6.28571 4C5.67951 4 5.09812 4.24082 4.66947 4.66947C4.24082 5.09812 4 5.67951 4 6.28571V17.7143C4 18.3205 4.24082 18.9019 4.66947 19.3305C5.09812 19.7592 5.67951 20 6.28571 20H17.7143C18.3205 20 18.9019 19.7592 19.3305 19.3305C19.7592 18.9019 20 18.3205 20 17.7143V6.28571C20 5.67951 19.7592 5.09812 19.3305 4.66947C18.9019 4.24082 18.3205 4 17.7143 4H6.28571ZM10.8571 15.9017L7.76343 12.808L9.37943 11.192L10.8571 12.6697L15.192 8.33486L16.808 9.95086L10.8571 15.9017Z" fill="#FA782F"/>
</svg>
