<svg width="24" height="24" viewBox="0 0 24 24" fill="none" xmlns="http://www.w3.org/2000/svg">
<path d="M21.75 1.5H2.25C1.00781 1.5 0 2.50781 0 3.75V20.25C0 21.4922 1.00781 22.5 2.25 22.5H21.75C22.9922 22.5 24 21.4922 24 20.25V3.75C24 2.50781 22.9922 1.5 21.75 1.5ZM21.75 19.9688C21.75 20.1234 21.6234 20.25 21.4688 20.25H2.53125C2.37656 20.25 2.25 20.1234 2.25 19.9688V4.03125C2.25 3.87656 2.37656 3.75 2.53125 3.75H21.4688C21.6234 3.75 21.75 3.87656 21.75 4.03125V19.9688ZM16.7109 9.12188L13.8328 12L16.7109 14.8781C16.9266 15.0938 16.9266 15.4453 16.7109 15.6656L15.6656 16.7109C15.45 16.9266 15.0984 16.9266 14.8781 16.7109L12 13.8328L9.12188 16.7109C8.90625 16.9266 8.55469 16.9266 8.33438 16.7109L7.28906 15.6656C7.07344 15.45 7.07344 15.0984 7.28906 14.8781L10.1672 12L7.28906 9.12188C7.07344 8.90625 7.07344 8.55469 7.28906 8.33438L8.33438 7.28906C8.55 7.07344 8.90156 7.07344 9.12188 7.28906L12 10.1672L14.8781 7.28906C15.0938 7.07344 15.4453 7.07344 15.6656 7.28906L16.7109 8.33438C16.9312 8.55 16.9312 8.90156 16.7109 9.12188Z" fill="#FA782F"/>
</svg>
