<svg width="271" height="270" viewBox="0 0 271 270" fill="none" xmlns="http://www.w3.org/2000/svg">
<g clip-path="url(#clip0_1_238)">
<path d="M270.5 0H0.5V270H270.5V0Z" fill="white"/>
<path fill-rule="evenodd" clip-rule="evenodd" d="M197.662 166.632C193.735 168.167 189.193 170.472 188.772 174.667C194.105 170.563 200.694 168.114 207.414 167.738C202.772 173.586 196.91 178.462 190.314 181.962C184.391 185.106 176.892 188.458 176.384 195.144C182.745 187.569 192.526 182.983 202.418 182.937C196.089 192.206 185.942 198.781 174.896 200.768C175.275 203.617 187.522 209.717 191.089 210.891C193.63 221.805 194.73 235.959 197.271 246.873C197.896 249.559 198.446 252.645 196.802 254.859C195.17 257.054 192.089 257.432 189.36 257.626C178.605 258.391 163.891 259.155 153.137 259.92C151.849 254.086 150.561 248.253 149.274 242.419C131.133 244.103 53.3633 261.925 39.0914 252.576C-16.0025 216.484 54.2521 204.19 55.762 160.249C56.1079 150.173 25.8153 132.561 26.2963 122.266C26.6104 115.543 27.651 108.977 30.9771 103.204C34.3032 97.4319 39.5738 92.9851 45.3022 89.5839C37.4153 87.5567 31.4417 79.695 31.6015 71.5536C31.7614 63.4122 38.0392 55.791 45.9991 54.0753C42.2461 49.6026 36.3365 47.5528 32.02 43.6216C26.9915 39.042 24.4646 31.6548 26.2963 25.1048C28.128 18.5548 34.5771 13.4013 41.3724 13.6917C46.9538 13.9303 51.8657 17.4605 55.762 21.4644C61.8042 27.674 66.2981 35.3793 68.7277 43.6961C70.347 49.2394 76.282 52.0593 81.2943 54.9281C86.3062 57.7969 91.5114 62.7941 90.0991 68.3935C88.2322 60.7309 115.98 69.858 141.146 72.0925C144.487 72.3892 148.083 72.8208 150.553 75.0906C154.102 78.3522 159.432 79.542 164.031 78.0995C165.494 81.7272 166.571 85.8021 165.327 89.5108C164.083 93.2195 159.677 96.0502 156.154 94.3488C157.074 99.0789 157.993 103.809 158.913 108.539C167.919 108.648 176.923 108.832 185.926 109.091C190.698 109.229 195.685 109.446 199.832 111.81C203.979 114.174 209.529 110.825 213.627 102.22C210.975 116.26 214.117 121.87 219.536 123.395C219.547 123.289 219.968 123.34 219.98 123.234C221.593 109.359 231.008 97.0405 244.111 92.1672C242.952 94.837 234.662 100.111 228.905 106.845C223.282 113.423 220.59 122.23 220.312 123.812C229.24 121.47 232.217 128.122 247.365 122.266C240.443 130.588 227.104 132.637 218.004 126.777C213.71 131.565 213.95 136.867 210.909 142.534C216.075 136.112 222.936 141.805 217.493 145.967C220.382 146.245 223.505 146.625 225.601 148.633C227.696 150.641 227.748 154.867 225.045 155.924C215.918 159.493 206.79 163.062 197.662 166.632Z" fill="#FA782F" fill-opacity="0.4"/>
<path fill-rule="evenodd" clip-rule="evenodd" d="M182.844 134.988C183.175 134.36 183.534 133.701 184.142 133.335C184.75 132.969 185.683 133.045 186.01 133.675C186.359 134.345 185.84 135.153 185.232 135.6C184.623 136.048 183.874 136.363 183.479 137.006C185.616 138.415 187.754 139.823 189.891 141.232C191.565 142.335 193.459 143.91 193.117 145.885C192.916 147.043 191.934 147.944 190.841 148.376C189.748 148.808 188.546 148.853 187.371 148.887C179.474 149.114 171.57 149.074 163.676 148.767C163.128 148.745 162.517 148.694 162.152 148.285C161.869 147.969 161.811 147.517 161.766 147.094C161.311 142.893 160.857 138.691 160.402 134.489C160.386 134.334 160.37 134.172 160.425 134.026C160.659 133.413 161.577 133.791 162.09 134.2C165.724 137.101 171.533 136.76 174.803 133.454C175.593 132.656 176.938 132.759 177.953 133.241C178.968 133.722 179.818 134.506 180.836 134.98C180.727 134.392 181.246 133.77 181.845 133.773C182.444 133.775 182.958 134.401 182.844 134.988Z" fill="white"/>
<path fill-rule="evenodd" clip-rule="evenodd" d="M55.6803 88.6162C55.6803 88.6162 54.7983 78.0502 57.0184 74.6536C59.2389 71.257 67.6964 70.2346 67.6964 70.2346C67.6964 70.2346 90.8772 69.9315 103.402 70.4103C115.926 70.8891 140.975 73.0354 140.975 73.0354C140.975 73.0354 144.23 73.7457 145.693 74.6536C147.156 75.5615 149.196 78.1384 149.196 78.1384C149.196 78.1384 153.638 78.786 155.847 78.8739C158.056 78.9621 160.08 78.5722 160.08 78.5722C160.08 78.5722 162.896 86.7831 160.905 90.697C158.915 94.6105 152.232 94.0036 152.232 94.0036L154.598 108.651C154.598 108.651 151.785 109.98 150.248 111.646C148.711 113.313 148.093 115.703 148.093 115.703L152.662 160.249C152.662 160.249 154.006 162.564 156.893 163.444C159.779 164.323 166.283 164.398 166.283 164.398C166.283 164.398 166.052 168.89 166.283 170.823C166.515 172.756 166.722 173.815 166.722 173.815L171.619 208.871C171.619 208.871 166.859 209.737 162.15 210.879C157.44 212.022 148.093 214.578 148.093 214.578C148.093 214.578 144.798 216.081 144.372 218.506C143.945 220.932 145.693 228.221 145.693 228.221L93.2201 232.221C93.2201 232.221 88.1138 232.317 86.3574 231.21C84.6009 230.103 84.1196 226.486 84.1196 226.486L77.0222 162.651C77.0222 162.651 65.6804 162.928 62.368 161.037C59.0557 159.146 58.655 152.164 58.655 152.164C58.655 152.164 59.2051 148.207 58.655 145.46C58.4714 144.544 56.0727 134.61 55.2667 125.158C54.8106 119.81 61.1041 115.703 61.1041 115.703L55.6803 88.6162Z" fill="white"/>
<path fill-rule="evenodd" clip-rule="evenodd" d="M92.7051 73.9196C92.2969 74.4948 92.6385 75.3527 93.2282 75.7397C93.8179 76.1267 94.5609 76.1703 95.2654 76.202C102.92 76.5465 110.575 76.891 118.23 77.2355C118.976 77.269 119.802 77.2766 120.367 76.7884C120.932 76.3006 120.857 75.1367 120.12 75.0197C111.608 73.6661 102.97 73.1042 94.3546 73.3432C93.7498 73.3598 93.0554 73.426 92.7051 73.9196Z" fill="#E7EAEE"/>
<path fill-rule="evenodd" clip-rule="evenodd" d="M126.763 128.786L124.774 119.451C124.774 119.451 124.681 121.376 123.628 122.159C122.575 122.942 120.492 122.634 120.492 122.634C120.492 122.634 120.163 116.116 121.628 114.13C123.094 112.145 124.538 114.02 127.322 113.385C130.104 112.751 129.528 110.661 132.76 111.592C135.992 112.522 138.381 119.44 138.381 119.44C138.381 119.44 135.846 120.289 134.768 120.072C133.69 119.854 133.952 118.546 133.952 118.546C133.952 118.546 133.188 118.22 133.383 120.514C133.477 121.628 134.321 123.304 134.768 125.496C134.934 126.312 134.768 128.146 134.768 128.146C134.768 128.146 131.892 128.439 129.406 128.971C126.921 129.504 126.763 128.786 126.763 128.786Z" fill="#E7EAEE"/>
<path fill-rule="evenodd" clip-rule="evenodd" d="M56.1395 105.566C55.1823 105.051 54.4036 104.264 53.6404 103.49C51.6719 101.492 49.679 99.4612 48.3135 97.0114C48.1832 96.7781 48.0554 96.5103 48.1303 96.2539C48.2055 95.9976 48.5968 95.8522 48.743 96.0754C51.1172 99.6995 54.1149 102.914 57.5651 105.534C57.2552 105.952 56.5971 105.812 56.1395 105.566Z" fill="#00160A"/>
<path fill-rule="evenodd" clip-rule="evenodd" d="M59.0072 59.6955C59.5728 59.1126 59.8744 58.3289 60.1347 57.5596C60.9469 55.1613 61.5002 52.6755 61.7824 50.1591C61.8332 49.7058 61.9164 49.1838 62.3095 48.9527C62.7519 51.1105 62.204 53.3343 61.6593 55.4683C61.1805 57.3443 60.6502 59.3142 59.2923 60.6945C59.1548 60.8341 58.9791 60.9763 58.7862 60.9443C58.5255 60.9007 58.4211 60.5544 58.514 60.3071C58.6072 60.0601 58.8232 59.8848 59.0072 59.6955Z" fill="#00160A"/>
<path fill-rule="evenodd" clip-rule="evenodd" d="M195.52 78.5152C195.789 78.4432 196.063 78.6556 196.181 78.9084C196.298 79.1611 196.307 79.448 196.359 79.722C196.563 80.7912 197.527 81.6688 198.611 81.7718C198.746 82.0861 198.447 82.4004 198.211 82.6477C197.673 83.21 197.334 83.9588 197.264 84.7339C197.22 85.2368 197.114 85.937 196.609 85.9305C196.203 85.9251 196.025 85.4344 195.879 85.0557C195.522 84.1309 194.716 83.3911 193.764 83.1139C193.564 83.0556 193.481 82.8003 193.535 82.5994C193.59 82.3989 193.743 82.242 193.888 82.0929C194.513 81.451 195.148 80.6914 195.141 79.7954C195.138 79.3108 195.052 78.6405 195.52 78.5152Z" fill="#FFB61D"/>
<path fill-rule="evenodd" clip-rule="evenodd" d="M214.477 162.684C213.637 163.547 213.34 164.897 213.739 166.033C213.297 166.231 212.966 165.621 212.747 165.189C212.418 164.539 211.797 164.046 211.091 163.872C212.114 163.226 212.751 162.012 212.699 160.803C213.111 160.534 213.571 161.093 213.689 161.57C213.808 162.047 213.986 162.667 214.477 162.684Z" fill="#E7EAEE"/>
<path fill-rule="evenodd" clip-rule="evenodd" d="M207.31 164.302C207.797 165.075 208.49 165.717 209.297 166.144C209.587 166.297 209.324 166.724 209.085 166.949C208.481 167.513 208.099 168.308 208.035 169.132C207.507 168.602 206.979 168.074 206.451 167.544C206.241 167.333 206.018 167.005 206.2 166.769C206.754 166.047 207.137 165.195 207.31 164.302Z" fill="#E7EAEE"/>
<path fill-rule="evenodd" clip-rule="evenodd" d="M172.049 71.2594C172.529 68.2001 173.691 65.1934 175.73 62.8635C177.771 60.5336 180.749 58.9431 183.846 58.9456C186.942 58.9481 190.07 60.7021 191.357 63.5187C192.023 64.9763 192.186 66.6169 192.141 68.2185C192.055 71.2648 191.236 74.2881 189.774 76.9618C188.456 79.3727 186.56 81.5417 184.1 82.7647C181.639 83.9879 178.572 84.1521 176.18 82.7999C174.285 81.7293 172.96 79.8076 172.329 77.7254C171.697 75.6431 171.711 73.409 172.049 71.2594ZM190.976 68.9443C191.032 67.0474 190.719 65.0887 189.722 63.4744C189.116 62.4931 188.266 61.6629 187.271 61.079C184.062 59.1969 179.693 60.2081 177.027 62.8037C174.362 65.3993 173.206 69.2351 173.087 72.9539C173.024 74.9375 173.237 76.9715 174.081 78.7679C174.924 80.5643 176.467 82.1012 178.389 82.5947C180.904 83.2406 183.559 82.0245 185.531 80.335C188.821 77.5166 190.849 73.2751 190.976 68.9443Z" fill="#FFB61D"/>
<path fill-rule="evenodd" clip-rule="evenodd" d="M203.738 69.1351C203.226 69.8047 202.691 70.6841 203.084 71.4297C203.224 71.6965 202.86 72.0068 202.571 71.9229C202.281 71.8387 202.117 71.5327 202.04 71.2411C201.963 70.9495 201.937 70.637 201.783 70.3781C201.628 70.1193 201.277 69.9393 201.021 70.0988C200.657 70.0556 200.619 69.5069 200.831 69.2074C201.043 68.9079 201.391 68.702 201.521 68.3593C201.623 68.0875 201.568 67.7829 201.617 67.4967C201.666 67.2105 201.91 66.9049 202.191 66.9779C202.181 67.4809 202.239 68.0032 202.495 68.4367C202.75 68.8705 203.238 69.1948 203.738 69.1351Z" fill="#FFB61D"/>
<path fill-rule="evenodd" clip-rule="evenodd" d="M157.93 68.1436C158.33 67.6782 158.833 67.2796 159.423 67.1101C160.013 66.9405 160.698 67.0302 161.159 67.4359C161.66 67.8772 161.817 68.6149 161.71 69.2744C161.604 69.9339 161.271 70.5333 160.921 71.1021C160.467 71.8405 159.974 72.5551 159.445 73.2416C159.279 73.4558 159.098 73.6768 158.845 73.7726C158.51 73.8986 158.137 73.7758 157.807 73.638C156.648 73.1534 155.57 72.4734 154.634 71.6356C153.776 70.8685 152.985 69.7442 153.333 68.6473C153.554 67.9482 154.23 67.4427 154.955 67.3347C155.68 67.2267 156.432 67.4823 157.008 67.9352C157.284 68.1516 157.701 68.4097 157.93 68.1436ZM154.267 68.5497C153.72 69.3028 154.314 70.3584 155.004 70.9837C155.865 71.7642 156.887 72.3405 157.9 72.9104C158.029 72.9838 158.175 73.0594 158.321 73.0281C158.451 73 158.548 72.8935 158.633 72.7916C159.319 71.9787 159.934 71.1057 160.467 70.1856C160.877 69.4782 161.179 68.4381 160.517 67.9564C159.994 67.5752 159.232 67.8823 158.788 68.3539C158.345 68.8251 158.066 69.4407 157.581 69.8698C157.203 69.273 156.8 68.6534 156.186 68.3031C155.572 67.9532 154.683 67.978 154.267 68.5497Z" fill="#FFB61D"/>
<path fill-rule="evenodd" clip-rule="evenodd" d="M150.088 47.5568C151.343 46.5783 152.739 45.7798 154.219 45.1937C155.126 44.8344 156.161 44.558 157.058 44.9428C158.495 45.5591 158.775 47.6226 158.019 48.991C157.263 50.3597 155.829 51.1895 154.464 51.952C151.787 53.4471 149.11 54.9422 146.433 56.4372C146.96 55.3853 146.366 54.1502 145.879 53.0788C144.782 50.6661 144.207 48.0172 144.207 45.3669C144.207 44.5295 144.269 43.6673 144.637 42.9149C145.004 42.1625 145.737 41.5383 146.574 41.5188C147.913 41.4872 148.804 42.8822 149.256 44.1432C149.651 45.2477 149.931 46.394 150.088 47.5568ZM155.761 45.6387C153.596 46.0786 151.579 47.2176 150.084 48.8441C149.937 49.0043 149.651 48.9338 149.516 48.7628C149.382 48.5918 149.356 48.3621 149.33 48.1461C149.162 46.7154 148.787 45.3089 148.223 43.983C147.908 43.2443 147.381 42.4282 146.578 42.4152C145.983 42.4055 145.465 42.8822 145.245 43.4355C145.026 43.9888 145.044 44.6048 145.086 45.1988C145.321 48.5104 146.193 51.7763 147.639 54.7647C150.007 53.4377 152.375 52.1108 154.743 50.7838C155.482 50.3694 156.234 49.9454 156.808 49.3229C157.383 48.7005 157.761 47.8358 157.594 47.0056C157.427 46.1751 156.591 45.4702 155.761 45.6387Z" fill="#FFB61D"/>
<path fill-rule="evenodd" clip-rule="evenodd" d="M133.517 211.596C140.429 210.808 147.385 210.412 154.341 210.409C155.618 210.408 156.728 209.417 157.246 208.251C157.765 207.085 157.806 205.77 157.807 204.494C157.809 199.752 157.363 195.023 156.918 190.303C156.737 188.389 156.557 186.475 156.376 184.56C156.266 183.399 156.15 182.211 155.661 181.152C154.812 179.314 152.933 178.119 150.975 177.604C149.017 177.089 146.959 177.16 144.935 177.234C138.218 177.48 131.5 177.726 124.782 177.972C128.655 176.552 132.872 176.485 136.997 176.435C140.159 176.396 143.32 176.357 146.482 176.319C149.714 176.279 153.407 176.441 155.469 178.931C156.801 180.539 157.094 182.741 157.317 184.817C158.018 191.354 158.532 197.911 158.857 204.477C158.965 206.653 158.877 209.211 157.106 210.479C156.114 211.188 154.829 211.294 153.613 211.376C146.21 211.878 138.807 212.379 131.404 212.881C129.666 212.998 127.834 213.099 126.27 212.331C125.727 212.064 125.169 211.46 125.461 210.93C127.867 212.24 130.794 211.906 133.517 211.596Z" fill="#00160A"/>
<path fill-rule="evenodd" clip-rule="evenodd" d="M104.239 106.734C104.378 106.941 104.409 107.2 104.437 107.448C104.502 108.024 104.567 108.601 104.632 109.179C104.709 109.863 104.724 110.691 104.157 111.081C103.854 111.29 103.464 111.306 103.097 111.317C95.3746 111.525 87.6522 111.734 79.9298 111.943C79.433 111.956 78.8581 111.934 78.5536 111.542C78.3624 111.295 78.3329 110.964 78.3152 110.652C78.2587 109.674 78.2432 108.694 78.2681 107.714C78.272 107.565 78.2807 107.404 78.3732 107.287C78.4841 107.147 78.6796 107.113 78.8567 107.089C86.8361 106.008 94.9228 105.723 102.958 106.238C103.433 106.269 103.975 106.339 104.239 106.734ZM103.922 110.487C103.138 110.064 103.928 108.822 103.643 107.977C103.398 107.252 102.467 107.08 101.702 107.037C94.4206 106.622 87.101 106.881 79.8668 107.808C79.6004 107.842 79.3049 107.893 79.1432 108.108C78.9834 108.32 79.0122 108.614 79.0486 108.877C79.1051 109.284 79.1612 109.69 79.2174 110.098C79.262 110.418 79.3297 110.778 79.599 110.957C79.7945 111.088 80.0461 111.086 80.2805 111.08C88.1609 110.883 96.0416 110.685 103.922 110.487Z" fill="#00160A"/>
<path fill-rule="evenodd" clip-rule="evenodd" d="M118.766 120.406C118.803 119.549 118.84 118.692 118.877 117.835C118.949 116.163 119.036 114.43 119.813 112.948C120.59 111.466 122.267 110.315 123.895 110.7C124.913 110.941 125.852 111.741 126.876 111.527C127.768 111.339 128.315 110.458 129.068 109.945C130.864 108.723 133.367 109.858 134.853 111.443C136.453 113.152 137.494 115.377 137.779 117.701C137.803 117.898 137.815 118.119 137.688 118.272C137.583 118.399 137.411 118.442 137.251 118.479C136.632 118.621 136.014 118.763 135.395 118.904C134.869 119.025 134.323 119.146 133.794 119.036C133.265 118.927 132.757 118.519 132.715 117.981C132.557 120.989 134.81 123.864 134.182 126.811C133.949 126.683 133.715 126.555 133.482 126.428C134.033 123.473 131.399 120.612 131.949 117.657C132.022 117.265 132.179 116.849 132.528 116.659C132.878 116.469 133.431 116.685 133.417 117.083C133.395 117.72 134.083 118.196 134.72 118.19C135.357 118.185 135.937 117.843 136.482 117.512C136.676 117.394 136.622 117.102 136.541 116.89C135.939 115.309 135.147 113.801 134.187 112.407C133.539 111.465 132.757 110.534 131.68 110.152C130.602 109.769 129.179 110.16 128.783 111.232C128.318 112.487 126.564 112.572 125.275 112.21C123.987 111.848 122.541 111.283 121.391 111.968C120.43 112.541 120.108 113.762 119.928 114.867C119.619 116.762 119.476 118.684 119.502 120.604C119.554 120.897 119.928 120.991 120.225 120.984C121.793 120.943 123.248 119.707 123.541 118.167C123.964 118.652 124.115 119.31 124.251 119.939C124.724 122.118 125.197 124.296 125.67 126.474C125.816 127.145 125.646 128.176 124.971 128.054C124.665 125.678 124.212 123.321 123.614 121.001C122.486 121.258 121.357 121.514 120.228 121.771C119.882 121.85 119.494 121.923 119.191 121.738C118.773 121.482 118.745 120.896 118.766 120.406Z" fill="#00160A"/>
<path fill-rule="evenodd" clip-rule="evenodd" d="M151.789 179.569C152.365 180.193 151.47 181.345 151.998 182.011C152.272 182.356 152.076 182.904 151.714 183.154C151.351 183.405 150.886 183.438 150.446 183.464C142.884 183.903 135.321 184.343 127.759 184.782C127.245 184.812 126.631 184.794 126.35 184.363C126.227 184.175 126.197 183.942 126.171 183.719C126.102 183.138 126.033 182.557 125.963 181.976C125.942 181.793 125.922 181.598 126.008 181.435C126.15 181.167 126.501 181.11 126.803 181.083C134.751 180.381 142.708 179.788 150.672 179.304C151.068 179.28 151.52 179.277 151.789 179.569ZM150.921 180.551C150.897 180.407 150.864 180.25 150.749 180.161C150.635 180.071 150.475 180.078 150.331 180.088C143.279 180.602 136.227 181.116 129.176 181.63C128.606 181.672 128.015 181.72 127.517 182C127.019 182.281 126.644 182.866 126.793 183.418C126.839 183.588 126.938 183.751 127.09 183.843C127.275 183.955 127.507 183.947 127.723 183.935C135.169 183.531 142.613 183.128 150.059 182.724C150.944 182.676 151.071 181.424 150.921 180.551Z" fill="#00160A"/>
<path fill-rule="evenodd" clip-rule="evenodd" d="M157.756 172.797C159.095 176.319 159.522 180.111 159.937 183.856C160.904 192.557 161.869 201.258 162.836 209.958C162.117 210.018 161.786 209.095 161.696 208.379C160.233 196.672 159.761 184.815 157.286 173.279C157.443 173.119 157.6 172.958 157.756 172.797Z" fill="#00160A"/>
<path fill-rule="evenodd" clip-rule="evenodd" d="M114.578 112.189C114.37 112.1 114.374 111.775 114.534 111.615C114.693 111.455 114.935 111.416 115.16 111.387C116.842 111.173 118.537 111.069 120.232 111.076C120.142 111.799 119.208 112.01 118.48 112.044C117.257 112.1 116.034 112.157 114.81 112.213C114.732 112.217 114.65 112.22 114.578 112.189Z" fill="#00160A"/>
<path fill-rule="evenodd" clip-rule="evenodd" d="M124.065 200.672C123.926 198.082 123.786 195.492 123.646 192.903C123.27 185.932 122.883 178.891 120.942 172.185C120.695 171.329 120.412 170.46 119.863 169.758C118.489 168 115.946 167.799 113.715 167.799C105.113 167.799 96.5116 168.617 88.0639 170.238C87.2056 170.403 86.3132 170.592 85.6281 171.135C84.5398 171.998 84.2529 173.514 84.1518 174.9C83.9671 177.428 84.15 179.984 84.6925 182.461C84.3818 182.409 84.0715 182.357 83.7611 182.305C82.6228 179.934 82.1041 177.269 82.2704 174.645C82.3428 173.505 82.5523 172.345 83.1394 171.365C84.6003 168.929 87.8155 168.345 90.6397 168.042C97.8055 167.275 104.998 166.758 112.2 166.493C115.099 166.386 118.374 166.467 120.364 168.578C121.364 169.64 121.871 171.067 122.269 172.471C123.651 177.348 124.032 182.444 124.407 187.499C124.772 192.438 125.138 197.377 125.504 202.316C125.59 203.477 125.675 204.656 125.44 205.796C124.675 209.511 120.718 211.771 116.952 212.22C113.186 212.669 109.394 211.809 105.602 211.746C100.502 211.661 95.3711 213.017 90.3412 212.17C88.8926 211.926 87.3521 211.412 86.5558 210.178C86.0032 209.321 85.9035 208.26 85.8193 207.244C85.2224 200.08 84.6259 192.916 84.0293 185.753C83.9894 185.273 84.3461 184.558 84.7148 184.868C85.3725 191.768 86.0302 198.669 86.688 205.569C86.7769 206.503 86.8737 207.464 87.3079 208.296C87.9382 209.503 89.2101 210.271 90.5284 210.613C91.8471 210.955 93.2292 210.927 94.5914 210.909C100.354 210.834 106.119 210.978 111.871 211.339C113.795 211.46 115.739 211.605 117.639 211.282C119.539 210.959 121.424 210.113 122.604 208.588C124.284 206.418 124.213 203.413 124.065 200.672Z" fill="#00160A"/>
<path fill-rule="evenodd" clip-rule="evenodd" d="M114.286 109.39C114.822 108.971 114.372 108.114 114.477 107.442C114.627 106.492 115.81 106.165 116.766 106.055C122.906 105.345 129.089 105.009 135.27 105.05C135.784 105.054 136.392 105.111 136.651 105.555C136.962 106.089 136.672 107.02 137.261 107.207C137.537 107.294 137.891 107.132 138.101 107.333C138.447 107.664 137.802 108.112 137.324 108.155C130.091 108.804 122.843 109.279 115.587 109.58C115.143 109.598 114.672 109.61 114.286 109.39ZM135.892 106.394C135.723 105.97 135.158 105.907 134.7 105.914C128.873 106.003 123.049 106.291 117.241 106.778C116.56 106.835 115.757 106.977 115.473 107.598C115.337 107.952 115.597 108.358 115.94 108.518C116.283 108.679 116.68 108.658 117.058 108.634C122.859 108.266 128.661 107.898 134.462 107.53C134.819 107.508 135.191 107.481 135.499 107.298C135.807 107.116 136.024 106.727 135.892 106.394Z" fill="#00160A"/>
<path fill-rule="evenodd" clip-rule="evenodd" d="M143.711 191.524C144.606 192.235 144.223 193.793 145.001 194.63C145.363 195.018 145.905 195.17 146.415 195.32C146.743 195.415 147.149 195.656 147.044 195.981C146.938 196.314 146.453 196.261 146.127 196.133C145.064 195.717 143.865 195.024 143.806 193.884C143.763 193.051 143.516 192.23 143.092 191.513C143.211 191.311 143.527 191.378 143.711 191.524Z" fill="#00160A"/>
<path fill-rule="evenodd" clip-rule="evenodd" d="M147.942 203.318C147.651 199.565 147.359 195.812 147.068 192.059C147.025 191.508 146.976 190.936 146.703 190.455C146.43 189.973 145.864 189.611 145.33 189.754C142.912 190.403 140.402 190.703 137.899 190.644C135.711 190.593 133.473 190.273 131.368 190.872C131.407 191.914 131.446 192.957 131.485 193.999C131.496 194.303 131.514 194.626 131.687 194.877C132.172 195.579 133.378 195.044 133.651 194.235C133.925 193.426 133.678 192.542 133.725 191.689C133.733 191.538 133.763 191.367 133.892 191.287C134.165 191.117 134.427 191.522 134.497 191.836C134.698 192.735 134.898 193.677 134.661 194.567C134.425 195.458 133.598 196.265 132.685 196.147C131.738 196.025 131.35 197.319 131.327 198.274C131.281 200.179 131.236 202.084 131.19 203.989C131.176 204.589 131.391 205.417 131.987 205.349C133.526 205.175 135.064 205 136.603 204.826C136.974 204.784 137.374 204.747 137.702 204.929C138.029 205.111 138.201 205.606 137.934 205.867C136.126 206.025 134.319 206.184 132.512 206.342C131.984 206.388 131.437 206.432 130.939 206.251C130.441 206.07 130.007 205.597 130.053 205.069C130.497 199.886 130.597 194.675 130.35 189.479C130.298 188.374 131.644 187.812 132.732 187.609C136.184 186.961 139.705 186.68 143.216 186.773C144.393 186.804 145.676 186.92 146.53 187.731C147.399 188.557 147.569 189.858 147.689 191.051C148.138 195.522 148.587 199.992 149.036 204.463C149.061 204.704 149.066 204.99 148.874 205.137C148.758 205.225 148.604 205.234 148.46 205.24C146.961 205.303 145.463 205.365 143.964 205.427C143.17 205.46 142.316 205.477 141.655 205.036C141.202 204.734 140.902 204.253 140.639 203.776C140.007 202.631 139.502 201.417 139.137 200.162C138.563 201.597 138.201 203.115 138.063 204.654C137.339 204.733 137.204 203.646 137.373 202.937C137.72 201.475 138.067 200.013 138.415 198.551C138.468 198.328 138.552 198.07 138.77 198.001C139.092 197.9 139.338 198.285 139.456 198.6C139.945 199.915 140.434 201.231 140.924 202.546C141.345 203.677 142.56 204.358 143.759 204.497C144.959 204.637 146.161 204.335 147.331 204.035C147.562 203.976 147.825 203.891 147.915 203.669C147.96 203.559 147.952 203.436 147.942 203.318ZM131.641 189.577C132.726 189.591 133.811 189.605 134.896 189.619C135.711 189.63 136.527 189.64 137.342 189.625C140.285 189.569 143.221 189.175 146.074 188.451C145.438 187.798 144.417 187.761 143.505 187.777C140.241 187.836 136.98 188.026 133.732 188.346C132.863 188.432 131.783 188.715 131.641 189.577Z" fill="#00160A"/>
<path fill-rule="evenodd" clip-rule="evenodd" d="M126.784 186.766C126.722 186.427 127.162 186.242 127.503 186.189C131.44 185.579 135.429 185.309 139.412 185.384C139.469 185.385 139.528 185.387 139.581 185.409C139.768 185.487 139.759 185.781 139.611 185.919C139.462 186.057 139.244 186.08 139.042 186.095C135.249 186.379 131.4 186.233 127.684 187.044C127.34 187.12 126.847 187.114 126.784 186.766Z" fill="#00160A"/>
<path fill-rule="evenodd" clip-rule="evenodd" d="M214.824 178.615C215.041 178.102 215.281 177.561 215.742 177.249C216.131 176.986 216.619 176.928 217.087 176.877C218.473 176.727 219.859 176.576 221.245 176.426C221.93 176.351 222.815 176.063 222.789 175.374C222.705 173.148 222.877 170.586 224.644 169.232C226.261 167.993 228.683 168.333 230.342 169.514C232.001 170.696 233.052 172.537 233.959 174.361C234.36 175.169 235.459 175.316 236.348 175.16C237.237 175.005 238.138 174.655 239.014 174.868C240.364 175.195 241.046 176.67 241.51 177.979C243.837 184.549 245.417 191.398 248.313 197.738C249.395 200.11 249.053 203.069 247.457 205.13C247.26 203.493 247.534 201.803 248.238 200.312C248.57 199.61 247.465 199.148 246.689 199.15C238.774 199.17 230.825 199.193 222.998 200.367C222.759 200.403 222.505 200.447 222.327 200.61C222.154 200.769 222.086 201.009 222.026 201.236C221.783 202.158 221.541 203.08 221.298 204.002C221.146 204.579 221.241 205.476 221.836 205.416C229.582 204.632 237.37 204.258 245.156 204.296C245.975 204.3 247.093 204.625 246.987 205.437C238.693 205.534 230.368 205.635 222.163 206.856C220.856 207.05 219.954 205.432 220.102 204.12C220.251 202.807 221.003 201.63 221.215 200.326C221.398 199.202 221.17 198.057 220.923 196.945C220.532 195.178 220.095 193.421 219.612 191.677C219.141 189.975 218.627 188.285 218.113 186.595C217.336 184.039 216.558 181.483 215.781 178.927C214.712 180.493 214.236 182.453 214.467 184.335C214.628 185.644 215.114 186.889 215.478 188.158C215.998 189.971 216.271 191.845 216.543 193.712C217.078 197.39 217.613 201.068 218.148 204.746C218.227 205.287 218.071 206.085 217.53 206.005C215.125 198.563 215.785 190.336 212.947 183.048C213.572 181.571 214.198 180.093 214.824 178.615ZM232.74 179.965C233.523 179.529 233.929 178.511 233.661 177.656C233.392 176.8 232.477 176.197 231.584 176.287C229.396 176.509 227.208 176.73 225.019 176.952C224.817 176.973 224.591 177.006 224.469 177.169C224.374 177.297 224.372 177.471 224.381 177.631C224.439 178.631 224.786 179.613 225.369 180.427C225.823 181.06 226.449 181.817 226.096 182.511C225.653 183.377 224.2 182.891 223.84 181.988C223.479 181.085 223.736 180.065 223.669 179.095C223.602 178.124 222.904 177.008 221.945 177.169C220.372 177.434 218.799 177.699 217.226 177.963C217 178.002 216.706 178.141 216.772 178.36C218.687 184.7 220.603 191.04 222.518 197.38C222.757 198.171 223.295 199.148 224.099 198.961C231.476 197.238 239.255 198.867 246.747 197.735C244.502 190.698 242.181 183.687 239.781 176.702C239.711 176.496 239.63 176.277 239.454 176.148C239.26 176.005 238.998 176.01 238.757 176.02C237.633 176.068 236.509 176.115 235.386 176.163C234.941 176.181 234.335 176.394 234.432 176.828C234.738 178.189 235.043 179.55 235.349 180.912C235.401 181.146 235.453 181.396 235.365 181.62C235.128 182.228 234.232 182.075 233.634 181.812C233.242 181.639 232.829 181.45 232.587 181.096C232.345 180.743 232.365 180.174 232.74 179.965ZM229.843 170.089C228.982 169.457 227.848 169.001 226.854 169.392C226.507 169.529 226.206 169.758 225.91 169.984C225.384 170.388 224.841 170.81 224.53 171.396C224.241 171.941 224.181 172.575 224.127 173.191C224.08 173.728 224.033 174.266 223.985 174.803C223.956 175.136 223.944 175.519 224.186 175.751C224.418 175.973 224.782 175.957 225.101 175.927C227.39 175.709 229.679 175.491 231.968 175.273C232.294 175.242 232.693 175.154 232.779 174.837C232.813 174.713 232.785 174.58 232.755 174.454C232.333 172.72 231.283 171.145 229.843 170.089ZM228.986 175.775C228.756 175.841 229.012 176.273 229.18 176.102C229.394 176.014 229.156 175.611 228.976 175.756L228.986 175.775Z" fill="#FFB61D"/>
<path fill-rule="evenodd" clip-rule="evenodd" d="M156.415 124.318C156.375 124.185 156.454 124.044 156.548 123.941C157.01 123.433 157.782 123.395 158.468 123.394C162.627 123.384 166.786 123.375 170.945 123.365C171.238 123.364 171.551 123.37 171.79 123.539C172.029 123.708 172.123 124.107 171.893 124.289C171.771 124.385 171.602 124.391 171.447 124.393C166.615 124.447 161.783 124.5 156.951 124.554C156.741 124.556 156.475 124.52 156.415 124.318Z" fill="#00160A"/>
<path fill-rule="evenodd" clip-rule="evenodd" d="M157.956 128.613C157.706 128.468 157.74 128.065 157.951 127.867C158.162 127.669 158.469 127.622 158.756 127.588C160.478 127.38 162.209 127.266 163.94 127.152C164.893 127.089 165.846 127.026 166.799 126.964C168.039 126.882 169.278 126.8 170.518 126.718C170.912 126.693 171.351 126.681 171.648 126.942C171.944 127.202 171.872 127.828 171.478 127.852C167.104 128.124 162.729 128.395 158.355 128.666C158.219 128.674 158.074 128.68 157.956 128.613Z" fill="#00160A"/>
<path fill-rule="evenodd" clip-rule="evenodd" d="M181.404 134.268C181.735 133.64 182.094 132.981 182.702 132.615C183.31 132.249 184.243 132.325 184.57 132.955C184.919 133.625 184.4 134.433 183.792 134.88C183.183 135.327 182.434 135.643 182.039 136.286C184.176 137.695 186.314 139.103 188.451 140.511C190.125 141.615 192.019 143.19 191.677 145.165C191.476 146.323 190.494 147.224 189.401 147.656C188.308 148.088 187.106 148.133 185.931 148.167C178.034 148.394 170.13 148.354 162.236 148.047C161.688 148.025 161.077 147.974 160.712 147.565C160.429 147.249 160.371 146.797 160.326 146.374C159.871 142.173 159.417 137.971 158.962 133.769C158.946 133.614 158.93 133.452 158.985 133.306C159.219 132.693 160.137 133.071 160.65 133.48C164.284 136.381 170.093 136.04 173.363 132.734C174.153 131.936 175.498 132.039 176.513 132.521C177.528 133.002 178.378 133.786 179.396 134.26C179.287 133.671 179.806 133.05 180.405 133.053C181.004 133.055 181.518 133.68 181.404 134.268ZM181.852 136.975C181.592 136.022 180.183 135.822 179.405 136.432C178.628 137.042 178.376 138.105 178.309 139.091C178.284 139.459 177.679 139.496 177.472 139.191C177.264 138.886 177.349 138.475 177.464 138.125C177.767 137.201 178.235 136.33 178.838 135.567C179.136 135.189 178.698 134.678 178.304 134.401C176.914 133.423 174.945 132.459 173.67 133.582C170.175 136.661 164.6 137.071 160.693 134.537C160.739 137.691 160.972 140.842 161.388 143.969C161.43 144.284 161.484 144.62 161.702 144.852C161.99 145.158 162.461 145.18 162.881 145.18C169.67 145.189 176.458 145.198 183.247 145.206C183.908 145.207 184.806 144.971 184.754 144.313C184.634 142.78 185.313 141.207 186.51 140.242C185.568 139.558 184.627 138.874 183.685 138.19C183.398 137.982 183.098 137.767 182.748 137.707C181.691 137.526 180.985 138.737 180.612 139.741C180.039 138.718 180.707 137.229 181.852 136.975ZM164.109 147.44C171.179 147.496 178.248 147.484 185.317 147.405C187.324 147.382 189.667 147.179 190.755 145.492C180.994 145.921 171.218 146.027 161.45 145.811C161.328 146.983 162.931 147.431 164.109 147.44ZM188.302 141.139C188.092 141.006 187.874 140.87 187.629 140.828C186.889 140.7 186.305 141.44 185.983 142.119C185.798 142.511 185.636 142.915 185.5 143.327C185.396 143.642 185.306 143.976 185.372 144.3C185.437 144.625 185.703 144.932 186.034 144.935C187.236 144.949 188.438 144.936 189.639 144.897C189.923 144.888 190.231 144.867 190.443 144.68C190.693 144.458 190.724 144.076 190.661 143.749C190.435 142.562 189.323 141.786 188.302 141.139ZM184.056 133.465C184.043 133.099 183.554 132.913 183.216 133.054C182.878 133.196 182.67 133.531 182.485 133.848C182.261 134.229 182.036 134.611 181.812 134.993C181.694 135.193 181.631 135.533 181.857 135.584C182.454 135.087 183.051 134.591 183.648 134.095C183.847 133.929 184.065 133.725 184.056 133.465ZM180.188 134.062C180.087 134.555 180.34 135.101 180.782 135.342C180.936 134.834 180.846 134.258 180.545 133.82C180.526 133.696 180.359 133.625 180.256 133.697C180.178 133.797 180.149 133.934 180.183 134.057L180.188 134.062Z" fill="#00160A"/>
<path fill-rule="evenodd" clip-rule="evenodd" d="M155.883 119.505C155.704 118.636 155.524 117.768 155.345 116.899C155.275 116.562 155.211 116.187 155.388 115.891C155.63 115.488 156.182 115.434 156.652 115.426C168.191 115.225 179.734 115.269 191.271 115.558C192.058 115.578 192.704 116.257 192.943 117.007C193.183 117.757 193.104 118.567 193.023 119.35C192.979 119.773 192.909 120.245 192.572 120.504C192.295 120.717 191.918 120.722 191.569 120.718C179.981 120.592 168.394 120.465 156.806 120.339C156.615 120.336 156.413 120.331 156.252 120.229C156.016 120.081 155.94 119.778 155.883 119.505ZM157.477 116.188C156.624 116.182 156.019 117.195 156.233 118.021C156.446 118.847 157.243 119.415 158.073 119.616C158.902 119.817 159.769 119.72 160.618 119.64C171.083 118.662 181.665 120.532 192.122 119.477C192.177 118.841 192.229 118.183 192.024 117.578C191.819 116.973 191.285 116.431 190.647 116.427C179.59 116.347 168.534 116.268 157.477 116.188Z" fill="#00160A"/>
<path fill-rule="evenodd" clip-rule="evenodd" d="M86.3051 144.663C85.9188 145.395 85.3864 146.138 84.5879 146.356C83.0669 146.771 81.8094 145.083 81.3943 143.562C80.7463 141.188 80.9105 138.6 81.8526 136.326C82.3566 135.11 81.9365 133.672 81.1459 132.619C79.6555 130.633 76.8745 129.764 74.4852 130.44C72.0959 131.115 70.2102 133.24 69.7105 135.673C69.6321 136.053 69.6875 136.588 70.0723 136.642C71.9929 136.911 72.8746 139.165 73.1669 141.082C73.3901 142.546 73.4869 144.079 72.9905 145.474C72.4941 146.869 71.2791 148.094 69.8027 148.206C68.4779 147.314 67.4803 145.947 67.0354 144.413C66.2077 141.56 67.2827 138.535 68.3926 135.78C69.0701 134.098 69.7969 132.376 71.0836 131.099C73.834 128.369 78.9697 128.693 81.3547 131.747C82.2724 132.922 82.7991 134.382 83.8157 135.472C84.5821 136.294 85.5955 136.868 86.2947 137.748C87.8135 139.659 87.4442 142.504 86.3051 144.663ZM67.8767 139.388C67.1805 141.308 67.3745 143.53 68.3929 145.299C68.56 145.59 68.7591 145.879 69.0514 146.044C69.3437 146.208 69.7512 146.211 69.9823 145.967C70.675 145.24 70.7614 144.138 70.7592 143.134C70.7563 141.945 70.6833 140.757 70.54 139.577C70.4813 139.094 70.3812 138.56 69.9906 138.27C69.6 137.981 68.8671 138.223 68.9283 138.706C69.1068 140.11 69.2854 141.514 69.4636 142.918C69.5043 143.238 69.5399 143.583 69.3801 143.863C69.2199 144.142 68.7778 144.272 68.5751 144.022C68.0499 142.95 67.8915 141.703 68.1323 140.534C68.2191 140.114 68.2785 139.539 67.8767 139.388ZM83.9521 144.957C84.1296 144.818 84.2124 144.593 84.2787 144.378C84.7992 142.688 84.805 140.843 84.2945 139.149C84.1005 138.505 83.5745 137.752 82.9377 137.967C82.5694 138.092 82.3829 138.495 82.2659 138.865C81.7331 140.549 81.804 142.417 82.4625 144.055C82.5888 144.369 82.7447 144.687 83.0122 144.894C83.2793 145.101 83.6854 145.165 83.9521 144.957ZM71.4533 138.881C71.9173 141.232 71.8187 143.693 71.1678 146C71.1081 146.212 71.3489 146.378 71.5505 146.467C72.5268 144.099 72.6503 141.39 71.8939 138.943C71.7683 138.854 71.5987 138.83 71.4533 138.881ZM84.9979 138.246C84.8536 138.476 84.7096 138.706 84.5652 138.936C85.0408 138.856 85.2582 139.505 85.2834 139.986C85.3425 141.099 85.4012 142.212 85.4602 143.325C85.903 143.159 85.9829 142.578 85.9912 142.105C86.0099 141.04 86.0283 139.975 86.047 138.91C85.8875 138.892 85.728 138.873 85.5686 138.854C85.5523 138.553 85.2978 138.281 84.9979 138.246Z" fill="#00160A"/>
<path fill-rule="evenodd" clip-rule="evenodd" d="M137.199 140.265C134.027 140.114 130.841 140.252 127.693 140.676C127.415 140.714 127.103 140.745 126.879 140.575C126.655 140.405 126.679 139.954 126.959 139.924C130.107 139.578 133.268 139.355 136.433 139.257C136.777 139.246 137.163 139.252 137.408 139.494C137.653 139.736 137.543 140.282 137.199 140.265Z" fill="#00160A"/>
<path fill-rule="evenodd" clip-rule="evenodd" d="M63.507 127.599C64.4077 127.514 65.3085 127.429 66.2088 127.345C66.6628 127.302 67.1164 127.26 67.57 127.217C70.4557 126.946 73.3415 126.675 76.2298 126.434C76.3432 126.424 76.4616 126.416 76.5668 126.459C76.8796 126.589 76.8313 127.094 76.5588 127.295C76.2867 127.496 75.918 127.484 75.58 127.473C71.3262 127.332 67.0869 128.61 62.8529 128.178C62.5779 128.149 62.2179 128.008 62.2665 127.735C62.6783 127.676 63.093 127.638 63.507 127.599Z" fill="#00160A"/>
<path fill-rule="evenodd" clip-rule="evenodd" d="M160.508 221.076C160.367 219.838 160.265 218.489 159.432 217.562C158.793 216.85 159.124 215.526 160.023 215.199C160.921 214.871 162.026 215.671 161.995 216.627C161.984 216.956 161.865 217.269 161.772 217.584C161.136 219.736 161.726 222.051 162.503 224.155C163.29 226.287 164.494 228.555 166.655 229.256C169.155 230.066 171.921 228.272 173.029 225.89C174.138 223.506 173.969 220.739 173.582 218.14C173.543 217.879 173.473 217.578 173.234 217.468C172.261 217.019 172.114 215.441 172.986 214.82C173.858 214.198 175.301 214.853 175.408 215.919C175.444 216.28 175.352 216.64 175.283 216.997C174.806 219.472 175.437 222.068 174.914 224.534C174.586 226.078 173.8 227.522 172.681 228.636C171.495 229.817 169.893 230.631 168.219 230.66C165.966 230.698 163.858 229.3 162.584 227.44C161.311 225.581 160.764 223.316 160.508 221.076Z" fill="#00160A"/>
<path fill-rule="evenodd" clip-rule="evenodd" d="M94.7894 119.371C94.8521 120.219 94.9118 121.094 94.6472 121.902C94.383 122.711 93.7112 123.448 92.8634 123.521C88.4934 123.896 84.1226 124.272 79.7439 124.531C73.7737 124.885 67.793 125.021 61.8138 125.157C61.6003 125.162 61.3721 125.163 61.1939 125.045C60.9267 124.868 60.8767 124.504 60.8522 124.185C60.7874 123.349 60.7226 122.513 60.6582 121.677C60.6384 121.423 60.6236 121.148 60.7604 120.933C60.9613 120.618 61.3908 120.564 61.7637 120.542C72.761 119.89 83.7734 119.5 94.7894 119.371ZM92.9495 122.303C93.6522 122.256 93.7944 121.15 93.2792 120.67C92.764 120.19 91.9818 120.179 91.2776 120.197C82.2272 120.422 73.1732 120.647 64.1405 121.261C63.4903 121.306 62.8135 121.36 62.2512 121.69C61.6889 122.02 61.2828 122.714 61.4977 123.329C61.803 124.204 62.9827 124.3 63.9068 124.238C73.5876 123.593 83.2687 122.948 92.9495 122.303Z" fill="#00160A"/>
<path fill-rule="evenodd" clip-rule="evenodd" d="M83.5517 140.492C83.5603 140.722 83.5689 140.952 83.5776 141.182C83.5959 141.66 83.6136 142.142 83.5445 142.615C82.9443 142.552 82.7586 141.78 82.7233 141.178C82.7067 140.891 82.701 140.571 82.8932 140.358C83.0851 140.144 83.5409 140.205 83.5517 140.492Z" fill="#00160A"/>
<path fill-rule="evenodd" clip-rule="evenodd" d="M126.764 142.451C127.353 141.907 128.248 141.924 129.049 141.947C131.583 142.019 134.124 141.823 136.617 141.363C136.911 141.309 137.069 141.767 136.886 142.003C136.703 142.239 136.372 142.288 136.075 142.318C133.265 142.604 130.444 142.773 127.62 142.826C127.283 142.832 126.857 142.774 126.764 142.451Z" fill="#00160A"/>
<path fill-rule="evenodd" clip-rule="evenodd" d="M221.363 151.951C221.085 152.891 220.162 153.472 219.281 153.903C214.875 156.058 209.695 156.586 204.945 155.363C203.349 154.953 201.531 154.003 201.463 152.357C201.413 151.147 202.379 150.133 203.402 149.484C204.971 148.489 206.8 147.987 208.624 147.632C212.143 146.949 215.957 146.808 219.142 148.452C220.476 149.14 221.788 150.511 221.363 151.951ZM202.551 152.174C202.554 153.503 204.037 154.282 205.323 154.619C209.788 155.79 214.673 155.285 218.805 153.224C219.468 152.893 220.167 152.457 220.378 151.747C220.661 150.793 219.922 149.832 219.101 149.268C216.633 147.572 213.368 147.804 210.389 148.123C207.992 148.379 205.439 148.715 203.612 150.287C203.047 150.773 202.549 151.429 202.551 152.174Z" fill="#00160A"/>
<path fill-rule="evenodd" clip-rule="evenodd" d="M91.7138 74.0793C91.5637 73.2247 92.153 72.3755 92.9126 71.9557C93.6722 71.5359 94.5675 71.4549 95.4337 71.4038C103.157 70.9495 110.868 72.1901 118.595 72.5976C119.589 72.6501 120.637 72.7052 121.474 73.2452C122.311 73.7856 122.802 74.9981 122.223 75.8084C121.943 76.2001 121.48 76.4179 121.021 76.563C119.696 76.9813 118.275 76.9259 116.887 76.8661C109.664 76.5558 102.441 76.2451 95.2188 75.9348C93.7845 75.8732 91.9626 75.4931 91.7138 74.0793ZM92.7052 72.8409C92.297 73.4159 92.6386 74.2741 93.2283 74.6611C93.818 75.0481 94.561 75.0917 95.2656 75.1233C102.921 75.4679 110.575 75.8124 118.23 76.1569C118.976 76.1904 119.802 76.1976 120.367 75.7098C120.932 75.2216 120.858 74.0581 120.12 73.9407C111.608 72.5875 102.971 72.0255 94.3548 72.2642C93.75 72.2811 93.0555 72.3474 92.7052 72.8409Z" fill="#00160A"/>
<path fill-rule="evenodd" clip-rule="evenodd" d="M176.409 66.6614C177.583 64.2134 179.489 61.6898 182.196 61.481C183.999 61.3421 185.913 61.6574 187.34 62.7684C189.929 64.784 190.11 68.6918 189.185 71.8397C188.094 75.5498 185.661 78.986 182.17 80.65C181.337 81.047 180.432 81.3437 179.51 81.3073C177.061 81.2112 175.278 78.8053 174.75 76.4117C174.028 73.1314 174.955 69.6898 176.409 66.6614ZM179.454 80.4113C181.264 80.6579 182.97 79.5048 184.247 78.1984C186.641 75.7496 188.248 72.5431 188.777 69.1602C188.93 68.1853 188.993 67.1737 188.728 66.223C188.206 64.3535 186.434 63.0024 184.532 62.6136C182.703 62.2399 180.694 62.686 179.284 63.9092C178.607 64.4975 178.08 65.2402 177.621 66.0106C176.122 68.5241 175.271 71.4487 175.375 74.373C175.422 75.6942 175.672 77.037 176.341 78.1775C177.01 79.3176 178.144 80.2331 179.454 80.4113Z" fill="#FFB61D"/>
<path fill-rule="evenodd" clip-rule="evenodd" d="M117.041 170.564C117.282 170.551 117.54 170.542 117.744 170.671C117.996 170.83 118.088 171.147 118.161 171.436C118.319 172.069 118.479 172.727 118.351 173.367C118.223 174.006 117.719 174.62 117.067 174.649C115.405 174.722 113.743 174.794 112.081 174.867C111.429 174.895 110.665 174.988 110.341 175.555C110.121 175.938 110.187 176.415 110.259 176.851C110.463 178.088 111.039 179.651 112.291 179.606C113.124 179.576 113.867 180.208 114.225 180.96C114.584 181.713 114.638 182.57 114.685 183.402C114.73 184.185 114.53 185.256 113.746 185.275C113.113 185.291 112.938 186.146 112.959 186.779C113.098 191.178 113.238 195.578 113.378 199.977C113.4 200.686 112.492 200.984 111.786 201.055C105.873 201.652 99.8985 201.636 93.9884 201.008C93.7767 200.985 93.506 200.903 93.5013 200.69C93.3919 195.719 93.2825 190.748 93.173 185.777C93.1669 185.487 93.0247 185.086 92.745 185.163C91.8644 185.404 90.9788 184.586 90.7963 183.692C90.6141 182.797 90.927 181.884 91.2351 181.024C91.3777 180.627 91.5375 180.206 91.8785 179.957C92.6064 179.425 93.9517 179.804 94.2779 178.964C94.3319 178.825 94.3423 178.672 94.3369 178.523C94.2915 177.225 93.0827 176.201 91.8093 175.944C90.536 175.688 89.2235 176.025 87.9833 176.412C87.6992 175.339 87.6265 174.212 87.7701 173.112C87.8043 172.852 87.8569 172.579 88.0315 172.384C88.2803 172.106 88.6946 172.067 89.0672 172.047C98.3919 171.553 107.717 171.058 117.041 170.564ZM92.1798 180.635C92.0005 180.843 91.9609 181.134 91.9285 181.406C91.8443 182.117 91.76 182.829 91.6761 183.54C91.6581 183.69 91.6416 183.848 91.7021 183.986C91.8309 184.281 92.2215 184.332 92.5441 184.34C94.2559 184.383 95.9677 184.425 97.6795 184.468C97.9682 184.475 98.271 184.479 98.5273 184.346C98.9395 184.132 99.1091 183.552 98.8765 183.15C99.0857 183.128 99.2952 183.107 99.5047 183.086C99.4125 183.706 100.044 184.225 100.665 184.316C101.285 184.407 101.909 184.218 102.534 184.168C103.844 184.065 105.153 184.579 106.459 184.425C106.596 184.409 106.743 184.38 106.839 184.28C106.965 184.15 106.962 183.947 106.952 183.766C106.903 182.899 106.853 182.033 106.804 181.166C106.788 180.893 106.765 180.599 106.589 180.39C106.339 180.09 105.89 180.081 105.5 180.096C103.616 180.169 101.731 180.242 99.8463 180.315C99.7149 180.32 99.5691 180.331 99.4781 180.426C99.3758 180.532 99.383 180.7 99.3967 180.847C99.4601 181.521 99.5234 182.196 99.5868 182.87C99.3366 182.894 99.0914 182.967 98.8689 183.084C98.8131 182.553 98.7577 182.021 98.7019 181.49C98.6511 181.005 98.4614 180.384 97.9743 180.378C96.4188 180.357 94.8636 180.337 93.308 180.316C92.9037 180.31 92.4437 180.329 92.1798 180.635ZM101.141 185.864C101.115 185.506 100.96 185.032 100.603 185.071C98.3855 185.309 96.1405 185.295 93.9258 185.03C93.9805 189.856 94.0705 194.682 94.1954 199.507C94.2116 200.128 94.9953 200.376 95.6135 200.44C97.4491 200.628 99.2973 200.692 101.142 200.632C101.293 200.627 101.457 200.616 101.572 200.519C101.723 200.39 101.733 200.164 101.731 199.964C101.678 195.26 101.481 190.557 101.141 185.864ZM112.233 185.598C112.172 185.494 112.034 185.472 111.914 185.462C110.006 185.3 108.088 185.255 106.175 185.326C106.001 185.333 105.816 185.344 105.678 185.45C105.47 185.612 105.457 185.916 105.463 186.18C105.568 190.997 105.674 195.814 105.779 200.631C107.886 200.834 110.031 200.635 112.064 200.048C112.19 200.011 112.325 199.968 112.406 199.865C112.495 199.753 112.5 199.6 112.502 199.458C112.542 196.359 112.462 193.259 112.382 190.161C112.344 188.702 112.307 187.242 112.269 185.782C112.267 185.719 112.265 185.652 112.233 185.598ZM88.5747 173.387C88.209 173.962 88.6021 174.774 89.2033 175.095C89.8045 175.416 90.5252 175.385 91.2056 175.346C95.3229 175.107 99.4403 174.869 103.558 174.63C107.484 174.403 111.411 174.175 115.331 173.856C115.906 173.809 116.509 173.75 116.983 173.423C117.458 173.097 117.733 172.406 117.415 171.926C117.096 171.444 116.41 171.422 115.832 171.452C107.277 171.893 98.7217 172.334 90.1663 172.775C89.5752 172.806 88.8923 172.887 88.5747 173.387ZM105.032 200.519C104.742 195.816 104.685 191.1 104.86 186.392C104.87 186.122 104.879 185.84 104.771 185.592C104.456 184.868 103.442 184.87 102.662 184.99C102.304 185.046 101.848 185.216 101.875 185.577C102.21 190.08 102.545 194.59 102.47 199.106C102.46 199.703 102.802 200.294 103.326 200.583C103.849 200.871 104.531 200.846 105.032 200.519ZM113.868 183.159C113.766 182.538 113.66 181.903 113.357 181.351C113.054 180.799 112.511 180.337 111.883 180.306C110.688 180.246 109.493 180.186 108.298 180.127C107.987 180.112 107.558 180.205 107.573 180.516C107.618 181.462 107.664 182.407 107.709 183.353C107.729 183.765 107.806 184.263 108.188 184.42C108.312 184.47 108.448 184.474 108.581 184.477C110.139 184.513 111.697 184.549 113.255 184.584C113.552 184.591 113.801 184.33 113.882 184.043C113.963 183.758 113.916 183.453 113.868 183.159ZM106.326 178.5C106.17 177.844 106.008 177.172 105.634 176.61C105.261 176.048 104.628 175.608 103.955 175.658C102.918 175.734 101.881 175.81 100.844 175.887C100.197 175.934 99.4655 176.027 99.0867 176.553C98.6288 177.188 98.9431 178.075 98.8193 178.849C98.7757 179.121 98.9881 179.381 99.2423 179.487C99.4964 179.593 99.7823 179.58 100.057 179.566C101.914 179.471 103.77 179.375 105.627 179.28C105.899 179.266 106.227 179.216 106.335 178.965C106.398 178.821 106.363 178.654 106.326 178.5ZM109.58 177.311C109.226 176.827 109.235 176.111 109.6 175.635C108.949 175.231 108.038 175.306 107.462 175.811C106.885 176.315 106.691 177.209 107.006 177.907C107.117 178.154 107.054 178.445 107.132 178.704C107.243 179.071 107.627 179.302 108.008 179.349C108.388 179.396 108.77 179.296 109.141 179.197C109.627 179.067 110.219 178.807 110.214 178.304C110.21 177.902 109.817 177.635 109.58 177.311ZM97.9772 179.034C98.1929 178.329 97.9027 177.525 97.349 177.037C96.7957 176.55 96.0203 176.36 95.2855 176.426C94.9907 176.453 94.6828 176.526 94.469 176.731C94.2555 176.937 94.1792 177.306 94.3714 177.531C94.5136 177.698 94.757 177.747 94.9061 177.907C95.1332 178.152 95.0565 178.544 95.1606 178.861C95.3957 179.578 96.3695 179.646 97.1208 179.577C97.3782 179.554 97.6619 179.518 97.8314 179.322C97.9023 179.24 97.9455 179.138 97.9772 179.034ZM98.0989 176.661C98.2731 176.493 98.3048 176.197 98.1698 175.995C97.8699 175.906 97.5344 176.084 97.3764 176.355C97.4937 176.623 97.8235 176.778 98.1054 176.698M106.661 175.913C106.705 175.795 106.679 175.654 106.597 175.559C106.312 175.469 105.98 175.55 105.769 175.761C105.986 176.008 106.382 176.074 106.669 175.912L106.661 175.913Z" fill="#00160A"/>
<path fill-rule="evenodd" clip-rule="evenodd" d="M221.445 155.924C212.317 159.493 203.189 163.062 194.061 166.632C190.134 168.167 185.592 170.472 185.171 174.667C190.505 170.563 197.093 168.114 203.813 167.738C199.171 173.586 193.309 178.462 186.714 181.962C180.79 185.106 173.291 188.458 172.783 195.144C179.144 187.569 188.925 182.983 198.817 182.937C192.488 192.206 182.341 198.781 171.295 200.768C171.674 203.617 172.053 206.465 172.432 209.313C176.185 209.18 179.961 209.717 183.528 210.891C186.069 221.805 188.609 232.719 191.15 243.633C191.775 246.319 192.325 249.405 190.681 251.619C189.049 253.814 185.968 254.192 183.239 254.386C172.485 255.151 161.73 255.915 150.976 256.68C149.688 250.846 148.401 245.013 147.113 239.179C128.972 240.863 110.832 242.548 92.6913 244.232C88.871 244.587 84.8307 244.905 81.374 243.241C68.8355 237.204 53.632 248.889 40.3887 244.614C52.0242 244.395 63.6238 242.365 74.6427 238.621C78.6387 237.263 83.4234 233.543 81.3354 229.875C71.1172 237.005 58.006 239.851 45.7509 237.6C46.4702 225.699 46.0076 213.727 44.3714 201.916C53.0913 200.669 61.6852 198.54 69.9789 195.572C72.2858 194.747 74.6592 193.797 76.3019 191.979C77.945 190.161 78.6092 187.224 77.1656 185.244C64.5508 191.966 49.9859 194.974 35.7405 193.8C36.4838 209.919 37.2272 226.038 37.9706 242.157C35.8648 226.049 34.7481 209.813 34.6288 193.569C41.9619 192.919 49.2947 192.269 56.6276 191.618C55.4486 186.384 54.262 181.03 54.8679 175.699C55.4734 170.368 58.2173 164.969 63.0402 162.618C59.3916 154.836 53.8772 147.936 47.0908 142.662C39.1352 136.479 28.907 131.817 25.274 122.418C22.8719 116.204 24.0502 108.977 27.3762 103.204C30.7023 97.4319 35.9728 92.9851 41.7012 89.5839C33.8146 87.5567 27.8408 79.695 28.0007 71.5536C28.1605 63.4122 34.4382 55.791 42.3982 54.0753C38.6452 49.6026 32.7357 47.5528 28.4191 43.6216C23.3906 39.042 20.8638 31.6548 22.6954 25.1048C24.5271 18.5548 30.9762 13.4013 37.7715 13.6917C43.3529 13.9303 48.2648 17.4605 52.161 21.4644C58.2033 27.674 62.6972 35.3793 65.1268 43.6961C66.7461 49.2394 72.681 52.0593 77.6933 54.9281C82.7056 57.7969 87.9105 62.7941 86.4982 68.3935C84.6312 60.7309 78.3622 54.3082 70.7471 52.2558C66.7792 51.1866 65.3331 46.4649 64.0565 42.5585C61.5729 34.9569 57.3328 27.9352 51.7622 22.1977C47.5754 17.8859 42.1019 14.1234 36.1007 14.4474C29.9229 14.7808 24.4769 19.8061 23.0645 25.8296C21.6522 31.853 24.0202 38.4531 28.528 42.6906C33.1194 47.007 39.6878 49.1213 43.3896 54.2211C35.3612 55.8526 29.014 63.5789 28.9719 71.7711C28.9297 79.9636 35.197 87.7547 43.2082 89.4687C37.5627 92.7735 32.2798 96.9714 28.7967 102.509C25.3135 108.046 23.8204 115.074 25.9045 121.275C30.725 135.617 50.8172 139.04 57.9077 152.407C59.828 146.1 57.0131 139.468 55.5663 133.035C54.1194 126.602 54.937 118.342 60.9346 115.603C59.1818 107.154 57.4289 98.7066 55.6761 90.2585C54.37 83.9635 53.7148 75.9881 59.1303 72.5227C55.3146 71.3394 51.9281 68.8187 49.6994 65.5035C52.1063 69.1873 56.7417 71.2775 61.0962 70.6425C55.5936 58.7142 49.4924 47.0617 42.823 35.7445C50.0093 46.5801 56.3691 57.9636 61.8296 69.7633C87.085 69.0801 112.379 69.858 137.545 72.0925C140.886 72.3892 144.482 72.8208 146.952 75.0906C150.502 78.3522 155.831 79.542 160.43 78.0995C161.893 81.7272 162.97 85.8021 161.726 89.5108C160.482 93.2195 156.076 96.0502 152.554 94.3488C153.473 99.0789 154.392 103.809 155.312 108.539C164.318 108.648 173.322 108.832 182.325 109.091C187.097 109.229 192.084 109.446 196.231 111.81C200.378 114.174 203.304 119.41 201.457 123.812C202.635 120.174 203.813 116.536 204.991 112.899C209.144 119.49 211.184 127.391 210.74 135.169C212.179 132.98 213.617 130.792 215.056 128.603C209.945 120.559 209.295 109.868 213.392 101.263C217.411 107.919 219.675 115.624 219.895 123.395C221.393 109.389 231.317 96.6201 244.52 91.7093C242.229 96.9873 239.939 102.266 237.648 107.544C235.687 112.063 233.196 117.075 228.483 118.511C225.375 119.457 220.874 119.4 220.31 122.601C229.238 120.259 238.741 120.143 247.724 122.266C240.802 130.588 227.463 132.637 218.363 126.777C214.069 131.565 210.349 136.867 207.308 142.534C212.474 136.112 220.515 132.097 228.752 131.824C224.327 137.055 219.335 141.805 213.893 145.967C216.781 146.245 219.904 146.625 222 148.633C224.095 150.641 224.147 154.867 221.445 155.924ZM100.956 103.213C103.35 103.185 106.031 103.27 107.702 104.985C108.977 106.293 109.319 108.222 109.597 110.027C110.868 118.282 112.058 126.55 113.167 134.829C113.445 136.905 111.704 138.821 109.715 139.48C107.726 140.138 105.564 139.849 103.489 139.554C105.219 138.061 108.139 139.131 110 137.806C111.669 136.619 111.659 134.18 111.46 132.141C110.71 124.496 109.69 116.878 108.401 109.305C108.173 107.967 107.894 106.543 106.945 105.571C105.683 104.277 103.665 104.19 101.857 104.188C94.4351 104.179 87.013 104.17 79.5909 104.161C78.3118 104.159 76.9658 104.174 75.8552 104.809C72.6594 106.636 73.8377 111.46 75.426 114.781C79.9268 113.868 84.5254 113.44 89.1168 113.507C93.1845 113.566 98.2569 114.887 98.943 118.897C100.45 127.706 101.957 136.516 103.464 145.325C104.254 149.944 104.689 155.556 100.998 158.443C99.1536 159.885 96.7056 160.229 94.3826 160.523C88.6708 161.245 82.9587 161.967 77.2469 162.689C79.6258 183.519 82.0047 204.349 84.3839 225.179C84.6492 227.503 85.1349 230.174 87.1779 231.312C88.3864 231.985 89.8523 231.93 91.2336 231.854C109.433 230.862 127.616 229.548 145.769 227.912C145.043 226.258 145.028 224.305 145.73 222.64C147.569 233.404 149.407 244.168 151.246 254.933C154.465 252.714 153.97 247.897 153.116 244.081C150.952 234.422 148.788 224.762 146.624 215.102C145.748 216.709 144.872 218.316 143.996 219.923C143.566 217.917 144.77 215.841 146.44 214.648C148.11 213.455 150.168 212.966 152.174 212.535C158.343 211.213 164.579 210.203 170.85 209.51C169.028 196.654 167.206 183.799 165.383 170.943C154.179 174.021 142.314 173.052 130.738 172.06C127.309 171.766 122.951 170.612 122.624 167.186C121.802 158.574 120.98 149.962 120.159 141.35C120.051 140.228 119.401 138.716 118.33 139.069C115.698 139.938 114.133 136.189 113.918 133.425C113.242 124.759 112.566 116.092 111.89 107.426C111.802 106.289 111.779 104.977 112.626 104.215C113.22 103.681 114.075 103.583 114.869 103.511C120.54 102.992 126.211 102.474 131.882 101.955C135.12 101.659 138.798 101.506 141.155 103.747C142.818 105.328 143.376 107.727 143.727 109.995C144.374 114.175 144.588 118.422 144.365 122.646C143.916 118.517 143.466 114.388 143.017 110.259C142.815 108.401 142.568 106.432 141.394 104.977C139.391 102.495 135.664 102.537 132.486 102.798C126.807 103.266 121.129 103.733 115.45 104.2C114.685 104.263 113.857 104.354 113.301 104.882C112.578 105.571 112.598 106.71 112.671 107.705C113.279 116.081 113.887 124.456 114.496 132.832C114.611 134.413 114.767 136.103 115.766 137.333C116.766 138.563 118.934 138.95 119.868 137.669C118.589 134.856 120.358 131.413 122.977 129.774C125.597 128.134 128.811 127.846 131.891 127.6C137.203 127.176 142.515 126.753 147.827 126.329C147.463 115.334 146.277 104.367 144.283 93.5489C142.446 93.0352 140.773 91.9491 139.556 90.4803C138.645 92.8267 135.931 94.3182 133.462 93.8293C130.993 93.3405 129.052 90.9277 129.104 88.411C128.811 91.3072 126.288 93.8193 123.391 94.0993C120.493 94.3798 117.536 92.3976 116.693 89.6112C115.306 91.1585 113.505 92.4919 111.435 92.6806C109.366 92.8689 107.076 91.5617 106.74 89.5108C104.021 93.0373 97.7036 92.6795 95.4007 88.8685C93.0322 92.7774 86.289 92.6813 84.0329 88.7065C83.0199 92.3814 77.3643 92.6752 74.6499 89.9993C71.9351 87.3234 71.4066 83.2014 71.029 79.4085C66.5481 83.7259 65.7395 90.6617 66.5902 96.8256C67.4405 102.99 69.6567 108.928 70.1945 115.127C71.4221 115.435 72.7685 115.241 73.8582 114.597C72.681 111.039 71.907 106.261 75.1024 104.304C76.384 103.519 77.9702 103.479 79.4728 103.462C86.6339 103.379 93.7947 103.296 100.956 103.213ZM171.895 163.076C181.288 162.609 190.978 163.833 199.905 160.873C201.286 160.415 202.702 159.811 203.591 158.66C201.311 157.612 198.889 155.805 198.945 153.296C198.982 151.648 200.124 150.224 201.41 149.193C202.761 148.112 204.333 147.308 206.001 146.848C206.136 146.435 205.41 146.346 205.05 146.589C204.691 146.834 204.145 147.135 203.906 146.773C203.842 146.675 203.829 146.554 203.817 146.438C202.921 137.32 201.593 128.245 199.84 119.252C199.313 116.548 198.529 113.536 196.146 112.155C194.86 111.408 193.317 111.283 191.833 111.181C180.663 110.408 169.472 109.935 158.277 109.761C155.631 109.72 152.671 109.819 150.816 111.706C149.409 113.138 149.006 115.264 148.857 117.266C148.396 123.464 149.723 129.635 150.587 135.79C151.621 143.164 151.993 150.612 152.676 158.026C152.767 159.013 152.877 160.041 153.41 160.876C154.325 162.307 156.183 162.756 157.865 162.992C160.35 163.34 162.864 163.488 165.372 163.432C167.549 163.384 169.72 163.184 171.895 163.076ZM94.803 115.246C91.6232 113.848 87.981 114.223 84.5304 114.623C79.3112 115.229 74.0919 115.835 68.8726 116.441C66.3641 116.732 63.8531 117.024 61.3713 117.492C60.773 117.605 60.1728 117.729 59.6084 117.957C57.3962 118.851 56.0775 121.236 55.7708 123.602C55.4637 125.968 55.9896 128.354 56.494 130.686C58.0607 137.933 59.4503 145.249 59.8272 152.654C59.9018 154.12 59.9392 155.605 60.3424 157.017C60.7452 158.428 61.5678 159.786 62.8545 160.493C63.8438 161.037 65.0066 161.15 66.1334 161.224C76.461 161.903 86.7833 160.237 96.9994 158.577C98.4531 158.341 99.9824 158.072 101.115 157.131C102.865 155.679 103.127 153.123 103.114 150.849C103.091 146.649 102.583 142.451 101.602 138.367C100.455 133.59 98.6547 128.891 98.6072 123.979C98.5859 121.812 98.8703 119.477 97.7399 117.629C97.0721 116.536 95.9752 115.761 94.803 115.246ZM45.658 206.209C47.0462 216.184 47.5127 226.288 47.0494 236.349C47.0249 236.879 47.6693 237.149 48.191 237.249C54.8693 238.526 61.7475 236.89 68.2282 234.832C71.9121 233.662 75.5988 232.329 78.7852 230.141C80.2425 229.14 81.7174 227.631 81.4449 225.884C79.6938 214.66 78.7308 203.314 78.5652 191.955C72.6684 196.563 65.1855 198.518 57.9333 200.363C54.4956 201.237 51.0119 202.117 47.4652 202.088C46.6077 202.081 45.896 202.834 45.6562 203.657C45.4168 204.48 45.5399 205.36 45.658 206.209ZM181.2 211.251C170.154 210.176 158.887 211.439 148.353 214.933C148.986 219.745 149.85 224.525 150.942 229.253C151.379 231.147 151.853 233.031 152.326 234.916C153.249 238.586 154.171 242.256 155.093 245.926C155.222 246.437 155.383 246.995 155.823 247.284C156.216 247.542 156.724 247.513 157.193 247.474C168.1 246.564 179.001 245.579 189.894 244.517C187.512 233.902 185.131 223.287 182.75 212.672C182.658 212.264 182.548 211.824 182.224 211.561C181.942 211.333 181.56 211.287 181.2 211.251ZM164.918 164.653C162.514 164.775 160.075 164.895 157.728 164.362C155.381 163.828 153.097 162.549 151.892 160.466C151.2 161.262 149.825 161.322 149.067 160.589C148.309 159.855 148.322 158.479 149.095 157.761C146.042 157.789 142.989 157.816 139.935 157.844C141.331 158.666 141.216 161.089 139.774 161.825C138.331 162.562 136.334 161.318 136.301 159.699C136.286 158.972 136.732 158.156 137.456 158.091C137.156 157.577 136.376 157.881 135.783 157.825C134.89 157.741 134.402 156.767 134.088 155.926C132.817 152.515 131.66 149.063 130.504 145.612C131.314 146.938 133.137 147.534 134.574 146.943C135.081 146.734 135.096 146.005 134.88 145.5C134.503 144.62 133.643 143.941 132.688 143.866C131.733 143.791 130.739 144.374 130.416 145.276C129.938 144.918 130.142 144.091 130.644 143.766C131.146 143.442 131.789 143.471 132.386 143.507C138.017 143.847 143.67 143.842 149.301 143.491C149.557 143.475 149.839 143.446 150.014 143.258C150.212 143.045 150.193 142.717 150.161 142.428C149.946 140.448 149.731 138.467 149.515 136.486C149.492 136.266 149.458 136.026 149.294 135.878C149.113 135.715 148.84 135.723 148.598 135.74C141.539 136.243 134.499 137.003 127.496 138.018C126.751 138.126 126.057 137.5 125.822 136.784C125.587 136.069 125.695 135.291 125.807 134.546C125.845 134.285 125.895 134.002 126.089 133.822C126.267 133.656 126.526 133.617 126.767 133.586C134.053 132.656 141.387 132.098 148.73 131.915C148.551 132.641 147.605 132.797 146.858 132.81C140.044 132.931 133.236 133.478 126.489 134.445C125.951 135.366 126.689 136.607 127.683 136.994C128.678 137.382 129.792 137.175 130.841 136.978C136.621 135.89 142.486 135.248 148.366 135.062C149.205 135.035 149.305 133.827 149.129 133.006C148.719 131.099 148.309 129.192 147.9 127.286C143.828 128.056 139.669 128.364 135.529 128.201C133.079 128.104 130.642 128.532 128.227 128.958C126.175 129.321 123.988 129.75 122.505 131.215C120.772 132.926 120.461 135.602 120.566 138.035C120.739 142.028 121.752 145.933 122.252 149.898C122.863 154.742 122.706 159.652 123.175 164.512C123.301 165.822 123.482 167.156 124.069 168.333C124.656 169.51 125.723 170.52 127.024 170.715C137.715 172.309 148.616 172.49 159.354 171.252C160.346 171.137 161.347 171.008 162.283 170.662C163.761 170.115 165.028 169.019 165.782 167.635C166.085 167.08 166.311 166.445 166.2 165.822C166.09 165.199 165.549 164.621 164.918 164.653ZM79.4465 191.965C80.565 204.274 81.6839 216.584 82.8028 228.893C83.004 231.106 83.1977 233.391 82.5062 235.502C81.8146 237.614 79.9955 239.522 77.775 239.595C79.0786 241.501 81.3282 242.592 83.6034 242.991C85.8783 243.39 88.2111 243.179 90.5108 242.967C109.462 241.215 128.413 239.464 147.363 237.714C146.957 235.345 146.55 232.977 146.143 230.609C146.052 230.078 145.791 229.404 145.253 229.444C132.223 230.415 119.193 231.386 106.164 232.357C100.813 232.756 95.4363 233.154 90.0888 232.717C87.3827 232.496 84.0408 231.42 83.7741 228.718C81.6378 207.102 79.165 185.518 76.3563 163.978C76.3131 163.647 76.2594 163.292 76.0326 163.047C75.7302 162.719 75.2298 162.694 74.7838 162.692C72.1194 162.678 69.4551 162.664 66.7907 162.651C67.5687 167.065 68.5788 171.438 69.8154 175.747C70.044 176.543 70.4242 177.472 71.24 177.616C74.1696 178.13 76.4819 180.54 77.6872 183.259C78.8925 185.979 79.1772 189.003 79.4465 191.965ZM69.2096 115.343C66.9225 103.744 64.9878 92.0758 63.4082 80.3592C63.3189 79.6965 63.2325 79.0096 63.4276 78.3699C63.8294 77.0515 65.2712 76.3611 66.6122 76.0428C69.2337 75.4211 71.9715 75.6285 74.6585 75.8265C99.2249 77.638 123.872 78.3627 148.502 77.9983C147.523 76.0111 145.552 74.6561 143.457 73.9375C141.361 73.219 139.122 73.0591 136.912 72.9065C115.231 71.4082 93.5168 70.0042 71.785 70.2659C69.1264 70.2979 66.4365 70.3591 63.8693 71.0514C61.3022 71.7437 58.8318 73.138 57.3508 75.3462C55.0169 78.826 55.5814 83.4228 56.3039 87.5499C57.9956 97.2151 60.0537 106.816 62.4722 116.325C64.7182 115.998 66.9639 115.671 69.2096 115.343ZM122.106 92.673C123.28 92.6853 124.5 92.6194 125.539 92.0725C127.368 91.1095 128.18 88.8905 128.301 86.8266C128.422 84.7624 128.015 82.6938 128.146 80.6303C128.176 80.1601 128.439 79.5366 128.895 79.6547C129.226 82.0303 129.556 84.4056 129.886 86.7809C130.069 88.0924 130.258 89.4283 130.833 90.6214C131.407 91.8141 132.44 92.8627 133.741 93.1126C134.488 93.2559 135.267 93.1273 135.979 92.8599C137.683 92.2191 139.111 90.5883 139.047 88.7688C138.957 86.2567 138.868 83.7443 138.778 81.2322C138.743 80.2386 138.373 78.9142 137.381 78.9664C130.759 79.3131 124.118 79.2825 117.501 78.8746C117.018 78.8447 116.891 79.5283 116.942 80.0093C117.207 82.5009 117.472 84.9928 117.736 87.4843C117.937 89.3657 118.364 91.5768 120.09 92.3512C120.715 92.6316 121.42 92.6658 122.106 92.673ZM156.065 249.028C155.748 249.25 155.538 249.592 155.345 249.928C154.341 251.676 153.534 253.538 152.944 255.465C164.535 254.656 176.116 253.715 187.684 252.643C188.119 252.603 188.591 252.546 188.903 252.24C189.105 252.042 189.209 251.766 189.307 251.5C189.74 250.324 190.173 249.148 190.606 247.971C190.817 247.399 191.004 246.687 190.592 246.237C190.25 245.863 189.668 245.875 189.163 245.915C178.585 246.763 168.013 247.675 157.447 248.653C156.966 248.697 156.461 248.751 156.065 249.028ZM176.496 177.62C176.183 173.964 175.544 169.86 172.56 167.723C171.396 170.93 170.22 174.185 169.954 177.586C169.687 180.988 170.439 184.612 172.72 187.149C173.041 187.505 173.398 187.851 173.567 188.299C173.737 188.748 173.651 189.34 173.235 189.577C170.134 186.879 168.85 182.551 168.923 178.441C168.995 174.331 170.255 170.346 171.503 166.43C171.778 165.569 170.993 164.664 170.113 164.464C169.232 164.263 168.323 164.557 167.468 164.848C167.301 164.904 167.228 165.095 167.175 165.262C166.584 167.146 165.987 169.144 166.445 171.064C168.418 179.34 168.163 188.026 170.172 196.294C170.246 196.599 170.326 196.911 170.504 197.169C171.836 194.565 173.168 191.961 174.5 189.356C175.126 188.132 175.756 186.9 176.146 185.582C176.906 183.019 176.724 180.283 176.496 177.62ZM223.616 117.549C223.874 117.761 224.219 117.828 224.55 117.865C228.317 118.286 231.872 115.722 233.957 112.558C236.043 109.393 237.029 105.654 238.396 102.119C239.68 98.8017 241.321 95.6229 243.283 92.6554C239.355 96.3411 234.519 98.9219 230.419 102.415C226.319 105.909 222.83 110.808 223.119 116.187C223.146 116.684 223.232 117.232 223.616 117.549ZM72.7574 81.9061C73.2927 84.2533 73.0713 86.8615 74.3716 88.8876C75.6323 90.8514 78.2916 91.7874 80.5046 91.0462C82.7175 90.3049 84.2763 87.9556 84.0992 85.6285C84.0588 85.0997 83.9397 84.5806 83.8205 84.0636C83.3543 82.0386 82.8881 80.0136 82.4219 77.9886C82.3755 77.787 82.3236 77.575 82.1807 77.4256C81.9759 77.2114 81.6479 77.1865 81.3516 77.175C78.5033 77.0663 75.655 76.9572 72.8063 76.8481C72.5324 76.8377 72.2318 76.8355 72.0186 77.008C71.749 77.2269 71.7335 77.6283 71.7688 77.9735C71.9052 79.3199 72.4564 80.5864 72.7574 81.9061ZM149.863 84.0953C149.931 87.3375 152.043 90.1566 154.27 92.5132C154.488 92.7432 154.711 92.9743 154.983 93.1371C155.422 93.3999 155.957 93.4618 156.467 93.4182C158.188 93.2703 159.66 91.9689 160.387 90.4018C161.113 88.8347 161.195 87.0423 161.038 85.3222C160.882 83.6021 160.501 81.9079 160.348 80.1879C160.317 79.8426 160.19 79.3923 159.844 79.3937C156.799 79.4052 153.753 79.4167 150.708 79.4286C150.319 79.4301 149.906 79.438 149.577 79.6464C149.248 79.8549 149.064 80.3419 149.308 80.6454C150.054 81.5731 149.837 82.9055 149.863 84.0953ZM196.171 184.382C187.828 184.235 180.18 189.181 174.344 195.146C173.36 196.151 172.4 197.206 171.745 198.451C171.629 198.671 171.538 198.978 171.728 199.139C171.829 199.225 171.973 199.23 172.106 199.229C176.96 199.212 181.628 197.162 185.572 194.332C189.515 191.502 192.838 187.911 196.171 184.382ZM92.9336 90.4576C94.1255 89.7714 94.8927 88.4052 94.8578 87.0304C94.8401 86.3331 94.6342 85.6566 94.4686 84.9791C94.042 83.2356 93.8764 81.4288 93.9783 79.6371C94.0002 79.2555 94.0326 78.8634 93.9182 78.4987C93.8033 78.1341 93.4991 77.7989 93.1172 77.778C89.9646 77.6059 86.8118 77.4335 83.6589 77.2614C83.5455 77.2553 83.4216 77.2521 83.3302 77.319C83.188 77.4234 83.1963 77.6344 83.2226 77.8083C83.6103 80.374 84.8519 82.7907 84.9315 85.3845C84.961 86.3385 84.8332 87.3166 85.1007 88.2331C85.4427 89.4071 86.4204 90.3337 87.5548 90.7902C88.6888 91.2471 89.9614 91.273 91.1649 91.0559C91.7805 90.945 92.3914 90.7693 92.9336 90.4576ZM219.09 125.582C221.374 126.226 223.393 127.573 225.608 128.423C230.518 130.306 236.364 129.52 240.602 126.406C242.422 125.068 244.242 123.731 246.062 122.394C243.843 122.919 241.548 123.12 239.273 122.989C235.47 122.769 231.714 121.63 227.916 121.916C224.685 122.158 221.542 123.464 219.09 125.582ZM153.886 108.011C153.437 105.525 152.988 103.039 152.539 100.552C151.938 97.2202 151.336 93.8884 150.735 90.5562C150.692 90.3197 150.64 90.0663 150.466 89.9017C150.29 89.7372 149.949 89.7369 149.853 89.9572C149.252 91.3439 148.022 92.443 146.577 92.8847C145.7 93.1525 145.625 94.3488 145.727 95.26C146.446 101.689 147.298 108.103 148.28 114.497C148.566 111.882 150.807 109.611 153.418 109.29C153.926 109.228 153.977 108.514 153.886 108.011ZM105.914 87.7893C105.635 85.1091 105.283 82.4364 104.859 79.7753C104.771 79.2267 104.538 78.5427 103.983 78.5182C101.113 78.3922 98.2432 78.2665 95.3736 78.1405C95.2714 78.1362 95.1634 78.1326 95.0727 78.1809C94.8412 78.3036 94.879 78.6413 94.9474 78.8944C95.6091 81.3517 95.9604 83.8923 95.99 86.4367C95.9972 87.0628 95.99 87.7129 96.252 88.2817C96.638 89.1187 97.516 89.599 98.3505 89.9899C99.8045 90.6711 101.395 91.2701 102.982 91.0228C104.568 90.7755 106.08 89.3866 105.914 87.7893ZM107.155 87.8044C107.444 89.2066 107.975 90.8377 109.349 91.2409C110.508 91.5811 111.762 91.6751 112.925 91.3471C114.088 91.0192 115.148 90.2383 115.669 89.1479C116.039 88.3717 116.123 87.493 116.171 86.6344C116.303 84.2821 116.213 81.9169 115.9 79.5816C115.883 79.4567 115.865 79.3282 115.801 79.2187C115.634 78.9289 115.24 78.8883 114.905 78.8811C111.983 78.8173 109.06 78.7536 106.138 78.6899C105.9 78.6849 105.566 78.9329 105.768 79.0603C106.095 81.9943 106.558 84.9132 107.155 87.8044ZM205.343 116.825C203.06 121.986 202.388 127.846 203.443 133.389C203.864 135.604 204.692 137.954 206.609 139.14C207.173 139.49 208.114 139.593 208.323 138.963C210.748 131.647 209.616 123.24 205.343 116.825ZM57.3857 181.621C58.3541 182.286 59.4456 182.77 60.5879 183.042C62.0319 183.387 63.5309 183.391 65.0145 183.426C68.4816 183.51 71.9441 183.775 75.3832 184.222C75.8627 184.284 76.2594 183.765 76.2468 183.281C76.2342 182.797 75.9398 182.37 75.6348 181.994C73.8006 179.735 71.1222 178.178 68.2512 177.701C66.2172 177.364 64.1379 177.553 62.0769 177.494C60.0162 177.435 57.8652 177.086 56.2218 175.841C56.1347 177.025 56.1279 178.214 56.201 179.399C56.2305 179.879 56.2791 180.376 56.5235 180.789C56.7284 181.136 57.0538 181.394 57.3857 181.621ZM140.795 89.6703C141.118 90.2571 141.638 90.7096 142.17 91.1171C142.746 91.5588 143.369 91.9725 144.077 92.1345C145.82 92.5337 147.603 91.242 148.338 89.6116C149.072 87.9808 148.998 86.1117 148.828 84.3315C148.699 82.9854 148.524 81.6437 148.303 80.3095C148.266 80.0874 148.223 79.8549 148.083 79.6777C147.838 79.3674 147.389 79.3314 146.993 79.321C144.868 79.2645 142.743 79.2079 140.617 79.1514C140.147 79.1392 139.479 79.3642 139.618 79.8135C140.244 81.8259 140.517 83.9473 140.42 86.0523C140.364 87.2809 140.201 88.5931 140.795 89.6703ZM216.009 127.033C218.266 123.391 218.941 118.806 217.831 114.669C216.849 111.011 214.567 107.771 213.843 104.053C212.157 109.17 210.459 114.678 211.984 119.845C212.766 122.494 214.345 124.829 216.009 127.033ZM178.628 184.322C185.338 182.593 191.533 178.908 196.255 173.835C197.668 172.318 199.114 170.831 200.592 169.377C196.971 169.874 193.435 170.994 190.189 172.673C185.235 175.235 180.889 179.225 178.627 184.322M219.515 139.776C221.983 137.457 224.451 135.137 226.92 132.817C218.572 133.882 210.777 138.705 206.1 145.7C207.305 146.628 209.035 146.082 210.441 145.5C212.397 144.691 214.37 143.873 216.112 142.67C217.338 141.822 218.429 140.797 219.515 139.776ZM57.1726 190.475C57.1931 190.689 57.2187 190.916 57.3483 191.087C57.6327 191.463 58.2119 191.371 58.6641 191.239C63.8438 189.725 68.9511 187.963 73.9616 185.96C74.323 185.815 74.7442 185.587 74.7514 185.198C70.9077 184.931 67.0636 184.665 63.2195 184.398C62.2792 184.333 61.3353 184.267 60.4137 184.071C59.027 183.775 57.705 183.18 56.5635 182.34C56.647 185.058 56.9098 187.767 57.1726 190.475ZM178.603 164.466C178.293 164.69 178.168 165.085 178.061 165.452C177.695 166.713 177.328 168.051 177.667 169.319C177.841 169.965 178.188 170.549 178.531 171.123C179.482 172.711 180.432 174.299 181.382 175.888C181.471 176.035 181.566 176.19 181.719 176.271C182.173 176.509 182.62 175.949 182.831 175.482C184.199 172.449 185.597 169.242 185.287 165.929C185.239 165.42 185.101 164.842 184.646 164.609C184.437 164.501 184.194 164.488 183.959 164.476C182.551 164.406 181.142 164.336 179.734 164.266C179.344 164.247 178.92 164.237 178.603 164.466ZM200.133 153.237C200.097 155.372 201.959 157.157 204.002 157.778C206.044 158.399 208.237 158.132 210.359 157.904C214.092 157.503 218.04 157.173 221.108 155.01C221.789 154.53 222.433 153.938 222.737 153.162C223.211 151.952 222.734 150.524 221.842 149.579C220.95 148.633 219.714 148.093 218.476 147.697C214.053 146.281 209.143 146.444 204.824 148.15C202.546 149.05 200.174 150.787 200.133 153.237ZM56.8209 175.043C57.223 175.418 58.038 175.514 58.1946 174.987C58.7318 173.181 59.9396 171.633 61.3619 170.397C62.7846 169.162 64.4244 168.208 66.0538 167.261C66.4934 167.006 66.4656 166.373 66.3807 165.872C66.2162 164.901 66.0516 163.931 65.8871 162.96C65.8454 162.714 65.7633 162.421 65.5224 162.355C65.3255 162.302 65.1311 162.435 64.9702 162.56C63.8013 163.473 62.6327 164.386 61.4638 165.298C59.122 167.127 56.6124 169.225 56.1045 172.153C55.9277 173.173 56.0642 174.337 56.8209 175.043ZM65.9379 168.51C63.3131 170.149 60.5346 171.964 59.342 174.819C59.2674 174.997 59.199 175.184 59.2048 175.377C59.2163 175.756 59.5227 176.077 59.8737 176.223C60.2243 176.369 60.6153 176.375 60.9954 176.38C63.2426 176.406 65.4897 176.432 67.7364 176.459C67.8459 176.46 67.9643 176.459 68.0507 176.391C68.1868 176.285 68.1731 176.079 68.1461 175.908C67.7876 173.643 67.429 171.378 67.0708 169.112C67.0197 168.79 66.9156 168.405 66.6014 168.317C66.3724 168.253 66.1395 168.384 65.9379 168.51ZM177.576 164.605C175.921 164.178 174.137 164.271 172.536 164.867C172.846 165.885 173.395 166.829 174.127 167.6C176.594 170.201 177.323 173.977 177.603 177.55C177.753 179.458 177.805 181.374 177.761 183.289C178.845 181.617 179.928 179.946 181.012 178.274C181.119 178.108 181.23 177.932 181.242 177.735C181.254 177.537 181.164 177.348 181.073 177.172C180.004 175.108 178.433 173.327 177.441 171.225C176.449 169.122 176.145 166.437 177.576 164.605ZM66.7331 77.1131C65.8205 77.2582 64.7798 77.49 64.3463 78.3058C64.0468 78.8699 64.1354 79.5525 64.2315 80.1839C64.6282 82.7845 65.0246 85.3855 65.4213 87.9862C67.451 84.3365 69.3514 80.617 71.2511 76.8985C70.8994 76.5007 70.2762 76.5511 69.7521 76.6343C68.7459 76.7941 67.7393 76.9536 66.7331 77.1131ZM191.653 165.419C191.934 165.791 192.667 165.379 192.495 164.945C195.205 165.723 198.16 165.169 200.72 163.987C203.281 162.804 205.516 161.033 207.716 159.268C206.792 159.139 205.868 159.01 204.944 158.881C204.756 158.855 204.511 158.858 204.439 159.034C203.942 160.252 202.871 161.164 201.688 161.74C200.505 162.316 199.204 162.595 197.917 162.87C197.024 163.06 196.131 163.25 195.238 163.44C193.855 163.735 192.296 164.159 191.653 165.419ZM142.615 146.56C142.789 146.516 142.975 146.464 143.086 146.323C143.259 146.105 143.172 145.791 143.127 145.517C143.082 145.243 143.151 144.878 143.425 144.83C143.675 144.88 143.79 145.176 143.796 145.43C143.802 145.685 143.746 145.95 143.838 146.187C144.043 146.716 144.772 146.737 145.334 146.665C145.667 146.623 146 146.58 146.332 146.538C146.436 146.525 146.548 146.508 146.625 146.437C146.871 146.212 146.529 145.844 146.453 145.519C146.394 145.268 146.511 144.996 146.434 144.751C146.303 144.332 145.746 144.267 145.307 144.282C141.95 144.393 138.593 144.505 135.235 144.616C135.293 145.251 135.467 145.876 135.746 146.449C135.806 146.573 135.877 146.701 135.996 146.769C136.117 146.839 136.265 146.834 136.404 146.827C137.239 146.789 138.073 146.75 138.908 146.711C138.979 146.708 139.054 146.704 139.113 146.664C139.265 146.564 139.212 146.331 139.142 146.163C139.022 145.872 138.901 145.582 138.781 145.292C138.676 145.039 139.133 144.89 139.326 145.084C139.518 145.278 139.525 145.583 139.616 145.841C139.804 146.376 140.373 146.703 140.936 146.771C141.5 146.84 142.065 146.699 142.615 146.56ZM191.371 164.331C191.554 164.137 191.151 163.933 190.886 163.966C189.374 164.151 187.862 164.336 186.35 164.522C186.148 164.547 185.881 164.658 185.929 164.855C186.426 166.889 186.24 169.084 185.407 171.005C185.249 171.371 185.145 171.93 185.524 172.053C187.101 169.223 189.075 166.616 191.371 164.331ZM139.863 148.094C139.816 147.929 139.762 147.757 139.637 147.641C139.495 147.508 139.29 147.475 139.097 147.453C138.107 147.345 137.097 147.413 136.13 147.653C136.433 148.635 136.735 149.616 137.038 150.597C137.095 150.783 137.172 150.992 137.353 151.064C137.445 151.102 137.548 151.095 137.648 151.088C138.625 151.02 139.604 150.951 140.581 150.883C140.369 149.946 140.13 149.016 139.863 148.094ZM133.496 151.525C133.605 151.584 133.738 151.566 133.86 151.546C134.745 151.402 135.631 151.258 136.516 151.113C136.197 150.089 135.877 149.066 135.558 148.042C135.511 147.892 135.452 147.727 135.314 147.652C135.204 147.593 135.072 147.605 134.948 147.62C134.159 147.712 133.369 147.803 132.58 147.895C132.431 147.913 132.256 147.95 132.201 148.089C132.163 148.183 132.198 148.289 132.234 148.384C132.581 149.322 132.929 150.261 133.277 151.199C133.323 151.325 133.378 151.461 133.496 151.525ZM143.443 147.435C143.256 147.272 142.979 147.283 142.732 147.304C141.952 147.368 141.172 147.432 140.393 147.496C140.626 148.495 140.919 149.48 141.271 150.444C141.317 150.57 141.369 150.704 141.477 150.785C141.611 150.886 141.794 150.88 141.962 150.87C142.494 150.838 143.026 150.806 143.559 150.774C143.804 150.759 144.102 150.706 144.184 150.475C144.223 150.364 144.198 150.241 144.172 150.126C144.01 149.405 143.848 148.684 143.687 147.963C143.643 147.771 143.592 147.564 143.443 147.435ZM138.792 154.613C138.715 154.625 138.633 154.639 138.577 154.694C138.467 154.799 138.517 154.981 138.575 155.122C138.78 155.623 138.984 156.124 139.189 156.625C139.265 156.811 139.351 157.009 139.52 157.117C139.677 157.216 139.875 157.218 140.06 157.217C140.768 157.213 141.475 157.208 142.183 157.204C142.286 157.204 142.399 157.2 142.479 157.134C142.623 157.014 142.569 156.785 142.503 156.609C142.231 155.892 141.958 155.174 141.686 154.457C141.599 154.227 141.278 154.223 141.035 154.261C140.287 154.378 139.54 154.496 138.792 154.613ZM144.744 147.293C144.596 147.293 144.429 147.302 144.328 147.412C144.207 147.544 144.246 147.752 144.292 147.925C144.493 148.685 144.694 149.446 144.895 150.206C144.931 150.34 144.972 150.483 145.079 150.57C145.221 150.687 145.427 150.665 145.609 150.637C146.28 150.535 146.95 150.432 147.621 150.33C147.549 149.551 147.426 148.778 147.251 148.016C147.197 147.777 147.122 147.518 146.916 147.387C146.761 147.289 146.567 147.286 146.384 147.287C145.837 147.289 145.291 147.291 144.744 147.293ZM146.11 157.115C145.892 156.326 145.675 155.536 145.458 154.747C145.375 154.445 145.257 154.104 144.965 153.99C144.822 153.934 144.662 153.946 144.509 153.96C143.793 154.022 143.077 154.084 142.361 154.147C142.55 154.854 142.773 155.551 143.03 156.236C143.16 156.581 143.356 156.972 143.72 157.031C144.509 157.159 145.314 157.187 146.11 157.115ZM147.355 157.06C148.004 157.113 148.716 157.149 149.241 156.763C149.013 155.879 148.786 154.995 148.559 154.111C148.507 153.912 148.439 153.69 148.257 153.595C148.123 153.526 147.962 153.545 147.812 153.566C147.169 153.655 146.527 153.744 145.884 153.834C146.037 154.77 146.296 155.689 146.655 156.566C146.71 156.701 146.773 156.841 146.888 156.929C147.018 157.03 147.192 157.047 147.355 157.06ZM205.167 144.473C205.663 143.456 206.158 142.439 206.654 141.422C206.706 141.315 206.759 141.2 206.74 141.082C206.722 140.968 206.639 140.877 206.559 140.792C205.854 140.047 205.148 139.301 204.443 138.555C204.15 138.955 204.184 139.499 204.23 139.994C204.384 141.615 204.538 143.236 204.691 144.858C204.907 144.905 205.07 144.672 205.167 144.473ZM148.068 147.175C147.976 147.169 147.87 147.167 147.805 147.234C147.733 147.308 147.749 147.429 147.77 147.531C147.91 148.204 148.049 148.877 148.189 149.55C148.241 149.8 148.302 150.067 148.49 150.238C149.099 150.794 150.273 149.839 150.839 150.438C150.939 149.482 150.867 148.508 150.629 147.577C150.612 147.512 150.592 147.443 150.542 147.398C150.484 147.345 150.4 147.338 150.322 147.332C149.571 147.28 148.82 147.228 148.068 147.175ZM134.053 152.168C133.971 152.179 133.887 152.191 133.82 152.239C133.672 152.344 133.678 152.562 133.699 152.743C133.755 153.224 133.818 153.723 134.07 154.137C134.322 154.551 134.819 154.858 135.288 154.732C135.958 154.552 136.629 154.372 137.3 154.192C137.271 153.551 137.141 152.915 136.917 152.313C136.861 152.163 136.791 152.005 136.653 151.924C136.509 151.839 136.33 151.859 136.166 151.882C135.461 151.977 134.757 152.073 134.053 152.168ZM149.701 146.542C149.903 146.511 150.118 146.474 150.269 146.336C150.715 145.923 150.205 145.084 150.567 144.595C150.708 144.404 150.362 144.233 150.125 144.243C149.065 144.288 148.005 144.333 146.945 144.378C146.986 144.816 147.062 145.251 147.173 145.678C147.296 146.153 147.759 146.478 148.239 146.583C148.718 146.688 149.216 146.615 149.701 146.542ZM141.135 152.25C140.999 151.595 140.121 151.441 139.463 151.564C138.805 151.687 138.069 151.924 137.51 151.556C137.545 152.248 137.707 152.934 137.985 153.569C138.043 153.702 138.114 153.842 138.24 153.913C138.383 153.994 138.56 153.968 138.722 153.94C139.371 153.828 140.02 153.716 140.669 153.604C140.99 153.549 141.414 153.294 141.245 153.015C141.11 152.792 141.188 152.505 141.135 152.25ZM137.126 154.941C136.596 155.031 136.066 155.121 135.536 155.211C135.249 155.259 134.895 155.375 134.864 155.664C134.787 156.396 135.516 156.986 136.238 157.132C136.959 157.278 137.708 157.135 138.44 157.208C138.41 156.586 138.28 155.968 138.056 155.387C138.003 155.249 137.94 155.106 137.822 155.015C137.632 154.868 137.363 154.901 137.126 154.941ZM151.1 153.521C150.396 153.447 149.681 153.484 148.989 153.631C149.371 154.542 149.643 155.499 149.796 156.475C149.866 156.923 150.505 156.932 150.944 156.82C151.107 156.778 151.286 156.726 151.38 156.586C151.46 156.464 151.456 156.308 151.449 156.162C151.412 155.359 151.374 154.555 151.336 153.751C151.334 153.701 151.331 153.647 151.301 153.605C151.259 153.544 151.175 153.529 151.1 153.521ZM139.61 160.722C140.274 160.059 139.934 158.723 139.034 158.458C138.135 158.193 137.125 159.133 137.324 160.049C137.53 160.996 138.924 161.406 139.61 160.722ZM144.825 152.959C145.247 152.408 144.616 151.595 143.932 151.475C143.248 151.355 142.556 151.617 141.862 151.607C141.606 151.603 141.595 151.988 141.678 152.229C141.786 152.542 141.893 152.855 142.001 153.168C142.045 153.296 142.124 153.449 142.259 153.441C142.754 153.41 143.249 153.379 143.744 153.348C144.139 153.323 144.585 153.273 144.825 152.959ZM151.665 158.277C151.614 158.139 151.538 158.004 151.419 157.917C151.312 157.839 151.179 157.806 151.047 157.79C150.009 157.665 149.001 158.701 149.154 159.736C149.596 160.261 150.428 160.406 151.022 160.061C151.616 159.717 151.902 158.922 151.665 158.277ZM145.254 152.022C145.231 152.477 145.632 152.865 146.07 152.988C146.509 153.111 146.976 153.031 147.425 152.951C147.654 152.91 147.912 152.851 148.032 152.651C148.288 152.225 147.779 151.443 148.249 151.28C147.934 151.236 147.619 151.193 147.303 151.15C146.887 151.093 146.456 151.036 146.052 151.152C145.648 151.267 145.275 151.602 145.254 152.022ZM149.023 152.604C149.501 153.019 150.3 152.962 150.744 152.511C151.188 152.059 151.246 151.295 150.911 150.757C150.075 150.912 149.239 151.068 148.403 151.222C148.508 151.726 148.635 152.266 149.023 152.604ZM213.626 144.613C212.975 144.854 212.324 145.095 211.673 145.336C211.349 145.456 211.021 145.578 210.741 145.779C211.806 146.195 213.149 145.652 213.626 144.613ZM153.113 92.9423C153.096 92.6547 152.792 92.4196 152.51 92.4757C152.528 92.7684 152.82 93.0143 153.111 92.983L153.113 92.9423Z" fill="#00160A"/>
</g>
<defs>
<clipPath id="clip0_1_238">
<rect width="270" height="270" fill="white" transform="translate(0.5)"/>
</clipPath>
</defs>
</svg>
