<svg width="43" height="43" viewBox="0 0 43 43" fill="none" xmlns="http://www.w3.org/2000/svg">
<path d="M31.5781 1.34375H11.4219C5.85589 1.34375 1.34375 5.85589 1.34375 11.4219V31.5781C1.34375 37.1441 5.85589 41.6562 11.4219 41.6562H31.5781C37.1441 41.6562 41.6562 37.1441 41.6562 31.5781V11.4219C41.6562 5.85589 37.1441 1.34375 31.5781 1.34375ZM14.1094 22.5918H8.34813C8.12247 22.5918 7.89453 22.3018 7.89453 21.9614V9.63981C7.89453 9.29951 8.12255 8.98633 8.34813 8.98633H14.1094V22.5918ZM35.6094 21.0814C35.6094 22.8836 34.1446 24.3555 32.3409 24.3555H25.0273V29.8826C25.0273 31.6847 23.5754 33.1738 21.7719 33.1738H19.1291C18.7826 33.1738 18.4765 32.869 18.4765 32.5224V28.2894L15.0343 22.2728C14.9797 22.1788 14.9491 22.0716 14.9491 21.9614V9.63981C14.9491 9.29363 15.2596 8.98633 15.6065 8.98633H29.7423C31.0353 8.98633 32.2082 9.76092 32.7305 10.94L35.5543 17.2993C35.5919 17.3818 35.6092 17.4733 35.6092 17.5608V21.0814H35.6094Z" fill="black"/>
</svg>
