<svg width="54" height="51" viewBox="0 0 54 51" fill="none" xmlns="http://www.w3.org/2000/svg">
<g clip-path="url(#clip0_535_301)">
<path d="M26.087 21.5005C23.587 21.5005 4.87908 25.5084 0.0870244 22.5005C-0.579642 15.8338 -3.99988 -2.49951 19.087 0.000450134H48.087C45.5715 5.09475 37.587 13.5004 35.087 15.5005C32.587 17.5005 33.087 22.0004 35.087 24.5005C37.087 27.0005 41.587 26.5005 44.587 28.0005C47.587 29.5004 49.587 32.4005 49.587 36.0005C49.587 40.5005 46.087 46.0005 40.087 45.5005C34.087 45.0005 31.087 39.0004 31.587 36.0005C32.087 33.0005 35.087 28.5005 31.587 24.5005C28.087 20.5004 28.587 21.5005 26.087 21.5005Z" fill="#FF3131"/>
<circle r="2.25" transform="matrix(1 0 0 -1 51.25 18.2822)" fill="#FF3131"/>
<circle r="5.5" transform="matrix(1 0 0 -1 12.5 45.0322)" fill="#FF3131"/>
</g>
<defs>
<clipPath id="clip0_535_301">
<rect width="53.5" height="50.5318" fill="white" transform="matrix(1 0 0 -1 0 50.5322)"/>
</clipPath>
</defs>
</svg>
