<svg width="24" height="24" viewBox="0 0 24 24" fill="none" xmlns="http://www.w3.org/2000/svg">
<path d="M14.3632 1.66401C13.6592 1.44161 12.9104 1.32001 12.1328 1.32001C9.86401 1.32001 7.83361 2.34561 6.48001 3.95681L9.96801 6.89121L14.3632 1.66401Z" fill="#FA782F"/>
<path d="M6.47841 3.9568C5.40001 5.24 4.74881 6.896 4.74881 8.7024C4.74881 10.0912 5.02561 11.216 5.48001 12.224L9.96641 6.8912L6.47841 3.9568Z" fill="#FA782F"/>
<path d="M12.1328 5.88C13.6928 5.88 14.9568 7.144 14.9568 8.704C14.9568 9.3984 14.7056 10.0352 14.2896 10.5264C14.2896 10.5264 16.52 7.8736 18.6848 5.3008C17.7904 3.5808 16.24 2.2576 14.3648 1.664L9.9664 6.8912C10.4848 6.272 11.2624 5.88 12.1328 5.88Z" fill="#FA782F"/>
<path d="M12.1328 11.5264C10.5728 11.5264 9.30881 10.2624 9.30881 8.7024C9.30881 8.0128 9.55681 7.3808 9.96641 6.8896L5.48001 12.224C6.24641 13.9248 7.52161 15.2896 8.83521 17.0096L14.288 10.5264C13.7712 11.1376 12.9968 11.5264 12.1328 11.5264Z" fill="#FA782F"/>
<path d="M14.1808 18.7792C16.6432 14.928 19.5152 13.1792 19.5152 8.7024C19.5152 7.4752 19.2144 6.3184 18.6848 5.3008L8.83679 17.0096C9.25439 17.5568 9.67519 18.1392 10.0864 18.7808C11.584 21.0944 11.168 22.4816 12.1344 22.4816C13.0976 22.4816 12.6832 21.0928 14.1808 18.7792Z" fill="#FA782F"/>
</svg>
