<svg width="20" height="20" viewBox="0 0 20 20" fill="none" xmlns="http://www.w3.org/2000/svg">
<path d="M14.375 8.75C15.4102 8.75 16.25 7.91016 16.25 6.875C16.25 5.83984 15.4102 5 14.375 5C13.3398 5 12.5 5.83984 12.5 6.875C12.5 7.91016 13.3398 8.75 14.375 8.75Z" fill="#FA782F"/>
<path d="M17.6562 2.5H2.34375C1.73438 2.5 1.25 2.99609 1.25 3.60547V16.3945C1.25 17.0039 1.73438 17.5 2.34375 17.5H17.6562C18.2656 17.5 18.75 17.0039 18.75 16.3945V3.60547C18.75 2.99609 18.2656 2.5 17.6562 2.5ZM13.6289 10.2227C13.5117 10.0859 13.332 9.98047 13.1289 9.98047C12.9297 9.98047 12.7891 10.0742 12.6289 10.2031L11.8984 10.8203C11.7461 10.9297 11.625 11.0039 11.4492 11.0039C11.2812 11.0039 11.1289 10.9414 11.0195 10.8438C10.9805 10.8086 10.9102 10.7422 10.8516 10.6836L8.75 8.41016C8.59375 8.23047 8.35938 8.11719 8.09766 8.11719C7.83594 8.11719 7.59375 8.24609 7.44141 8.42188L2.5 14.3828V4.20703C2.53906 3.94141 2.74609 3.75 3.01172 3.75H16.9844C17.2539 3.75 17.4727 3.94922 17.4883 4.21875L17.5 14.3906L13.6289 10.2227Z" fill="#FA782F"/>
</svg>
