<svg width="18" height="18" viewBox="0 0 18 18" fill="none" xmlns="http://www.w3.org/2000/svg">
<path d="M16.5082 0H9.44172C9.04914 0 8.65655 0.157034 8.421 0.392585L0.412275 8.47983C-0.137344 9.02944 -0.137344 9.97165 0.412275 10.5213L7.4788 17.5878C8.02841 18.1374 8.97062 18.1374 9.52024 17.5878L17.6075 9.50055C17.843 9.265 18.0001 8.87241 18.0001 8.47983V1.4133C18.0001 0.628135 17.3719 0 16.5082 0ZM13.289 6.28135C12.4254 6.28135 11.7187 5.5747 11.7187 4.71101C11.7187 3.84733 12.4254 3.14068 13.289 3.14068C14.1527 3.14068 14.8594 3.84733 14.8594 4.71101C14.8594 5.5747 14.1527 6.28135 13.289 6.28135Z" fill="#FA782F"/>
</svg>
