<svg width="18" height="18" viewBox="0 0 18 18" fill="none" xmlns="http://www.w3.org/2000/svg">
<path d="M12.975 10.0125C12.7782 10.0117 12.5897 9.93356 12.45 9.795C12.3103 9.65448 12.2319 9.46439 12.2319 9.26625C12.2319 9.06811 12.3103 8.87802 12.45 8.7375L14.04 7.1475C14.1795 7.00819 14.2901 6.84276 14.3656 6.66066C14.4411 6.47856 14.4799 6.28337 14.4799 6.08625C14.4799 5.88913 14.4411 5.69394 14.3656 5.51184C14.2901 5.32974 14.1795 5.16431 14.04 5.025L12.975 3.96C12.6882 3.68889 12.3084 3.53784 11.9138 3.53784C11.5191 3.53784 11.1393 3.68889 10.8525 3.96L9.2625 5.55C9.11874 5.66503 8.93768 5.72315 8.75383 5.7133C8.56997 5.70345 8.39616 5.62632 8.26551 5.49659C8.13485 5.36686 8.05648 5.19361 8.04532 5.00982C8.03417 4.82604 8.091 4.64458 8.205 4.5L9.795 2.91C10.367 2.36439 11.1271 2.06 11.9175 2.06C12.708 2.06 13.468 2.36439 14.04 2.91L15.0975 3.9675C15.3764 4.24612 15.5977 4.57698 15.7487 4.94118C15.8997 5.30537 15.9774 5.69575 15.9774 6.09C15.9774 6.48425 15.8997 6.87463 15.7487 7.23882C15.5977 7.60301 15.3764 7.93388 15.0975 8.2125L13.5 9.795C13.3603 9.93356 13.1718 10.0117 12.975 10.0125Z" fill="#FA782F"/>
<path d="M6.0825 15.975C5.68842 15.9753 5.29814 15.898 4.93396 15.7474C4.56977 15.5968 4.23882 15.376 3.96 15.0975L2.9025 14.04C2.62357 13.7614 2.4023 13.4305 2.25132 13.0663C2.10035 12.7021 2.02264 12.3117 2.02264 11.9175C2.02264 11.5233 2.10035 11.1329 2.25132 10.7687C2.4023 10.4045 2.62357 10.0736 2.9025 9.795L4.5 8.205C4.64459 8.091 4.82605 8.03417 5.00983 8.04532C5.19361 8.05648 5.36687 8.13485 5.49659 8.26551C5.62632 8.39616 5.70346 8.56997 5.71331 8.75383C5.72316 8.93768 5.66503 9.11874 5.55 9.2625L3.96 10.8525C3.82054 10.9918 3.7099 11.1572 3.63441 11.3393C3.55893 11.5214 3.52007 11.7166 3.52007 11.9138C3.52007 12.1109 3.55893 12.3061 3.63441 12.4882C3.7099 12.6703 3.82054 12.8357 3.96 12.975L5.025 14.04C5.31185 14.3111 5.69157 14.4622 6.08625 14.4622C6.48094 14.4622 6.86066 14.3111 7.1475 14.04L8.7375 12.45C8.80295 12.367 8.8852 12.2988 8.97887 12.2498C9.07253 12.2008 9.17549 12.1722 9.281 12.1658C9.3865 12.1594 9.49217 12.1753 9.59108 12.2126C9.68998 12.2499 9.77988 12.3077 9.85489 12.3822C9.92989 12.4566 9.98831 12.5461 10.0263 12.6448C10.0643 12.7434 10.081 12.849 10.0754 12.9545C10.0697 13.06 10.0418 13.1632 9.9935 13.2572C9.94518 13.3512 9.87754 13.434 9.795 13.5L8.205 15.09C7.92681 15.3699 7.59613 15.5921 7.23192 15.7439C6.8677 15.8958 6.47711 15.9743 6.0825 15.975Z" fill="#FA782F"/>
<path d="M6.61501 12.135C6.5163 12.1356 6.41845 12.1167 6.32708 12.0793C6.2357 12.042 6.15259 11.987 6.08251 11.9175C6.01221 11.8478 5.95641 11.7648 5.91834 11.6734C5.88026 11.582 5.86066 11.484 5.86066 11.385C5.86066 11.286 5.88026 11.188 5.91834 11.0966C5.95641 11.0052 6.01221 10.9222 6.08251 10.8525L10.86 6.0825C11.0005 5.94282 11.1906 5.86441 11.3888 5.86441C11.5869 5.86441 11.777 5.94282 11.9175 6.0825C11.9878 6.15223 12.0436 6.23518 12.0817 6.32657C12.1198 6.41797 12.1394 6.516 12.1394 6.615C12.1394 6.71401 12.1198 6.81204 12.0817 6.90344C12.0436 6.99483 11.9878 7.07778 11.9175 7.1475L7.14001 11.9175C7.00031 12.0561 6.81176 12.1342 6.61501 12.135Z" fill="#FA782F"/>
</svg>
