<svg width="20" height="21" viewBox="0 0 20 21" fill="none" xmlns="http://www.w3.org/2000/svg">
<path d="M18.3758 0H1.62424C0.727198 0 0 0.727198 0 1.62424V18.4281C0 19.3252 0.727198 20.0524 1.62424 20.0524H18.3758C19.2728 20.0524 20 19.3252 20 18.4281V1.62424C20 0.727198 19.2728 0 18.3758 0Z" fill="#FA782F"/>
<path d="M15.2401 3.9459C15.7887 4.02718 16.1673 4.53845 16.0864 5.08763C16.0054 5.637 15.4951 6.01686 14.9463 5.93556C13.9746 5.7916 12.5188 7.30484 10.889 10.4164C8.80832 14.3886 6.87167 16.2812 4.83275 16.1302C4.27966 16.0892 3.86476 15.6069 3.90557 15.0532C3.94639 14.4995 4.42765 14.0834 4.98083 14.1243C5.98768 14.1989 7.46658 12.6212 9.11099 9.48186C11.205 5.48421 13.1679 3.63891 15.2401 3.9459Z" fill="white"/>
</svg>
