<svg width="29" height="29" viewBox="0 0 29 29" fill="none" xmlns="http://www.w3.org/2000/svg">
<path d="M24.1667 10.8746C24.1675 11.0875 24.1121 11.2969 24.006 11.4815C23.8999 11.6661 23.7469 11.8194 23.5625 11.9258L15.1042 16.7592C14.9205 16.8652 14.7121 16.9211 14.5 16.9211C14.2879 16.9211 14.0795 16.8652 13.8958 16.7592L5.4375 11.9258C5.25154 11.8205 5.09686 11.6676 4.98925 11.4829C4.88164 11.2983 4.82494 11.0883 4.82494 10.8746C4.82494 10.6608 4.88164 10.4509 4.98925 10.2662C5.09686 10.0816 5.25154 9.92873 5.4375 9.82335L13.8958 4.99001C14.0795 4.88396 14.2879 4.82812 14.5 4.82812C14.7121 4.82813 14.9205 4.88396 15.1042 4.99001L23.5625 9.82335C23.7469 9.9298 23.8999 10.0831 24.006 10.2677C24.1121 10.4523 24.1675 10.6617 24.1667 10.8746Z" fill="#FA782F"/>
<path d="M23.5625 17.0736L21.4963 15.8652L16.3004 18.8377C15.7538 19.1573 15.1331 19.3281 14.5 19.3332C13.8732 19.3333 13.257 19.171 12.7117 18.8619L7.50375 15.8894L5.4375 17.0977C5.25154 17.2031 5.09686 17.356 4.98925 17.5406C4.88164 17.7253 4.82494 17.9352 4.82494 18.149C4.82494 18.3627 4.88164 18.5727 4.98925 18.7573C5.09686 18.942 5.25154 19.0948 5.4375 19.2002L13.8958 24.0336C14.0795 24.1396 14.2879 24.1955 14.5 24.1955C14.7121 24.1955 14.9205 24.1396 15.1042 24.0336L23.5625 19.2002C23.7485 19.0948 23.9031 18.942 24.0108 18.7573C24.1184 18.5727 24.1751 18.3627 24.1751 18.149C24.1751 17.9352 24.1184 17.7253 24.0108 17.5406C23.9031 17.356 23.7485 17.2031 23.5625 17.0977V17.0736Z" fill="#FA782F"/>
</svg>
