<svg width="24" height="24" viewBox="0 0 24 24" fill="none" xmlns="http://www.w3.org/2000/svg">
<path d="M15 2C13.4 2 11.9 2.7 10.8 3.7C11.6 3.9 12.3 4.2 12.9 4.6C13.5 4.2 14.2 4 15 4C17.2 4 19 5.8 19 8V13C19 15.2 17.2 17 15 17C12.8 17 11 15.2 11 13V9.5C10.5 8.9 9.8 8.5 9 8.5V13C9 16.3 11.7 19 15 19C18.3 19 21 16.3 21 13V8C21 4.7 18.3 2 15 2Z" fill="#FA782F"/>
<path d="M9 22C10.6 22 12.1 21.3 13.2 20.3C12.4 20.1 11.7 19.8 11.1 19.4C10.5 19.8 9.8 20 9 20C6.8 20 5 18.2 5 16V11C5 8.8 6.8 7 9 7C11.2 7 13 8.8 13 11V14.5C13.5 15.1 14.2 15.5 15 15.5V11C15 7.7 12.3 5 9 5C5.7 5 3 7.7 3 11V16C3 19.3 5.7 22 9 22Z" fill="#FA782F"/>
</svg>
