<svg width="24" height="24" viewBox="0 0 24 24" fill="none" xmlns="http://www.w3.org/2000/svg">
<path d="M19.2983 21.9281L21.6996 19.5268L10.0697 7.89695C10.2611 7.41283 10.3689 6.88633 10.3689 6.3347C10.3686 3.98045 8.46056 2.07264 6.10669 2.07227H6.10519L6.09675 2.07245V2.07283C6.06825 2.07339 6.03488 2.07602 5.99419 2.08595C5.96025 2.09458 5.92163 2.10827 5.88113 2.13227C5.82019 2.16714 5.75681 2.22995 5.72138 2.30083C5.68444 2.37208 5.6745 2.44258 5.6745 2.49564C5.67563 2.57777 5.69363 2.62764 5.70788 2.66683C5.73825 2.74052 5.7675 2.78064 5.79788 2.82358C5.85506 2.90027 5.9205 2.97189 5.99925 3.05345C6.13613 3.19408 6.31181 3.35683 6.501 3.52633C6.92213 3.90302 7.41094 4.30858 7.63556 4.49345L7.89075 6.59927L6.37125 8.12458L4.26563 7.86433C4.12031 7.68827 3.83981 7.35002 3.5445 7.00952C3.33113 6.7637 3.11063 6.5177 2.92313 6.3257C2.82825 6.22895 2.74256 6.14664 2.66138 6.07858C2.61994 6.04408 2.58038 6.01333 2.53069 5.98239C2.505 5.96739 2.47725 5.95164 2.43806 5.93627C2.39925 5.92145 2.349 5.90364 2.26744 5.90252C2.21981 5.90233 2.15944 5.91039 2.09606 5.93814C2.04881 5.95839 2.00156 5.99102 1.965 6.02908C1.90856 6.08702 1.87744 6.15264 1.86244 6.20495C1.84688 6.25783 1.84406 6.30002 1.84369 6.33433C1.84388 8.68933 3.7515 10.5973 6.10613 10.5977C6.65794 10.5979 7.18463 10.4903 7.66856 10.2983L19.2983 21.9281Z" fill="currentColor"/>
<path d="M13.1679 13.5808L15.0311 11.7176L14.3304 11.0167L20.8121 4.53522L22.1565 2.61391L21.6555 2.11328L19.7355 3.45841L13.2538 9.94028L12.5526 9.23903L10.6894 11.1024L8.18363 12.3082L2.34225 18.1496L6.12094 21.9281L11.9623 16.0869L13.1679 13.5808Z" fill="currentColor"/>
</svg>
