<svg width="24" height="24" viewBox="0 0 24 24" fill="none" xmlns="http://www.w3.org/2000/svg">
<g clip-path="url(#clip0_91_404)">
<path d="M6.0595 6.07217C6.11837 6.07139 6.17679 6.0619 6.23286 6.04397L6.25183 6.03825L6.26188 6.0213C6.40234 5.78743 6.34783 5.55666 6.29486 5.33352C6.28343 5.28566 6.27198 5.23781 6.26266 5.19015C6.15501 4.68522 6.23642 4.15837 6.49147 3.70947C6.74649 3.2606 7.1574 2.92093 7.64623 2.7549C8.2122 2.55353 8.7266 2.5432 9.21913 2.723C9.44126 2.80406 9.59428 2.81449 9.71529 2.7569C9.8409 2.69721 9.9312 2.56628 10.0171 2.31795C10.0642 2.16085 10.1353 2.01196 10.2278 1.87648C10.4564 1.56221 10.7554 1.30565 11.1008 1.1273C11.4461 0.948949 11.8283 0.853716 12.2169 0.84919C13.1234 0.819692 13.6865 1.18029 14.0423 2.01776C14.2172 2.42972 14.4063 2.53106 14.8204 2.43524C15.1166 2.36671 15.3608 2.32487 15.583 2.45531L15.6913 2.51881C16.0553 2.7161 16.3994 2.94818 16.7186 3.2118C16.9017 3.37071 17.0382 3.5765 17.1133 3.80706C17.1884 4.03762 17.1991 4.28427 17.1446 4.52054L17.137 4.56137C17.1026 4.68796 17.0965 4.82054 17.1191 4.94975C17.1538 5.10427 17.2458 5.23997 17.3764 5.32972C17.4167 5.35124 17.4614 5.36413 17.5069 5.36758C17.5526 5.37104 17.5986 5.36497 17.6419 5.34977C17.6939 5.3306 17.7414 5.30118 17.7818 5.26327C17.8221 5.22536 17.8545 5.17971 17.8769 5.12905C17.9687 4.93999 18.0287 4.73707 18.0543 4.52847C18.1383 3.67505 17.8336 2.95746 17.1504 2.39571C16.3487 1.73683 15.601 1.46011 14.7983 1.52673C14.4556 0.804341 13.8668 0.360672 12.9998 0.172249C12.975 0.163163 12.952 0.149368 12.9322 0.131615C12.9179 0.120578 12.9034 0.109745 12.8887 0.100313L12.876 0.0922852H11.6244L11.6043 0.0964003C11.4985 0.141148 11.3918 0.18439 11.2853 0.227633C11.0511 0.322748 10.8089 0.421073 10.578 0.534749C10.0729 0.783572 9.65578 1.19122 9.2673 1.8167C9.16436 1.8167 9.06512 1.816 8.96831 1.81549C8.74617 1.81428 8.53608 1.81327 8.3262 1.81769C7.35799 1.83856 6.59115 2.20668 6.04695 2.91191C5.41306 3.73323 5.26438 4.64766 5.6055 5.6297C5.65888 5.7807 5.76 6.07227 6.0595 6.07217Z" fill="#FA782F"/>
<path d="M16.5471 11.1801C16.4916 11.2063 16.4348 11.2295 16.3767 11.2495L16.3334 11.2655L16.3439 11.0448C16.3539 10.843 16.3628 10.6577 16.3702 10.4722C16.3782 10.2726 16.3869 10.0731 16.3959 9.87347C16.4548 8.55031 16.5156 7.18186 16.3308 5.83702C16.2319 5.11673 16.1088 4.42053 15.6969 3.82095C15.586 3.65353 15.4413 3.51144 15.2717 3.404C15.1021 3.29655 14.9118 3.22619 14.7131 3.19753C14.5145 3.16886 14.312 3.18255 14.1189 3.23768C13.9259 3.29282 13.7467 3.38817 13.5932 3.51744C13.523 3.57514 13.4547 3.63644 13.3925 3.69292L13.3624 3.72011C13.3055 3.61636 13.2504 3.51364 13.1958 3.41191C13.0498 3.1399 12.9119 2.88296 12.7549 2.63192C12.4955 2.21695 12.0771 2.03794 11.5455 2.1136C11.3144 2.14188 11.0931 2.2245 10.9 2.35471C10.7069 2.48494 10.5473 2.65904 10.4345 2.86278C10.2739 3.16539 10.1304 3.47669 10.0045 3.79526C9.96029 3.90152 9.91614 4.00747 9.8708 4.11252C9.85735 4.09085 9.84359 4.06837 9.82954 4.04549C9.74678 3.90589 9.65703 3.77055 9.56066 3.63995C9.16034 3.11512 8.63501 2.99874 8.04074 3.30384C7.59497 3.53259 7.32357 3.88516 7.25574 4.3234C7.20287 4.66575 7.1776 5.01702 7.15331 5.35684C7.13785 5.57165 7.1219 5.79368 7.09912 6.0108C6.96047 7.33257 6.99297 8.67601 7.02426 9.97531C7.03892 10.5829 7.05436 11.2113 7.05146 11.8288C7.05025 12.1304 7.07986 12.4366 7.10846 12.7325C7.1202 12.8529 7.13182 12.9745 7.14165 13.096H7.13634L7.1233 13.0967C7.0932 13.0728 7.0642 13.0479 7.03501 13.0229C6.98956 12.9843 6.94272 12.9442 6.89305 12.9079C5.87137 12.1614 4.78133 11.8971 3.65301 12.1224C3.40544 12.1653 3.17293 12.2707 2.97762 12.4288C2.78227 12.5869 2.63062 12.7922 2.53704 13.0254C2.44518 13.2741 2.41748 13.542 2.45653 13.8042C2.49555 14.0665 2.60005 14.3147 2.76036 14.5259C2.92381 14.7347 3.10937 14.9252 3.3138 15.0942L3.38011 15.1533C4.12702 15.8029 4.74799 16.5845 5.21197 17.4589C5.87035 18.7251 6.56285 19.9578 7.40002 21.4192C7.57679 21.7216 7.81144 21.9862 8.09058 22.1979C9.54018 23.2966 11.0062 23.8392 12.5394 23.8392C13.0008 23.8383 13.461 23.7912 13.9131 23.6988C16.0161 23.2738 17.4489 22.199 18.2936 20.4135C18.6449 19.6827 18.895 18.9075 19.0375 18.1092C19.269 16.7913 19.478 15.3701 19.4389 13.9059C19.4337 13.2801 19.3083 12.6611 19.0694 12.0826C18.9745 11.8527 18.8329 11.6449 18.6541 11.4722C18.4751 11.2994 18.2624 11.1654 18.0295 11.0785C17.7885 10.9926 17.5328 10.9574 17.2777 10.9748C17.0227 10.9923 16.774 11.0622 16.5471 11.1801ZM8.04084 14.303C8.02078 13.1091 7.99438 11.8449 7.96338 10.5469C7.95696 10.276 7.9452 10.0016 7.93386 9.73571C7.91279 9.24319 7.89113 8.73381 7.90237 8.23445C7.92825 7.08586 7.9973 5.93042 8.06583 4.84533C8.10194 4.27344 8.19034 4.13749 8.68787 3.9247C9.01054 4.13839 9.21031 4.48656 9.29799 4.98822C9.43079 5.74538 9.52425 6.50893 9.57803 7.27577C9.64445 8.23254 9.69489 9.20677 9.74386 10.149C9.77235 10.6977 9.80075 11.2464 9.83237 11.7944C9.84111 11.9217 9.87888 12.0452 9.94274 12.1556C9.99158 12.2414 10.0692 12.307 10.1619 12.3411C10.2545 12.375 10.3562 12.3751 10.4489 12.3413C10.5368 12.3239 10.6155 12.2753 10.6702 12.2045C10.7251 12.1337 10.7523 12.0453 10.747 11.9559C10.7461 11.8254 10.7493 11.695 10.7525 11.5639C10.7645 11.2983 10.7598 11.0322 10.7382 10.7672C10.5947 9.38265 10.6662 7.97449 10.7353 6.61299L10.7508 6.30658C10.7809 5.69455 10.8332 5.08252 10.8798 4.5643C10.9264 4.04809 11.0828 3.63986 11.3579 3.31598C11.5047 3.14321 11.622 3.06374 11.7204 3.07398C11.8188 3.08421 11.9195 3.18615 12.0333 3.39504C12.4129 4.09025 12.5093 4.86149 12.5817 5.65653C12.7306 7.29194 12.7316 9.0339 12.5849 11.3052C12.5762 11.439 12.5605 11.5753 12.5453 11.7071C12.5259 11.8769 12.5052 12.0525 12.4999 12.2267C12.4924 12.4531 12.5501 12.6156 12.6705 12.7095C12.7908 12.8034 12.9678 12.8185 13.1841 12.7558C13.3374 12.7173 13.4743 12.6307 13.5747 12.5086C13.6752 12.3865 13.7338 12.2354 13.742 12.0776L13.7597 11.8884C13.8115 11.4212 13.8396 10.9517 13.8437 10.4817C13.8325 9.18579 13.7946 7.86875 13.758 6.59502L13.7543 6.46922C13.7505 6.33879 13.738 6.20613 13.7257 6.07791C13.6908 5.7101 13.6578 5.36286 13.8103 5.02073L13.8555 4.91819C13.9332 4.71879 14.0343 4.52925 14.1565 4.35352C14.1988 4.28859 14.2577 4.23605 14.3269 4.20122C14.3962 4.16638 14.4735 4.15048 14.5509 4.15516C14.6263 4.1694 14.6966 4.20339 14.7546 4.25366C14.8125 4.30393 14.8562 4.36868 14.881 4.44131C15.0071 4.75601 15.1034 5.08185 15.1688 5.41452C15.4124 6.51245 15.3742 7.64792 15.3373 8.74555L15.3361 8.78427C15.3046 9.72106 15.2892 10.6739 15.2743 11.5954C15.2691 11.9097 15.2637 12.2242 15.2583 12.5385C15.2538 12.7876 15.2751 13.0427 15.5819 13.1833C15.9982 13.374 16.1853 13.3219 16.4166 12.9515C16.4626 12.8777 16.506 12.8023 16.5496 12.7268C16.6076 12.6259 16.6677 12.5215 16.733 12.4239C16.9611 12.0842 17.1872 11.8639 17.5502 11.8936C17.9733 11.9281 18.1129 12.2834 18.2477 12.627C18.5336 13.3773 18.6322 14.1861 18.5348 14.9831C18.4115 16.1268 18.2329 17.2441 18.0744 18.1864C17.9327 19.0292 17.5684 19.8745 16.9909 20.6981C16.4555 21.4625 15.6557 22.0012 14.546 22.3445C12.5713 22.9555 10.7206 22.6255 8.88784 21.3364C8.70729 21.2164 8.54944 21.0655 8.42159 20.8904C8.109 20.4419 7.81979 19.9777 7.55512 19.4994C7.15209 18.7512 6.74575 17.9496 6.34754 17.1165C5.73621 15.8379 4.95392 14.8308 3.95591 14.0376C3.78713 13.9025 3.6452 13.7371 3.53744 13.5498C3.50701 13.5023 3.48704 13.4488 3.47886 13.393C3.47072 13.3371 3.47451 13.2803 3.49007 13.2261C3.51471 13.1644 3.55213 13.1086 3.59986 13.0623C3.64758 13.0161 3.70454 12.9805 3.76699 12.9578C3.96406 12.8703 4.17743 12.8255 4.39305 12.8264C4.50987 12.8268 4.62643 12.8382 4.74113 12.8603C5.61844 13.0259 6.20595 13.3525 6.58873 13.8883C6.72346 14.1006 6.8274 14.3309 6.89735 14.5724C6.91893 14.635 6.94038 14.6975 6.96287 14.759C7.04864 14.9943 7.16884 15.2122 7.46453 15.2128H7.46594C7.72529 15.2128 7.91331 15.0515 7.98183 14.7699C8.02124 14.6174 8.04106 14.4606 8.04084 14.303Z" fill="#FA782F"/>
<path d="M2.32754 7.03702C2.42628 7.03358 2.52257 7.00531 2.60749 6.95482C2.69242 6.90435 2.76324 6.83326 2.81344 6.74816L2.83714 6.71426L2.16579 5.98273C2.31148 5.99236 2.45439 6.00224 2.59452 6.01234C3.02466 6.04244 3.43079 6.07123 3.83963 6.08176C4.13205 6.08345 4.42374 6.05261 4.70932 5.98976C4.76683 5.97989 4.82163 5.958 4.87015 5.92553C4.91865 5.89308 4.95976 5.85075 4.99084 5.80134C5.01256 5.76364 5.02571 5.72162 5.02931 5.67825C5.03292 5.6349 5.0269 5.59129 5.0117 5.5505C4.9763 5.47783 4.92595 5.41346 4.86394 5.3616C4.80196 5.30972 4.7297 5.27154 4.65192 5.24951C4.50332 5.21519 4.35048 5.20296 4.19832 5.21319C4.15766 5.21394 4.11728 5.21436 4.07722 5.21449C3.56322 5.21259 3.04924 5.2128 2.4931 5.2131H1.95219C1.98641 5.17668 2.01761 5.14285 2.0467 5.11176C2.14552 5.00559 2.21726 4.92884 2.29442 4.85661C2.4127 4.74624 2.63285 4.54198 2.45577 4.3066C2.33014 4.13944 2.12466 4.13293 1.87744 4.28793C1.82587 4.32025 1.7747 4.35335 1.72363 4.38635L1.66124 4.42649C1.54707 4.50007 1.43316 4.57401 1.31951 4.64833C1.06688 4.81318 0.805596 4.98354 0.543629 5.14195C0.325508 5.27389 0.199086 5.46303 0.196777 5.66018C0.200226 5.75748 0.229072 5.8522 0.280429 5.9349C0.331786 6.01763 0.403888 6.08549 0.489568 6.13173C0.98428 6.44047 1.49798 6.71768 2.02765 6.96167C2.12076 7.00875 2.22321 7.0345 2.32754 7.03702Z" fill="#FA782F"/>
<path d="M18.9366 5.74845L18.974 5.77013C19.0274 5.79459 19.0864 5.80388 19.1446 5.79702C19.1633 5.79702 19.1819 5.79622 19.1997 5.79702C19.8518 5.82611 20.5032 5.85491 21.179 5.8847L21.672 5.90649C21.6519 5.93718 21.6318 5.96668 21.6117 5.99507C21.5347 6.09369 21.4757 6.20526 21.4376 6.32456C21.4012 6.47506 21.399 6.7301 21.5078 6.82853C21.5939 6.89021 21.6981 6.92104 21.8039 6.91601C21.8826 6.91926 21.9606 6.90054 22.0292 6.86195C22.5357 6.51977 22.9351 6.04142 23.1812 5.48208C23.2393 5.35595 23.2048 5.08526 23.0956 5.00048C22.6514 4.65425 22.1888 4.33222 21.7097 4.0358C21.6377 4.00581 21.5573 4.00263 21.4832 4.02686C21.3936 4.04299 21.3126 4.0903 21.2545 4.1604C21.1863 4.27739 21.2591 4.49993 21.3377 4.61561C21.4181 4.72035 21.5133 4.8129 21.6201 4.89032C21.6431 4.90888 21.6668 4.92805 21.6911 4.94821C21.5245 4.95353 21.3624 4.95824 21.2034 4.96326C20.7329 4.9775 20.2885 4.99105 19.8457 5.01162C19.5377 5.02333 19.2305 5.05392 18.926 5.10322C18.8762 5.11065 18.8284 5.12895 18.7862 5.15681C18.7441 5.1847 18.7085 5.22146 18.6822 5.26455C18.6613 5.30218 18.6489 5.34405 18.6464 5.38708C18.6437 5.43009 18.651 5.47314 18.6674 5.51298C18.7088 5.61803 18.8299 5.68735 18.9366 5.74845Z" fill="#FA782F"/>
</g>
<defs>
<clipPath id="clip0_91_404">
<rect width="23.3885" height="24" fill="white"/>
</clipPath>
</defs>
</svg>
