<svg width="24" height="24" viewBox="0 0 24 24" fill="none" xmlns="http://www.w3.org/2000/svg">
<path d="M15.0004 13.5953C15.0004 14.8324 13.998 15.8344 12.7616 15.8344H11.2387C10.0024 15.8344 9 14.8324 9 13.5953H3V19.9703C3 20.7986 3.67162 21.4703 4.5 21.4703H19.5C20.3284 21.4703 21 20.7986 21 19.9703V13.5953H15.0004Z" fill="#FA782F"/>
<path d="M11.9685 12.4673L14.8215 9.67275C15.1016 9.39788 15.0112 9.17513 14.6179 9.17513H12.906V3.46725C12.906 2.94938 12.4864 2.52975 11.9685 2.52975C11.4506 2.52975 11.031 2.94938 11.031 3.46725V9.17513H9.31911C8.92536 9.17513 8.83499 9.39825 9.11586 9.67275L11.9685 12.4673Z" fill="#FA782F"/>
</svg>
