<svg width="24" height="24" viewBox="0 0 24 24" fill="none" xmlns="http://www.w3.org/2000/svg">
<g clip-path="url(#clip0_91_328)">
<path d="M6.14701 14.3542C6.24401 14.4512 6.37201 14.5002 6.50001 14.5002C6.62801 14.5002 6.75601 14.4512 6.85301 14.3542C7.04801 14.1592 7.04801 13.8422 6.85301 13.6472L5.85301 12.6472C5.65801 12.4522 5.34101 12.4522 5.14601 12.6472C4.95101 12.8422 4.95101 13.1592 5.14601 13.3542L6.14701 14.3542Z" fill="currentColor"/>
<path d="M14.146 12.6462L13.146 13.6463C12.951 13.8412 12.951 14.1582 13.146 14.3532C13.244 14.4512 13.372 14.4992 13.5 14.4992C13.628 14.4992 13.756 14.4502 13.854 14.3532L14.854 13.3532C15.049 13.1582 15.049 12.8413 14.854 12.6462C14.659 12.4513 14.342 12.4513 14.146 12.6462Z" fill="currentColor"/>
<path d="M4.5 16H6C6.276 16 6.5 15.776 6.5 15.5C6.5 15.224 6.276 15 6 15H4.5C4.224 15 4 15.224 4 15.5C4 15.776 4.224 16 4.5 16Z" fill="currentColor"/>
<path d="M13.5 15.5C13.5 15.776 13.724 16 14 16H15.5C15.776 16 16 15.776 16 15.5C16 15.224 15.776 15 15.5 15H14C13.724 15 13.5 15.224 13.5 15.5Z" fill="currentColor"/>
<path d="M19 0.512207L14.5 1.51221L8.928 12.8932C8.646 13.4702 8.66099 13.9562 9.09599 14.2972C9.52999 14.6392 10.159 14.5642 10.5 14.1302L13.028 10.3152C13.661 10.7462 14.465 10.9962 15.295 10.9962C15.716 10.9962 16.135 10.9132 16.542 10.7822L16.532 10.8152C16.48 11.1682 16.595 11.5262 16.844 11.7822C17.093 12.0382 17.447 12.1642 17.802 12.1212C18.187 12.0752 18.522 11.8382 18.694 11.4912L20.639 5.88021L24 5.10621V0.512207H19ZM16.724 8.37021C16.037 9.21621 14.76 9.10321 14.129 8.65421L15.225 7.00021L16.842 8.27221C16.803 8.30721 16.757 8.32921 16.724 8.37021Z" fill="currentColor"/>
<path d="M0 18.5C0 19.327 0.673 20 1.5 20H19V17H1.5C0.673 17 0 17.673 0 18.5Z" fill="currentColor"/>
<path d="M22.5 17H20V20H22.5C23.327 20 24 19.327 24 18.5C24 17.673 23.327 17 22.5 17Z" fill="currentColor"/>
</g>
<defs>
<clipPath id="clip0_91_328">
<rect width="24" height="24" fill="white"/>
</clipPath>
</defs>
</svg>
