<svg width="18" height="18" viewBox="0 0 18 18" fill="none" xmlns="http://www.w3.org/2000/svg">
<path d="M10.2867 14.336L6.06796 3.08601C6.01268 2.93858 5.91373 2.81152 5.78431 2.72183C5.6549 2.63213 5.50119 2.58408 5.34374 2.58408C5.18628 2.58408 5.03257 2.63213 4.90316 2.72183C4.77375 2.81152 4.67479 2.93858 4.61952 3.08601L0.400768 14.336C0.330992 14.5276 0.339683 14.739 0.424951 14.9242C0.510219 15.1094 0.665165 15.2534 0.856085 15.325C1.047 15.3965 1.25845 15.3898 1.44444 15.3062C1.63042 15.2227 1.77589 15.0691 1.84921 14.8788L3.12046 11.4891C3.12546 11.4757 3.13444 11.4641 3.14619 11.4559C3.15793 11.4478 3.17189 11.4434 3.1862 11.4434H7.50128C7.51558 11.4434 7.52954 11.4478 7.54129 11.4559C7.55303 11.4641 7.56201 11.4757 7.56702 11.4891L8.83827 14.8788C8.91158 15.0691 9.05705 15.2227 9.24304 15.3062C9.42902 15.3898 9.64047 15.3965 9.83139 15.325C10.0223 15.2534 10.1773 15.1094 10.2625 14.9242C10.3478 14.739 10.3565 14.5276 10.2867 14.336V14.336ZM3.75327 9.80086L5.27799 5.73504C5.28305 5.7217 5.29205 5.71021 5.3038 5.70211C5.31554 5.694 5.32947 5.68966 5.34374 5.68966C5.358 5.68966 5.37193 5.694 5.38368 5.70211C5.39542 5.71021 5.40442 5.7217 5.40948 5.73504L6.93421 9.80156C6.93818 9.81219 6.93952 9.82361 6.93811 9.83487C6.93671 9.84613 6.9326 9.85688 6.92614 9.8662C6.91968 9.87553 6.91107 9.88315 6.90102 9.88843C6.89098 9.8937 6.87981 9.89646 6.86846 9.89648H3.81901C3.80767 9.89646 3.7965 9.8937 3.78645 9.88843C3.77641 9.88315 3.76779 9.87553 3.76133 9.8662C3.75487 9.85688 3.75076 9.84613 3.74936 9.83487C3.74796 9.82361 3.7493 9.81219 3.75327 9.80156V9.80086Z" fill="#FA782F"/>
<path d="M14.0896 5.95899C12.6229 5.94844 11.3094 6.79817 10.7497 8.11758C10.6695 8.30639 10.6676 8.51933 10.7445 8.70954C10.8213 8.89975 10.9705 9.05165 11.1593 9.13184C11.3481 9.21203 11.561 9.21393 11.7513 9.13712C11.9415 9.06031 12.0934 8.91108 12.1736 8.72227C12.4857 7.98786 13.2202 7.51149 14.0481 7.50586C15.1843 7.49813 16.1016 8.43751 16.1016 9.57481C16.1016 9.5885 16.0963 9.60165 16.0867 9.61149C16.0772 9.62133 16.0643 9.62709 16.0506 9.62754C15.28 9.64899 14.3659 9.70032 13.5503 9.79629C11.6255 10.0227 10.4766 11.0721 10.4766 12.6035C10.4766 13.4188 10.7845 14.1504 11.3439 14.6665C11.8688 15.1499 12.5859 15.416 13.3594 15.416C14.4492 15.416 15.3875 15.1348 16.0995 14.5997H16.1016C16.1011 14.7013 16.1207 14.8019 16.1592 14.8959C16.1976 14.9899 16.2542 15.0754 16.3257 15.1476C16.3972 15.2197 16.4823 15.277 16.5759 15.3163C16.6696 15.3556 16.7701 15.376 16.8717 15.3765C16.9732 15.3769 17.0739 15.3573 17.1679 15.3189C17.2619 15.2804 17.3474 15.2238 17.4195 15.1523C17.4917 15.0808 17.549 14.9958 17.5883 14.9021C17.6276 14.8084 17.648 14.7079 17.6484 14.6064V9.57903C17.6484 7.60395 16.0664 5.9734 14.0896 5.95899ZM13.3594 13.8691C12.7431 13.8691 12.0234 13.5376 12.0234 12.6035C12.0234 12.2284 12.1581 11.9658 12.4604 11.7517C12.7547 11.5432 13.2057 11.3945 13.731 11.3326C14.4735 11.2451 15.3067 11.1969 16.0211 11.1755C16.0306 11.1755 16.04 11.1774 16.0488 11.1811C16.0576 11.1849 16.0655 11.1904 16.0721 11.1973C16.0786 11.2042 16.0837 11.2124 16.0871 11.2213C16.0904 11.2303 16.0918 11.2398 16.0914 11.2493C15.9961 13.0113 15.0982 13.8691 13.3594 13.8691Z" fill="#FA782F"/>
</svg>
