<svg width="122" height="122" viewBox="0 0 122 122" fill="none" xmlns="http://www.w3.org/2000/svg">
<path d="M28.5938 19.0625C29.6465 19.0625 30.5 18.209 30.5 17.1562C30.5 16.1035 29.6465 15.25 28.5938 15.25C27.541 15.25 26.6875 16.1035 26.6875 17.1562C26.6875 18.209 27.541 19.0625 28.5938 19.0625Z" fill="#263238"/>
<path d="M20.9688 19.0625C22.0215 19.0625 22.875 18.209 22.875 17.1562C22.875 16.1035 22.0215 15.25 20.9688 15.25C19.916 15.25 19.0625 16.1035 19.0625 17.1562C19.0625 18.209 19.916 19.0625 20.9688 19.0625Z" fill="#263238"/>
<path d="M13.3438 19.0625C14.3965 19.0625 15.25 18.209 15.25 17.1562C15.25 16.1035 14.3965 15.25 13.3438 15.25C12.291 15.25 11.4375 16.1035 11.4375 17.1562C11.4375 18.209 12.291 19.0625 13.3438 19.0625Z" fill="#263238"/>
<path d="M116.281 26.6875H5.71875C4.6665 26.6875 3.8125 25.8335 3.8125 24.7812C3.8125 23.729 4.6665 22.875 5.71875 22.875H116.281C117.334 22.875 118.188 23.729 118.188 24.7812C118.188 25.8335 117.334 26.6875 116.281 26.6875Z" fill="#263238"/>
<path d="M112.469 106.75H104.844C103.791 106.75 102.938 105.896 102.938 104.844C102.938 103.791 103.791 102.938 104.844 102.938H112.469C113.521 102.938 114.375 102.08 114.375 101.031V13.3438C114.375 12.2953 113.521 11.4375 112.469 11.4375H9.53125C8.479 11.4375 7.625 12.2953 7.625 13.3438V101.031C7.625 102.08 8.479 102.938 9.53125 102.938H17.1562C18.2085 102.938 19.0625 103.791 19.0625 104.844C19.0625 105.896 18.2085 106.75 17.1562 106.75H9.53125C6.37831 106.75 3.8125 104.184 3.8125 101.031V13.3438C3.8125 10.1908 6.37831 7.625 9.53125 7.625H112.469C115.622 7.625 118.188 10.1908 118.188 13.3438V101.031C118.188 104.184 115.622 106.75 112.469 106.75Z" fill="#263238"/>
<path d="M93.4062 110.563H28.5937C26.4053 110.563 24.6249 109.686 23.7137 108.153C22.8025 106.624 22.8749 104.642 23.9158 102.716L49.0783 56.1696C49.5777 55.2431 50.7329 54.8962 51.6631 55.3995C52.5896 55.8989 52.9327 57.0579 52.4333 57.9805L27.2708 104.531C26.8971 105.225 26.7904 105.866 26.9886 106.201C27.1869 106.537 27.8045 106.75 28.5937 106.75H93.4062C94.1954 106.75 94.8092 106.54 95.0074 106.201C95.2057 105.862 95.0989 105.221 94.7253 104.531L62.0408 44.0573C61.1868 42.4865 60.8093 42.4827 59.9553 44.0611L57.5801 48.4455C57.0769 49.3681 55.9179 49.715 54.9953 49.2118C54.0688 48.7123 53.7257 47.5533 54.2251 46.6269L56.6003 42.2425C58.7163 38.3423 63.2798 38.3423 65.3958 42.2425L98.0803 102.716C99.1211 104.638 99.1936 106.617 98.2824 108.149C97.375 109.686 95.5946 110.563 93.4062 110.563Z" fill="#263238"/>
<path d="M61 87.6875C60.1422 87.6875 59.3949 87.1194 59.1662 86.2959C59.0061 85.7241 55.2812 72.3193 55.2812 66.7188C55.2812 63.5658 57.8471 61 61 61C64.1529 61 66.7188 63.5658 66.7188 66.7188C66.7188 72.4794 62.9939 85.7355 62.8338 86.2997C62.6013 87.1232 61.854 87.6875 61 87.6875ZM61 64.8125C59.9478 64.8125 59.0938 65.6703 59.0938 66.7188C59.0938 69.3112 60.0583 74.0502 61.0076 78.0838C61.9531 74.0807 62.9062 69.3761 62.9062 66.7188C62.9062 65.6703 62.0522 64.8125 61 64.8125Z" fill="#FA782F"/>
<path d="M61 102.938C57.8471 102.938 55.2812 100.372 55.2812 97.2188C55.2812 94.0658 57.8471 91.5 61 91.5C64.1529 91.5 66.7188 94.0658 66.7188 97.2188C66.7188 100.372 64.1529 102.938 61 102.938ZM61 95.3125C59.9478 95.3125 59.0938 96.1703 59.0938 97.2188C59.0938 98.2672 59.9478 99.125 61 99.125C62.0522 99.125 62.9062 98.2672 62.9062 97.2188C62.9062 96.1703 62.0522 95.3125 61 95.3125Z" fill="#FA782F"/>
</svg>
