<svg width="20" height="20" viewBox="0 0 20 20" fill="none" xmlns="http://www.w3.org/2000/svg">
<path d="M19.3333 5C19.1667 4.91667 19 4.91667 18.9167 5L16 7.25V6.25C16 4.91667 14.9167 3.83333 13.5833 3.83333H2.83332C1.49999 3.83333 0.416656 4.91667 0.416656 6.25V13.75C0.416656 15.0833 1.49999 16.1667 2.83332 16.1667H13.5833C14.9167 16.1667 16 15.0833 16 13.75V12.75L18.9167 15C19 15.0833 19.1667 15.0833 19.3333 15C19.5 14.9167 19.5833 14.8333 19.5833 14.6667V5.33333C19.5833 5.16667 19.5 5.08333 19.3333 5Z" fill="#FA782F"/>
</svg>
