<svg width="12" height="12" viewBox="0 0 12 12" fill="none" xmlns="http://www.w3.org/2000/svg">
<path d="M10.9105 6.215C10.869 6.1555 9.87949 4.743 8.51399 3.7775C7.80599 3.276 6.91299 3 5.99999 3C5.08749 3 4.19449 3.276 3.48499 3.7775C2.11949 4.743 1.13099 6.1555 1.08949 6.215C0.970494 6.3865 0.970494 6.614 1.08949 6.7855C1.13099 6.845 2.11949 8.2575 3.48499 9.223C4.19449 9.724 5.08749 10 5.99999 10C6.91299 10 7.80599 9.724 8.51399 9.2225C9.87949 8.257 10.869 6.8445 10.9105 6.785C11.03 6.614 11.03 6.386 10.9105 6.215ZM5.99999 8.25C5.03299 8.25 4.24999 7.465 4.24999 6.5C4.24999 5.533 5.03299 4.75 5.99999 4.75C6.96499 4.75 7.74999 5.533 7.74999 6.5C7.74999 7.465 6.96499 8.25 5.99999 8.25Z" fill="black" fill-opacity="0.4"/>
<path d="M7 6.5C7 7.051 6.551 7.5 6 7.5C5.4475 7.5 5 7.051 5 6.5C5 5.9475 5.4475 5.5 6 5.5C6.551 5.5 7 5.9475 7 6.5Z" fill="black" fill-opacity="0.4"/>
</svg>
