<svg width="270" height="270" viewBox="0 0 270 270" fill="none" xmlns="http://www.w3.org/2000/svg">
<g clip-path="url(#clip0_1_301)">
<path d="M270 0H0V270H270V0Z" fill="white"/>
<path fill-rule="evenodd" clip-rule="evenodd" d="M153.392 223.842C179.466 223.842 202.348 204.446 189.498 178.102C176.647 151.758 224.395 152.609 238.421 134.401C255.526 112.197 250.572 17.9411 140.765 75.4038C123.175 84.6086 78.0005 65.934 63.0158 75.2C45.3773 86.107 20.5612 108.441 45.3773 131.319C57.6014 142.588 13.7755 171.837 32.9704 198.037C51.6996 223.602 64.8288 199.232 93.3437 204.446C121.859 209.66 134.027 223.842 153.392 223.842Z" fill="#FA782F" fill-opacity="0.4"/>
<path d="M123.128 178.011C123.128 178.011 129.131 175.186 131.373 173.222C133.614 171.257 136.401 166.375 136.401 166.375C136.401 166.375 167.009 188.481 186.967 185.327C191.565 184.601 200.525 181.544 201.096 176.159C202.657 161.453 181.07 157.695 185.785 150.238C188.663 145.686 197.605 152.461 197.605 152.461L234.691 170.703C234.691 170.703 221.879 202.285 190.786 203.551C152.538 205.108 123.128 178.011 123.128 178.011Z" fill="white"/>
<path fill-rule="evenodd" clip-rule="evenodd" d="M93.7242 54.3262C93.3761 54.1894 91.5066 51.9005 89.1335 51.484C88.0553 51.2946 89.0338 52.6676 87.8472 52.6802C84.3124 52.717 78.5678 52.0528 77.5037 52.6802C76.7128 53.145 78.4544 54.7682 77.5037 54.8428C68.5318 55.5462 54.8446 64.5041 51.8753 68.85C50.9299 70.2331 58.5734 67.8866 57.3556 68.5703C55.9886 69.3378 54.4727 74.363 53.5666 78.2438C52.9391 80.9165 52.5438 84.3559 52.4045 88.0978C52.2882 91.328 52.3346 91.8626 52.7994 93.6288C53.334 95.6041 53.7523 96.1852 54.4727 95.9062C54.7286 95.8133 54.8446 95.4648 54.8446 94.8139C54.8446 94.3027 55.1236 92.7688 55.472 91.3975L56.0765 88.9344L56.3321 89.9568C56.6575 91.1419 58.563 94.8139 60.2827 97.4866C60.3756 97.6284 60.7745 97.448 61.1345 96.5783C61.4624 95.7856 61.3292 94.5194 61.8865 93.1622C63.1552 90.0709 65.6467 86.0519 68.5318 82.8346C72.7956 78.08 74.21 72.5771 78.2068 68.1599C85.666 59.9166 95.027 54.8377 93.7242 54.3262Z" fill="white"/>
<path fill-rule="evenodd" clip-rule="evenodd" d="M57.4618 69.6916C56.2651 70.6539 54.4889 78.458 54.4586 78.5883C53.8312 81.261 53.2264 90.5418 53.8445 92.2989C54.463 94.0561 56.1938 87.7223 56.1938 87.7223C56.1938 87.7223 58.8107 94.5169 61.123 96.3799C61.2216 96.4594 58.3747 87.9732 57.4618 83.0192C56.2565 76.4798 58.1425 69.1441 57.4618 69.6916Z" fill="#E7EAEE"/>
<path fill-rule="evenodd" clip-rule="evenodd" d="M102.059 206.371C104.289 205.883 108.054 204.183 109.495 203.602C110.937 203.021 115.329 196.819 116.909 189.824C118.048 184.665 118.629 177.321 117.978 176.089C117.882 175.914 117.53 172.575 118.466 173.665C120.546 176.089 123.015 179.894 130.806 173.076C132.928 171.218 135.741 168.822 135 166.703C132.928 160.775 123.946 148.837 122.577 147.933C120.94 146.851 112.665 147.77 100.351 144.135C86.3849 140.013 80.5698 127.876 75.1046 129.456C70.6849 130.733 60.0955 138.586 57.438 143.558C44.8913 167.035 60.0955 183.484 63.558 188.209L66.92 189.661L67.0363 192.659L67.1987 194.541C67.5011 198.144 67.617 198.469 69.2438 199.678C73.3108 202.769 81.3287 205.65 88.5794 206.673C91.9494 207.138 99.27 206.975 102.059 206.371Z" fill="white"/>
<path fill-rule="evenodd" clip-rule="evenodd" d="M68.242 191.562L68.4047 193.444C68.7071 197.046 68.823 197.371 70.4498 198.58C72.8492 200.403 76.6235 202.154 80.8038 203.493C83.7097 204.424 86.8122 205.156 89.7854 205.575C93.1554 206.04 100.476 205.877 103.265 205.273C104.643 204.974 93.3044 196.066 86.6246 198.58C81.495 200.51 69.4048 185.787 74.3206 181.94C79.835 177.625 69.7302 160.605 69.4048 156.91C69.0793 153.215 67.7981 152.333 67.7606 152.462C67.7232 152.592 67.7232 153.034 67.8236 154.099C68.2574 158.69 68.242 191.562 68.242 191.562Z" fill="#E7EAEE"/>
<path fill-rule="evenodd" clip-rule="evenodd" d="M67.0316 155.856C67.5194 155.761 67.9918 156.079 68.0868 156.568C69.8407 165.578 77.26 171.679 90.5263 174.869C103.872 178.078 112.962 177.905 117.752 174.48C118.156 174.191 117.855 176.667 117.558 176.857C114.435 178.86 103.814 181.849 91.1387 179.148C74.9326 175.693 67.3232 162.066 66.3199 156.911C66.2252 156.424 66.5435 155.951 67.0316 155.856Z" fill="#FFB61D"/>
<path fill-rule="evenodd" clip-rule="evenodd" d="M60.2734 139.597C60.705 139.35 76.801 157.797 98.8906 161.973C120.98 166.149 126.328 163.493 127.188 157.797C127.262 157.306 127.721 156.968 128.212 157.042C128.704 157.116 129.042 157.574 128.968 158.066C127.878 165.285 117.657 167.001 98.5878 163.747C79.758 160.534 66.8484 152.9 59.9393 140.825C59.6923 140.393 59.8421 139.843 60.2734 139.597Z" fill="#FFB61D"/>
<path fill-rule="evenodd" clip-rule="evenodd" d="M152.987 138.574C152.382 138.365 151.732 137.901 151.313 137.366L150.616 136.506L153.08 134.066C156.868 130.347 159.773 126.536 162.283 122.004C163.119 120.494 165.234 115.451 165.234 114.963C165.234 114.8 165.49 114.149 165.792 113.475C166.257 112.499 166.605 112.127 167.604 111.57C168.79 110.872 170.138 110.64 170.718 111.035C171.834 111.779 171.834 114.126 170.718 118.17C169.487 122.608 167.837 125.792 164.421 130.371C163.886 131.068 162.887 132.439 162.166 133.392C160.237 135.948 158.982 137.18 157.286 138.133C155.613 139.062 154.637 139.179 152.987 138.574ZM169.673 136.483L171.346 137.227C171.693 137.386 175.521 139.226 180.118 141.435C187.531 144.997 196.946 149.52 197.003 149.52C197.096 149.52 197.532 148.512 197.63 147.336C197.863 144.803 198.723 141.363 199.722 138.969C200.187 137.901 200.559 136.564 200.559 136.448C200.559 136.395 200.181 136.243 199.562 135.993C198.826 135.696 197.749 135.262 196.561 134.693C190.705 131.881 179.248 126.141 177.83 125.281C176.436 124.468 176.157 124.398 176.157 124.933C176.157 125.63 174.739 128.86 173.647 130.603C173.066 131.556 171.927 133.276 171.114 134.414L169.673 136.483ZM196.608 145.337C197.274 145.723 196.12 146.29 195.841 146.383C194.199 146.523 192.266 146.214 190.682 145.291C189.854 144.703 183.332 141.08 179.006 138.677C177.029 137.579 175.51 136.735 175.204 136.553C174.228 135.972 173.298 135.344 173.136 135.158C172.648 134.531 173.112 134.252 174.483 134.368C175.308 134.438 195.168 144.503 196.608 145.337ZM102.138 206.179C103.931 205.787 106.713 204.612 108.485 203.865C108.919 203.682 109.291 203.525 109.575 203.41C111.016 202.829 115.408 196.628 116.988 189.632C118.127 184.473 118.708 177.129 118.057 175.897C117.665 175.184 119.996 177.577 121.731 179.359C122.258 179.9 122.729 180.384 123.054 180.708C133.186 190.771 148.269 198.859 163.932 202.646C171.741 204.552 177.296 205.226 184.756 205.226C197.282 205.226 207.159 202.763 216.129 197.348C216.555 197.091 216.955 196.854 217.335 196.629C220.462 194.778 222.325 193.675 227.424 187.936C233.143 181.498 238.23 166.555 239.927 161.396C240.67 159.072 242.483 149.828 242.483 147.522C242.483 144.791 241.53 143.501 240.229 142.177C237.928 139.922 234.814 139.109 232.235 140.085L231.026 140.55L230.654 139.318C230.12 137.459 229.004 135.972 227.285 134.856C224.728 133.159 224.356 133.043 222.056 133.043C220.266 133.043 219.778 133.136 218.639 133.671L217.314 134.275L217.036 133.438C216.501 131.719 214.708 129.321 213.317 128.628C212.084 128.013 209.948 127.956 208.46 128.233C205.206 128.837 202.883 130.347 201.93 132.462C201.651 133.113 201.302 133.624 201.163 133.624C201.047 133.624 196.469 132.346 191.007 129.929C190.086 129.52 189.22 129.136 188.408 128.776C178.601 124.429 176.475 123.487 176.668 122.306C176.831 121.307 176.784 120.749 176.505 119.889C176.017 118.449 175.46 118.054 173.879 118.054C172.624 118.054 172.624 118.054 172.764 117.426C173.507 113.871 173.484 111.825 172.694 110.524C172.16 109.664 171.532 109.315 170.091 109.106C169.254 108.99 168.859 109.06 167.93 109.571C167.302 109.896 166.768 110.129 166.721 110.082C166.675 110.036 166.838 108.758 167.093 107.247C168.999 96.0685 167.527 86.4374 162.67 76.212C162.623 76.1141 162.569 75.9985 162.508 75.866C161.031 72.6959 155.093 59.9486 138.113 53.5165C137.345 53.2253 136.617 52.9437 135.918 52.6734C130.134 50.4345 126.289 48.9459 117.012 48.9614C106.613 48.9787 103.091 50.4489 96.2348 53.5863C95.2823 54.0277 94.4456 54.2833 94.3758 54.1904C94.306 54.0741 93.8646 53.7955 93.4229 53.5629C92.9815 53.3307 92.0286 52.7497 91.3313 52.2849C89.3326 50.9367 88.101 50.3791 87.4735 50.5184C86.7532 50.7045 86.7532 51.3086 87.4735 51.5876C87.7756 51.7039 88.1244 52.0988 88.2637 52.4941C88.5658 53.3307 88.9142 53.4236 89.1234 52.7263C89.2166 52.4707 89.356 52.2849 89.4258 52.3314C89.4521 52.3443 89.5406 52.3861 89.6756 52.4491C90.0155 52.6082 90.6494 52.9052 91.3313 53.2375C92.2842 53.7023 93.33 54.1904 93.609 54.3067C94.1202 54.4925 93.9575 54.6321 91.7496 55.9335C83.1276 60.9998 76.1094 68.8781 72.1818 77.8485C71.5774 79.1964 71.0431 80.033 70.4851 80.4981C69.0674 81.6833 66.2789 85.0529 65.628 86.3777C65.2795 87.098 64.5358 88.2137 63.9547 88.8642C63.3971 89.5151 62.7926 90.3517 62.5835 90.7002C62.3977 91.0721 62.212 91.3277 62.1421 91.2812C62.0957 91.2114 62.1652 90.0727 62.3279 88.7483C62.6767 85.6573 62.6767 84.8437 62.3977 84.7742C61.9794 84.6579 61.3753 86.2848 61.1194 88.3065C60.9336 89.5381 60.8872 91.3975 61.0034 93.303L61.1428 96.3245L59.4929 93.6518C58.9255 92.7579 58.3668 91.8644 57.9697 91.2297V91.2294H57.9694V91.229L57.9686 91.2276L57.9679 91.2269V91.2265L57.9676 91.2262L57.9668 91.2251C57.7152 90.8222 57.5287 90.5245 57.4477 90.3981C56.8433 89.5151 56.4948 88.1903 56.7504 87.7489C56.8897 87.4933 56.8667 87.377 56.6341 87.377C56.1463 87.377 55.1934 88.934 54.5659 90.7236C54.2639 91.5602 53.9615 92.2572 53.8686 92.2572C53.5201 92.2572 53.6828 83.9376 54.0547 81.2649C54.8215 75.9895 56.8433 69.4821 57.7498 69.4821C57.9355 69.4821 58.0982 69.3893 58.0982 69.2499C58.0982 68.8316 57.4942 68.9943 57.006 69.5289C55.9138 70.7141 54.473 74.3627 53.5666 78.2438C52.9391 80.9165 52.5442 84.3559 52.4045 88.0974C52.2886 91.3277 52.335 91.8623 52.7998 93.6284C53.3344 95.6038 53.7527 96.1848 54.473 95.9062C54.7286 95.8129 54.8449 95.4644 54.8449 94.8135C54.8449 94.3023 55.1236 92.7687 55.4724 91.3975L56.0765 88.934L56.3321 89.9564C56.6575 91.1419 58.563 94.8139 60.2827 97.4862C61.4682 99.2992 61.4912 99.4151 61.8865 102.25C62.0957 103.854 62.7462 107.754 64.2568 113.754C65.5916 119.056 73.0948 124.314 74.9686 125.627L74.9696 125.628C75.2159 125.801 75.3646 125.905 75.3887 125.932C75.6212 126.188 75.9467 126.327 76.1324 126.257C76.3416 126.188 76.4579 126.28 76.4579 126.536C76.4579 126.769 76.6206 127.071 76.8064 127.21C77.0389 127.373 77.2016 128 77.2481 129.092C77.3644 131.277 78.9908 135.46 80.2458 136.831C81.0594 137.714 82.7557 138.086 84.6382 137.761C85.8701 137.575 86.2186 137.436 86.1023 137.157C86.0328 136.971 86.4742 137.203 87.0786 137.668C94.1432 143.06 101.301 146.29 109.342 147.684C112.456 148.219 117.616 148.521 120.428 148.312C122.914 148.149 122.914 148.149 122.798 148.637C122.635 149.288 122.845 149.683 126.261 155.47C128.98 160.048 129.212 160.35 132.233 163.441C138.648 170.064 145.643 175.2 153.568 179.175C161.028 182.893 172.938 185.984 183.826 186.96C194.714 187.936 202.534 177.943 202.511 175.386C202.464 171.877 201.976 169.576 200.791 167.345C199.629 165.184 198.862 164.44 195.376 162.116C191.495 159.537 189.102 157.422 187.521 155.168C186.522 153.75 186.15 152.146 186.15 151.286C186.15 150.729 186.87 149.474 187.939 149.218C188.915 148.963 189.102 148.986 190.194 149.52C190.844 149.822 192.541 150.612 193.935 151.286C195.353 151.937 196.724 152.588 197.003 152.727C197.825 152.956 198.173 154.565 198.361 155.438C198.403 155.632 198.437 155.79 198.467 155.888C198.792 157.096 200.332 158.657 201.326 159.188C203.07 160.121 207.368 160.246 208.553 158.968C208.856 158.642 209.857 158.242 210.064 158.363C210.27 158.485 211.017 159.49 211.017 160.304C211.04 161.698 211.76 162.976 213.294 164.254C216.199 166.671 218.453 167.252 220.731 166.183C221.916 165.626 222.888 165.408 222.888 165.408C222.888 165.408 223.856 166.644 223.915 167.066C224.371 170.368 229.26 171.752 230.561 171.892C230.859 171.922 231.44 171.794 232.029 171.665C232.818 171.491 233.622 171.314 233.792 171.505C234.123 171.88 228.237 181.615 227.424 182.846C219.685 194.466 204.625 201.578 186.196 202.321C174.228 202.809 159.517 199.463 146.758 193.374C138.601 189.446 131.374 184.636 123.635 177.896C122.287 176.734 120.73 175.41 120.172 174.945C119.614 174.503 118.29 172.993 117.267 171.598C115.547 169.274 114.571 168.438 114.571 169.228C114.571 169.576 115.687 171.714 116.965 173.829C117.476 174.666 117.801 175.247 117.685 175.154C117.569 175.061 117.197 176.734 116.849 178.872C115.71 185.728 113.827 192.491 111.922 196.697C110.876 198.975 108.871 200.676 108.266 201.14C106.035 202.837 102.696 203.599 98.0708 204.064C92.2144 204.645 83.5924 203.344 77.0155 200.88C75.2728 200.23 70.7872 198.347 70.4851 198.138C70.4671 198.12 70.3642 197.451 70.2205 196.518C70.1798 196.255 70.1363 195.971 70.0902 195.675C69.2536 189.935 68.0915 167.833 68.0915 157.608C68.0915 153.378 68.045 152.448 67.766 152.448C67.185 152.448 66.9528 153.006 66.6972 155.005C66.1162 159.56 66.2324 183.334 66.8599 188.331L66.9992 189.47L66.209 189.028C65.0005 188.331 60.399 183.66 58.7956 181.498C57.438 179.65 56.6312 177.284 56.0275 175.514C55.8871 175.102 55.7579 174.722 55.6348 174.389C52.2652 165.047 53.4503 154.563 58.0982 145.128C62.0492 137.087 66.9064 132.625 74.0178 130.464C75.1795 130.115 76.2023 129.743 76.3186 129.65C76.7599 129.232 73.9246 129.441 72.3676 129.929C67.3013 131.486 62.0028 135.739 58.4006 141.177C53.3344 148.8 51.0566 160.048 52.6601 169.646C53.032 171.923 54.5425 176.85 54.9608 177.199C54.9979 177.236 55.1891 177.637 55.4782 178.244C56.2777 179.92 57.8257 183.168 58.9349 184.636C60.2827 186.472 64.35 190.469 66.0463 191.701L67.1155 192.468L67.2782 194.35C67.5803 197.952 67.6966 198.278 69.323 199.486C73.3903 202.577 81.4079 205.458 88.6586 206.481C92.0286 206.946 99.3492 206.783 102.138 206.179ZM180.689 184.357C167.186 183.172 150.872 176.734 139.066 166.787C134.093 162.581 127.632 154.401 125.076 149.869C124.541 148.939 124.146 148.498 123.681 148.382C123.193 148.242 123.611 148.103 125.61 147.777C134.046 146.336 142.25 142.827 148.873 137.831L149.849 137.11L150.128 137.784C150.756 139.295 153.172 140.829 154.962 140.829C155.682 140.829 158.099 139.737 159.564 138.737L160.563 138.063L161.376 138.876C162.12 139.62 162.259 139.667 163.654 139.667C165.257 139.667 167.186 138.946 168.255 137.924L168.836 137.389L170.486 138.482C171.369 139.109 173.833 140.48 175.947 141.572C179.108 143.199 182.455 145.081 185.639 147.034L186.15 147.359L185.662 148.01C185.151 148.707 184.198 150.031 184.198 152.054C184.198 154.331 186.566 158.423 191.1 161.233C194.662 163.441 200.791 167.784 200.559 174.131C200.53 174.898 199.675 176.804 198.537 178.524C197.793 179.616 195.725 181.243 193.842 182.196C190.635 183.799 184.988 184.729 180.689 184.357ZM56.7738 80.033C57.4013 80.1727 57.8196 80.3819 57.7264 80.4747C57.4243 80.7768 55.8209 80.6375 55.449 80.2656C54.868 79.7079 55.0073 79.3127 55.8209 79.1499C56.2392 79.0805 56.8667 78.7316 57.2152 78.3831C57.564 78.0347 57.866 77.8719 57.866 77.9882C57.866 78.2903 56.704 79.3591 56.1229 79.5917C55.751 79.7544 55.8673 79.8239 56.7738 80.033ZM66.0233 80.4049C66.6972 80.033 66.5575 79.7774 65.7673 79.8937C64.9775 80.01 64.931 79.9171 65.4422 79.1269C65.6514 78.8249 65.7673 78.3831 65.7209 78.1506C65.6514 77.8485 65.4887 77.9882 65.1168 78.7316C64.8378 79.2662 64.4429 79.7079 64.2568 79.7079C63.6761 79.7079 63.6293 80.1727 64.1873 80.3819C64.9076 80.6839 65.4653 80.6839 66.0233 80.4049ZM57.9823 67.716C57.4243 67.8089 55.6816 68.5062 54.1476 69.273C52.5906 70.0167 51.2658 70.6442 51.1729 70.6212C48.8023 70.3656 52.1024 66.4146 58.0982 62.3711C63.8384 58.4899 67.7196 56.4447 71.3218 55.3989C73.5761 54.7481 76.1094 54.6552 76.8298 55.1898C77.2247 55.4918 77.0854 55.5152 75.3656 55.5383C71.6472 55.5383 67.3477 57.4441 60.3526 62.1151C56.7274 64.5321 52.5208 67.995 52.5208 68.5526C52.5208 68.6689 53.1947 68.4363 54.0313 68.0648C55.8209 67.2512 57.6569 66.8329 58.4701 67.019C59.3302 67.2512 59.144 67.5533 57.9823 67.716ZM66.9758 69.7147C69.1607 69.273 69.2536 69.2499 69.2536 69.0174C69.2536 68.9015 68.4169 68.7852 67.3711 68.7387L65.4887 68.6689L67.2314 66.6936C68.1844 65.6013 69.3 64.5091 69.6949 64.2535C70.555 63.6955 70.6014 63.3006 69.9041 63.068L69.3698 62.9053L69.9505 62.6961C70.276 62.5802 70.8804 62.5334 71.2987 62.6033C71.9262 62.6961 72.0655 62.6497 71.9957 62.3243C71.9262 61.9992 71.6706 61.9293 70.5316 61.9527C67.2084 61.9992 65.7907 62.8823 68.3935 63.3006C69.1139 63.4169 69.7183 63.6026 69.7183 63.7189C69.7183 63.8118 69.602 63.9047 69.4627 63.9047C69.021 63.9047 65.2795 67.6929 64.8148 68.6225C64.0944 69.9937 64.4893 70.2029 66.9758 69.7147ZM82.3144 60.6978C81.6404 60.7442 81.4777 60.8601 81.5242 61.1856L81.5314 61.2331C81.5573 61.4048 81.5724 61.5038 81.5339 61.5337C81.4817 61.574 81.3323 61.4894 80.9809 61.29L80.9197 61.2554C80.4784 61.0229 80.4319 60.9069 80.6875 60.7208C80.8502 60.5815 81.2916 60.3723 81.6404 60.3025L82.291 60.1398L81.8032 59.6286C81.5472 59.3265 81.4079 59.0475 81.4777 58.9547C81.6635 58.7689 83.9412 59.0245 84.2663 59.2801C84.406 59.396 84.6151 59.373 84.7544 59.2337C85.0799 58.9082 85.5212 59.1638 85.5212 59.675C85.5212 59.954 85.4518 59.9771 85.2426 59.7679C85.0565 59.5821 84.8938 59.5821 84.6846 59.7449C84.4988 59.9076 84.3595 59.9076 84.2432 59.7215C84.1734 59.6052 83.732 59.4893 83.2673 59.4893C82.8382 59.4893 82.6355 59.4893 82.5941 59.571C82.557 59.6441 82.6499 59.783 82.8256 60.0469C83.1964 60.6261 83.1744 60.6279 82.3223 60.6971L82.3144 60.6978ZM78.7817 54.5159C78.7817 54.2138 78.503 53.6792 78.1542 53.3307L77.5037 52.6799L80.9896 52.8192C82.9184 52.9124 85.1029 53.1216 85.8701 53.3307C86.6369 53.5165 87.52 53.6558 87.8454 53.6558C88.3336 53.6558 88.2403 53.5629 87.3342 53.0748C85.7538 52.2615 83.732 51.8666 79.8509 51.5876C75.2029 51.2622 72.8557 51.7039 73.2971 52.8656C73.3669 53.0982 73.7388 53.2145 74.2964 53.2145C75.4351 53.2145 77.2945 53.8884 77.922 54.5159C78.5959 55.1898 78.7817 55.1898 78.7817 54.5159ZM67.4406 116.055C69.323 118.472 71.8099 121.214 72.972 122.144C73.669 122.702 74.2734 123.166 74.3198 123.166C74.3429 123.166 73.8317 122.097 73.1812 120.796C70.555 115.567 69.021 110.361 68.3006 104.365C68.1379 103.041 67.8823 101.925 67.6033 101.46C67.0457 100.531 67.0457 99.3222 67.6267 98.1835C67.9288 97.5794 68.0915 96.8123 68.0915 95.9756V94.6976L66.9758 95.8593C65.8836 96.9984 64.8378 97.4632 64.8378 96.7658C64.8378 96.2546 66.5575 93.7911 67.464 93.0243C68.1844 92.4199 68.2772 92.2107 68.5098 90.3981C68.6725 89.3059 69.0444 87.377 69.3464 86.0987C69.6719 84.8207 69.8576 83.7284 69.8112 83.682C69.6485 83.5193 64.1873 89.7915 63.4435 91.7924C63.2801 92.232 62.8394 93.001 62.4906 93.4657L61.8865 94.2415C61.8865 94.2415 62.0741 95.328 62.2814 96.6931C62.491 98.0726 62.5892 99.0209 62.6771 99.8654C62.7941 100.995 62.892 101.939 63.211 103.482C63.5828 105.388 63.9547 107.038 64.0476 107.154C64.1174 107.294 64.4195 108.363 64.7219 109.548C65.3724 112.174 66.4646 114.777 67.4406 116.055ZM161.748 138.04L161.26 137.552C161.26 137.552 169.36 127.26 170.812 123.468C171.919 120.575 172.571 119.754 173.451 119.754C173.943 119.754 174.344 119.866 174.53 120.145C174.855 120.633 175.169 121.238 174.75 123.306C174.054 126.652 172.984 128.86 169.777 133.624C169.034 134.717 168.081 135.925 167.662 136.344C166.686 137.25 164.49 138.179 163.212 138.388C162.399 138.505 162.166 138.458 161.748 138.04Z" fill="#00160A"/>
<path d="M226.099 160.775C228.991 152.897 228.553 151.219 228.051 151.055C228.051 151.055 226.947 151.682 226.459 153.007C225.553 155.494 222.45 162.001 221.289 163.163C219.918 164.534 219.918 164.534 218.523 164.534C217.129 164.534 213.107 162.434 212.559 160.364C211.684 157.052 215.455 145.547 215.548 144.896L214.921 144.455C214.502 144.85 209.061 161.35 201.907 157.051C201.087 156.558 199.35 154.239 199.211 153.007C198.436 149.428 201.99 136.913 202.594 134.343C203.135 132.042 205.95 129.907 209.413 129.907C214.735 129.907 214.02 134.559 216.404 136.198C217.46 136.924 219.196 135.607 219.731 135.507C222.729 134.95 223.878 135.599 226.076 137.343C227.772 138.69 229.028 141.354 230.409 142.293C231.177 142.815 231.991 142.102 232.258 141.968C233.351 141.419 235.697 141.828 236.348 142.293C237.302 142.709 239.64 144.957 240.009 146.263C241.683 152.187 236.398 165.319 234.402 167.782C231.099 171.86 223.208 168.652 226.099 160.775Z" fill="white"/>
<path fill-rule="evenodd" clip-rule="evenodd" d="M92.4934 139.189C98.861 143.21 105.427 145.836 112.91 146.556C118.813 147.114 126.772 146.347 132.489 144.488C137.3 142.931 143.807 138.618 148.153 134.969C156.589 127.904 161.911 116.869 164.235 105.156C164.56 103.506 165.056 99.3582 165.033 95.2448C165.033 90.4572 162.926 77.3748 156.542 69.8313C143.376 54.2729 121.733 47.2644 103.544 53.253C96.9818 55.413 89.9957 59.3269 84.7202 64.4396C78.0736 70.9236 73.17 79.7547 71.2181 88.7717C69.1729 98.3001 71.8333 109.688 76.4579 119.03C80.1529 126.467 86.242 135.216 92.4934 139.189ZM154.544 111.105C150.175 124.236 138.787 134.043 124.471 137.018C122.287 137.459 120.776 137.622 117.708 137.668C115.547 137.738 113.386 137.715 112.945 137.668C102.928 136.46 95.3053 132.765 88.2871 125.746C85.2192 122.656 83.9178 120.982 82.0123 117.682C79.0142 112.453 77.4108 107.108 76.9226 100.67C75.2494 78.6161 91.0292 60.233 113.247 58.3275C121.962 57.5838 131.629 60.2564 138.973 65.462C141.692 67.3909 146.619 72.2714 148.153 74.5488C148.78 75.4553 154.869 84.3563 155.938 89.469C157.309 96.1157 156.775 104.435 154.544 111.105Z" fill="white"/>
<path fill-rule="evenodd" clip-rule="evenodd" d="M165.041 95.2441C165.041 110.843 157.663 127.897 148.14 135.18C143.597 138.655 137.659 142.862 132.489 144.488C124.912 146.87 112.91 146.556 112.91 146.556C112.91 146.556 125.154 144.919 129.692 143.093C142.703 137.857 149.806 129.818 154.192 122.106C162.85 106.882 165.041 94.8654 165.041 95.2441Z" fill="#E7EAEE"/>
<path fill-rule="evenodd" clip-rule="evenodd" d="M113.177 134.879C106.972 134.089 100.813 131.881 95.8399 128.605C92.8886 126.676 88.4264 122.144 86.265 118.914C83.1744 114.266 81.1292 109.292 80.1299 103.947C79.4095 100.066 79.4326 94.0935 80.1529 90.6307C80.8967 87.0984 81.8496 84.4024 83.5459 80.9863C85.5216 77.0353 87.6132 74.1305 90.7502 70.9931C96.0955 65.6478 102.3 62.2548 109.691 60.6279C112.085 60.1167 120.753 59.6984 121.055 60.0937C121.125 60.2096 121.59 60.512 122.078 60.7676C122.566 61.0463 123.867 62.0226 124.936 62.9751C126.54 64.3698 127.26 65.2529 128.655 67.4374C129.608 68.9249 130.374 70.2727 130.374 70.389C130.374 70.6446 131.118 71.1094 131.536 71.1094C132.117 71.1094 132.512 69.3662 132.629 66.2987C132.698 64.602 132.838 63.2077 132.931 63.2077C133.256 63.2077 136.835 65.183 138.508 66.2987C141.785 68.4831 145.062 71.5507 147.479 74.7579C148.571 76.1987 148.734 76.5706 148.734 77.4536C148.734 78.2672 148.966 78.8947 149.687 80.1497C151.5 83.3101 152.917 87.2841 153.777 91.6765C154.335 94.6281 154.335 100.206 153.753 103.297C152.173 111.802 147.479 120.262 141.367 125.63C136.184 130.162 130.676 132.951 124.169 134.322C121.938 134.81 115.245 135.135 113.177 134.879ZM96.5603 118.983C96.7694 118.751 96.9091 118.402 96.8393 118.24C96.8184 118.191 96.5272 118.054 96.1013 117.854C95.1084 117.387 93.3822 116.576 92.6341 115.73C89.6594 112.337 88.5672 109.804 87.8933 104.575C87.2424 99.4853 87.7892 96.0444 88.9621 90.5144C89.5345 87.8169 91.0555 85.5885 92.0016 84.2025C92.6453 83.2597 93.0229 82.7064 92.6561 82.6596C91.7496 82.5199 91.6103 82.5898 90.6574 83.4962C88.6122 85.4482 87.6827 87.0051 86.7067 90.0032C85.1962 94.6976 84.9042 107.384 87.8933 113.104C90.8824 118.823 96.0257 119.588 96.5603 118.983ZM129.608 99.4619C129.213 103.072 127.539 108.293 125.587 110.57C124.681 111.64 121.353 113.476 118.545 113.104C115.833 112.744 113.711 111.477 111.899 108.758C110.341 106.411 109.538 103.562 108.994 99.9731C108.055 93.7767 112.154 86.5638 113.921 84.7742C115.71 82.9382 116.988 82.2877 118.615 82.2643C120.195 82.2643 121.218 82.6131 122.822 83.7518C125.75 85.797 130.374 92.4465 129.608 99.4619ZM98.28 80.2425C98.7448 79.7079 98.8146 79.4524 98.6753 78.453C98.5824 77.5235 98.3963 77.1516 97.9081 76.7567C97.0484 76.0593 95.9792 76.0593 95.1894 76.8031C94.6314 77.3377 94.5619 77.5235 94.6314 78.8015C94.7012 80.1727 94.7477 80.2656 95.5145 80.6839C96.5372 81.2419 97.5366 81.0792 98.28 80.2425ZM112.782 65.9034C108.599 68.9015 106.786 70.133 104.904 71.2951C103.416 72.2246 102.951 72.248 102.951 71.4114C102.951 70.9697 103.277 70.4819 104.113 69.7147L105.275 68.6459L103.021 68.3438C100.488 68.0184 98.0244 67.3211 97.4898 66.7865C96.6067 65.8804 97.3739 65.6712 99.8838 66.1359C100.999 66.3217 103.161 66.5543 104.694 66.6007L107.483 66.717L109.505 65.2529C113.944 62.0456 118.545 60.233 120.753 60.7907C122.124 61.1161 121.962 61.488 120.405 61.6737C118.615 61.8829 117.523 62.4874 112.782 65.9034Z" fill="white"/>
<path d="M118.754 109.92C118.754 109.804 118.894 109.688 119.08 109.688C119.265 109.688 119.498 109.804 119.568 109.92C119.637 110.059 119.498 110.152 119.242 110.152C118.963 110.152 118.754 110.059 118.754 109.92Z" fill="white"/>
<path d="M120.149 109.71C120.149 109.454 120.73 109.222 121.38 109.222C121.892 109.245 121.892 109.245 121.45 109.571C120.939 109.966 120.149 110.035 120.149 109.71Z" fill="white"/>
<path d="M116.547 109.106C116.477 108.92 116.384 108.595 116.314 108.409C116.244 108.177 116.361 108.06 116.663 108.06C116.918 108.06 117.127 108.2 117.127 108.386C117.127 108.572 117.197 108.874 117.267 109.083C117.36 109.339 117.29 109.455 117.035 109.455C116.825 109.455 116.593 109.292 116.547 109.106Z" fill="white"/>
<path d="M117.778 108.524C117.662 107.828 117.918 107.595 118.754 107.595C119.01 107.595 119.219 107.828 119.312 108.222C119.498 108.896 119.196 109.222 118.382 109.222C118.011 109.222 117.848 109.059 117.778 108.524Z" fill="white"/>
<path d="M115.408 108.641C114.966 108.292 114.966 108.292 115.454 108.292C115.757 108.292 115.966 108.432 115.966 108.641C115.966 109.059 115.966 109.059 115.408 108.641Z" fill="white"/>
<path d="M120.079 108.617C119.777 108.315 119.916 107.409 120.288 107.27C120.962 107.014 121.264 107.13 121.404 107.734C121.497 108.083 121.543 108.385 121.497 108.408C121.311 108.617 120.218 108.757 120.079 108.617Z" fill="white"/>
<path d="M122.147 108.131C122.078 108.061 122.008 107.759 122.008 107.48C122.008 107.085 122.194 106.922 122.752 106.806C123.24 106.713 123.542 106.76 123.681 106.946C123.914 107.317 123.914 107.782 123.705 107.898C123.286 108.131 122.31 108.27 122.147 108.131Z" fill="white"/>
<path d="M114.339 107.41C114.339 107.131 114.548 106.899 114.85 106.829C115.455 106.666 115.431 106.643 115.547 107.247C115.594 107.596 115.478 107.735 114.989 107.782C114.478 107.851 114.339 107.758 114.339 107.41Z" fill="white"/>
<path d="M116.105 107.433C115.78 107.084 115.989 106.433 116.43 106.433C116.733 106.433 116.895 106.596 116.895 106.875C116.895 107.317 116.361 107.688 116.105 107.433Z" fill="white"/>
<path d="M117.499 106.736C117.314 106.295 117.708 105.969 118.475 105.969C118.824 105.969 118.987 106.109 118.987 106.411C118.987 106.667 118.778 106.899 118.475 106.992C117.708 107.178 117.662 107.178 117.499 106.736Z" fill="white"/>
<path d="M124.216 106.666C124.285 106.55 124.402 106.433 124.471 106.433C124.541 106.433 124.518 106.55 124.448 106.666C124.379 106.805 124.262 106.898 124.192 106.898C124.123 106.898 124.146 106.805 124.216 106.666Z" fill="white"/>
<path d="M119.591 106.271C119.405 105.806 119.637 105.574 120.381 105.457C120.799 105.411 120.986 105.504 121.032 105.829C121.195 106.596 119.87 107.015 119.591 106.271Z" fill="white"/>
<path d="M114.013 105.876C113.804 105.11 113.851 105.04 114.455 105.04C114.78 105.04 115.036 105.133 115.036 105.249C115.036 105.365 115.106 105.621 115.176 105.807C115.245 106.039 115.106 106.179 114.711 106.248C114.269 106.341 114.106 106.248 114.013 105.876Z" fill="white"/>
<path d="M121.775 105.62C121.775 105.202 121.938 105.016 122.38 104.899C123.03 104.737 123.402 105.062 123.402 105.806C123.402 106.108 123.216 106.201 122.589 106.201C121.868 106.201 121.775 106.131 121.775 105.62Z" fill="white"/>
<path d="M113.316 105.62C113.247 105.435 113.293 105.272 113.409 105.272C113.549 105.272 113.642 105.435 113.642 105.62C113.642 105.807 113.595 105.969 113.549 105.969C113.502 105.969 113.409 105.807 113.316 105.62Z" fill="white"/>
<path d="M115.663 105.807C115.338 105.504 115.524 104.854 115.942 104.737C116.198 104.668 116.454 104.691 116.523 104.761C116.802 105.016 116.64 105.69 116.291 105.83C115.849 105.992 115.849 105.992 115.663 105.807Z" fill="white"/>
<path d="M123.96 105.644C123.704 104.97 123.983 104.459 124.634 104.389C125.122 104.319 125.262 104.412 125.262 104.784C125.262 105.551 125.006 105.969 124.541 105.969C124.285 105.969 124.03 105.83 123.96 105.644Z" fill="white"/>
<path d="M117.29 105.341C117.012 105.086 117.104 104.621 117.499 104.482C117.941 104.319 118.871 104.784 118.615 105.039C118.29 105.318 117.453 105.527 117.29 105.341Z" fill="white"/>
<path d="M119.312 104.76C119.103 104.435 119.847 103.877 120.451 103.877C120.73 103.877 120.846 104.016 120.799 104.272C120.707 104.737 119.521 105.108 119.312 104.76Z" fill="white"/>
<path d="M112.944 104.598C112.944 104.481 112.875 104.226 112.805 104.017C112.735 103.807 112.758 103.645 112.898 103.645C113.2 103.645 113.432 104.528 113.153 104.714C113.037 104.784 112.944 104.737 112.944 104.598Z" fill="white"/>
<path d="M113.572 104.064C113.432 103.553 113.711 103.181 114.246 103.181C114.548 103.181 114.85 104.087 114.664 104.389C114.408 104.784 113.688 104.552 113.572 104.064Z" fill="white"/>
<path d="M115.199 104.179C114.85 103.83 115.059 102.994 115.524 102.878C115.872 102.785 116.059 102.901 116.244 103.319C116.384 103.621 116.454 103.923 116.407 103.97C116.175 104.179 115.338 104.342 115.199 104.179Z" fill="white"/>
<path d="M121.473 104.18C121.171 103.878 121.311 103.692 122.008 103.436C122.589 103.25 122.752 103.273 122.868 103.552C123.077 104.11 121.915 104.644 121.473 104.18Z" fill="white"/>
<path d="M123.519 103.644C123.286 103.273 123.611 102.947 124.215 102.947C124.936 102.947 125.145 103.551 124.494 103.738C123.797 103.923 123.681 103.9 123.519 103.644Z" fill="white"/>
<path d="M125.494 103.087C125.494 102.739 125.912 102.367 126.098 102.552C126.261 102.715 125.936 103.412 125.703 103.412C125.587 103.412 125.494 103.273 125.494 103.087Z" fill="white"/>
<path d="M112.642 102.785C112.549 102.716 112.479 102.414 112.503 102.158C112.503 101.716 112.526 101.716 112.735 102.228C112.968 102.785 112.921 103.064 112.642 102.785Z" fill="white"/>
<path d="M113.084 102.437C112.875 101.623 112.898 101.554 113.502 101.554C114.176 101.554 114.594 102.414 114.083 102.739C113.549 103.064 113.247 102.972 113.084 102.437Z" fill="white"/>
<path d="M121.078 102.901C121.078 102.832 121.194 102.46 121.334 102.042C121.659 101.112 122.38 101.065 122.543 101.972C122.612 102.32 122.635 102.623 122.612 102.646C122.496 102.785 121.078 102.994 121.078 102.901Z" fill="white"/>
<path d="M114.734 102.321C114.641 102.251 114.571 101.972 114.571 101.717C114.571 101.345 114.641 101.322 114.92 101.554C115.106 101.717 115.268 101.996 115.268 102.158C115.268 102.507 114.989 102.6 114.734 102.321Z" fill="white"/>
<path d="M123.1 101.856C122.961 101.135 123.263 100.81 123.983 100.903C124.332 100.949 124.448 101.158 124.448 101.67C124.448 102.251 124.355 102.39 123.844 102.437C123.333 102.506 123.216 102.39 123.1 101.856Z" fill="white"/>
<path d="M125.378 101.948C125.076 101.019 125.168 100.74 125.796 100.67C126.354 100.6 126.423 100.67 126.423 101.274C126.423 101.786 126.284 101.995 125.935 102.088C125.68 102.158 125.424 102.088 125.378 101.948Z" fill="white"/>
<path d="M112.294 100.624C112.294 100.182 112.34 99.9961 112.41 100.228C112.456 100.437 112.456 100.809 112.41 101.042C112.34 101.251 112.294 101.065 112.294 100.624Z" fill="white"/>
<path d="M112.875 100.926C112.573 100.647 112.712 99.7412 113.084 99.6015C113.619 99.3924 113.874 99.648 113.874 100.415C113.874 100.903 113.758 101.089 113.456 101.089C113.223 101.089 112.944 101.019 112.875 100.926Z" fill="white"/>
<path d="M114.269 100.298C114.176 99.9497 114.13 99.5778 114.223 99.5079C114.455 99.2757 114.594 99.6476 114.525 100.322L114.455 100.972L114.269 100.298Z" fill="white"/>
<path d="M121.775 100.137C121.775 99.8806 121.892 99.7412 122.008 99.8111C122.147 99.8805 122.24 100.113 122.24 100.299C122.24 100.485 122.147 100.624 122.008 100.624C121.892 100.624 121.775 100.415 121.775 100.137Z" fill="white"/>
<path d="M122.821 100.439C122.496 100.09 122.752 99.4622 123.286 99.3229C123.96 99.1602 123.983 99.1602 124.192 99.8341C124.332 100.252 124.239 100.346 123.635 100.439C123.263 100.508 122.891 100.485 122.821 100.439Z" fill="white"/>
<path d="M124.959 99.9965C124.704 99.7639 124.773 98.9971 125.029 98.9971C125.168 98.9971 125.261 98.9042 125.261 98.7646C125.261 98.6486 125.122 98.5323 124.936 98.5323C124.541 98.5323 124.216 97.3937 124.541 97.0682C124.959 96.6499 125.424 97.0913 125.703 98.2303C125.866 98.8344 126.028 99.5317 126.098 99.7639C126.191 100.066 126.098 100.159 125.657 100.159C125.355 100.159 125.029 100.089 124.959 99.9965Z" fill="white"/>
<path d="M126.214 98.7653C126.052 98.0679 125.634 96.6737 125.331 95.6509C124.866 94.1637 124.82 93.7919 125.076 93.6291C125.238 93.5129 125.447 93.42 125.517 93.42C125.773 93.42 126.702 98.1842 126.609 99.1137L126.54 100.043L126.214 98.7653Z" fill="white"/>
<path d="M112.061 98.6486C112.061 98.2767 112.108 98.1374 112.177 98.3696C112.224 98.5788 112.224 98.9042 112.177 99.0669C112.108 99.2063 112.061 99.0435 112.061 98.6486Z" fill="white"/>
<path d="M112.526 98.6011C112.619 97.7879 113.293 97.6017 113.479 98.3455C113.642 98.9496 113.688 98.8801 112.991 99.1123C112.503 99.252 112.456 99.2055 112.526 98.6011Z" fill="white"/>
<path d="M122.333 98.3919C122.147 97.718 122.543 97.3231 123.286 97.416C123.844 97.4858 124.053 98.4848 123.588 98.7872C123.007 99.1591 122.473 98.9964 122.333 98.3919Z" fill="white"/>
<path d="M113.874 98.2065C113.874 97.8113 113.99 97.6021 114.246 97.6021C114.478 97.6021 114.571 97.7648 114.525 98.1133C114.408 98.8571 113.874 98.9269 113.874 98.2065Z" fill="white"/>
<path d="M111.806 97.2306C111.806 96.975 111.875 96.9055 111.945 97.0913C112.015 97.254 111.992 97.4631 111.922 97.533C111.852 97.6259 111.783 97.4862 111.806 97.2306Z" fill="white"/>
<path d="M112.247 97.1607C112.247 96.8119 112.387 96.6726 112.735 96.6726C113.061 96.6726 113.177 96.7889 113.13 97.0679C113.014 97.6719 112.247 97.7418 112.247 97.1607Z" fill="white"/>
<path d="M113.525 96.9519C113.363 96.5336 113.363 96.5336 114.06 96.3475C114.478 96.2082 114.571 96.278 114.571 96.6265C114.571 97.1841 113.734 97.4631 113.525 96.9519Z" fill="white"/>
<path d="M121.938 96.6262C121.775 96.0451 122.077 95.7431 122.891 95.7431C123.286 95.7431 123.402 95.8824 123.402 96.3241C123.402 96.6726 123.263 96.9052 123.077 96.9052C122.891 96.9052 122.589 96.975 122.403 97.0445C122.194 97.1143 122.031 96.975 121.938 96.6262Z" fill="white"/>
<path d="M123.96 96.0923C123.774 95.6275 124.053 95.279 124.588 95.279C124.913 95.279 125.029 95.4417 125.029 95.8601C125.029 96.2784 124.913 96.4411 124.564 96.4411C124.309 96.4411 124.03 96.2784 123.96 96.0923Z" fill="white"/>
<path d="M112.015 95.7665C112.015 95.2783 112.549 94.7207 112.782 94.9763C112.875 95.0461 112.945 95.3712 112.945 95.6736C112.945 96.0451 112.805 96.2078 112.479 96.2078C112.177 96.2078 112.015 96.0451 112.015 95.7665Z" fill="white"/>
<path d="M113.293 95.4871C113.107 94.9064 113.316 94.6505 114.106 94.5345C114.827 94.4413 115.059 95.2085 114.432 95.6732C113.828 96.1146 113.456 96.0451 113.293 95.4871Z" fill="white"/>
<path d="M121.706 95.3485C121.543 95.2092 121.473 94.3491 121.613 94.3491C121.636 94.3491 121.985 94.2563 122.403 94.14C123.1 93.9308 123.147 93.9542 123.124 94.5817C123.1 95.0465 122.961 95.279 122.612 95.3719C121.985 95.5346 121.892 95.5346 121.706 95.3485Z" fill="white"/>
<path d="M120.846 94.8132C120.846 94.6508 120.916 94.581 121.009 94.6508C121.078 94.7437 121.078 94.883 121.009 94.9759C120.916 95.0457 120.846 94.9759 120.846 94.8132Z" fill="white"/>
<path d="M123.449 94.4413C123.519 94.0464 124.239 93.4653 124.402 93.6511C124.471 93.7209 124.587 93.9999 124.657 94.302C124.82 94.7667 124.75 94.8132 124.1 94.8132C123.542 94.8132 123.379 94.7203 123.449 94.4413Z" fill="white"/>
<path d="M112.247 94.4186C112.247 94.3023 112.364 94.0701 112.479 93.884C112.666 93.6054 112.712 93.6284 112.712 94.0701C112.712 94.3491 112.619 94.5813 112.479 94.5813C112.364 94.5813 112.247 94.5115 112.247 94.4186Z" fill="white"/>
<path d="M112.944 93.907C112.944 93.2562 113.432 93.047 113.804 93.5352C114.036 93.8837 114.036 93.9999 113.804 94.1626C113.316 94.4647 112.944 94.3718 112.944 93.907Z" fill="white"/>
<path d="M120.009 93.6058C119.591 93.141 119.591 93.118 119.986 93.2573C120.218 93.3502 120.52 93.42 120.637 93.42C120.753 93.42 120.846 93.5827 120.846 93.7685C120.846 94.2566 120.52 94.2102 120.009 93.6058Z" fill="white"/>
<path d="M115.013 93.582C114.013 92.8152 113.874 91.0955 114.804 91.0955C115.431 91.0955 116.012 92.0714 115.919 92.9779C115.849 93.8145 115.57 94.0003 115.013 93.582Z" fill="white"/>
<path d="M121.38 93.7213C121.473 93.6515 121.613 93.6515 121.706 93.7213C121.775 93.8142 121.706 93.884 121.543 93.884C121.38 93.884 121.311 93.8142 121.38 93.7213Z" fill="white"/>
<path d="M124.89 92.8148C124.96 92.6057 125.029 92.3965 125.029 92.3501C125.029 92.3036 125.145 92.2572 125.262 92.2572C125.401 92.2572 125.494 92.4663 125.494 92.7219C125.494 93.0006 125.331 93.1867 125.122 93.1867C124.866 93.1867 124.797 93.0704 124.89 92.8148Z" fill="white"/>
<path d="M112.712 92.745C112.712 92.2107 113.2 91.3277 113.479 91.3277C113.967 91.3277 113.619 92.8148 113.107 92.9077C112.898 92.9541 112.712 92.8847 112.712 92.745Z" fill="white"/>
<path d="M117.941 92.4894L117.244 92.3267L117.871 92.1639C118.522 91.9782 118.987 92.1175 118.987 92.5128C118.987 92.745 118.963 92.745 117.941 92.4894Z" fill="white"/>
<path d="M117.127 91.3737C117.127 90.4208 117.662 90.2815 118.15 91.1181C118.476 91.6758 118.499 91.7921 118.197 91.7921C118.011 91.7921 117.708 91.8619 117.499 91.9314C117.221 92.0477 117.127 91.9083 117.127 91.3737Z" fill="white"/>
<path d="M121.171 91.6992C120.126 91.2344 119.452 90.0029 119.452 88.5388C119.452 87.493 119.544 87.2374 120.172 86.6563C120.567 86.2844 120.962 85.9824 121.078 85.9824C121.59 85.9824 123.472 87.772 124.1 88.8872L124.82 90.1656L124.053 90.9788C123.17 91.9084 122.194 92.1643 121.171 91.6992Z" fill="white"/>
<path d="M116.314 91.0958C116.244 90.9795 116.291 90.8633 116.407 90.8633C116.546 90.8633 116.663 90.9795 116.663 91.0958C116.663 91.2351 116.616 91.3284 116.57 91.3284C116.5 91.3284 116.384 91.2351 116.314 91.0958Z" fill="white"/>
<path d="M113.27 90.7236C113.34 90.5144 113.409 90.3053 113.409 90.2588C113.409 90.2124 113.618 90.166 113.874 90.166C114.455 90.166 114.478 90.5378 113.897 90.8633C113.27 91.1884 113.107 91.1653 113.27 90.7236Z" fill="white"/>
<path d="M115.106 90.4446C114.571 90.3751 114.408 90.0731 114.757 89.8639C114.85 89.7941 115.268 89.6778 115.687 89.5849C116.314 89.4456 116.43 89.492 116.43 89.887C116.43 90.3751 115.942 90.5843 115.106 90.4446Z" fill="white"/>
<path d="M116.895 89.6547C116.895 89.3761 116.919 89.2134 116.965 89.2598C116.988 89.3063 117.174 89.5385 117.337 89.771C117.616 90.0965 117.593 90.1659 117.267 90.1659C117.035 90.1659 116.895 89.9802 116.895 89.6547Z" fill="white"/>
<path d="M113.642 89.492C113.642 89.3527 113.758 89.19 113.874 89.1201C114.013 89.0507 114.106 89.1435 114.106 89.3293C114.106 89.5385 114.013 89.7012 113.874 89.7012C113.758 89.7012 113.642 89.6083 113.642 89.492Z" fill="white"/>
<path d="M114.502 89.1425C114.315 88.6777 115.965 88.1665 116.244 88.6079C116.454 88.9797 116.244 89.1425 115.361 89.3286C114.827 89.4445 114.594 89.3981 114.502 89.1425Z" fill="white"/>
<path d="M116.686 88.3994C116.686 88.1438 116.756 88.074 116.825 88.2601C116.895 88.4228 116.872 88.632 116.802 88.7015C116.733 88.7947 116.663 88.655 116.686 88.3994Z" fill="white"/>
<path d="M114.711 88.0279C114.989 87.5163 115.803 86.6797 116.012 86.6797C116.244 86.6797 116.268 87.7719 116.035 87.9116C115.919 87.9581 115.547 88.0743 115.199 88.1672C114.687 88.2835 114.571 88.2601 114.711 88.0279Z" fill="white"/>
<path d="M116.57 87.4929C116.314 86.796 116.43 86.4936 116.988 86.4007C117.569 86.2844 117.569 86.2844 117.197 87.0051C116.733 87.9347 116.756 87.9347 116.57 87.4929Z" fill="white"/>
<path d="M116.43 86.099C116.43 86.0522 116.895 85.7272 117.476 85.4017C118.173 84.9834 118.661 84.8441 119.01 84.937C119.428 85.0763 119.312 85.1692 118.29 85.6573C117.151 86.1685 116.43 86.3546 116.43 86.099Z" fill="white"/>
<path d="M129.329 65.5088C128.701 64.6023 127.376 63.1382 126.423 62.2551C125.471 61.3721 124.843 60.6517 125.029 60.6517C125.54 60.6517 129.445 61.7205 130.421 62.1389C131.234 62.4873 131.257 62.5341 131.048 63.2545C130.932 63.6728 130.839 64.7186 130.839 65.5783C130.839 66.4614 130.769 67.1587 130.676 67.1587C130.56 67.1587 129.979 66.4149 129.329 65.5088Z" fill="white"/>
<path d="M82.0354 135.901C81.0824 135.414 80.8733 135.135 79.6648 132.741C77.922 129.348 77.8756 128.558 79.5254 130.487C80.176 131.253 81.6869 132.834 82.872 133.996C84.8938 135.948 84.9866 136.088 84.3127 135.995C83.8249 135.925 83.6388 135.971 83.7551 136.157C84.0341 136.575 83.151 136.459 82.0354 135.901Z" fill="white"/>
<path fill-rule="evenodd" clip-rule="evenodd" d="M120.983 178.243C120.79 177.785 121.005 177.258 121.463 177.065L121.964 176.852C126.832 174.769 129.626 173.518 131.525 171.531C133.423 169.544 133.65 166.626 134.007 164.85C134.105 164.363 135.208 165.219 135.696 165.317C136.183 165.415 136.499 165.889 136.401 166.377C135.972 168.511 134.817 170.547 132.958 172.479C131.105 174.405 127.517 176.469 122.161 178.723C121.703 178.916 121.176 178.701 120.983 178.243Z" fill="#00160A"/>
<path fill-rule="evenodd" clip-rule="evenodd" d="M142.997 85.5158C143.424 85.2613 143.976 85.4017 144.23 85.8287C146.776 90.1051 148.14 94.9939 148.14 100.08C148.14 115.489 135.649 127.98 120.24 127.98C116.145 127.98 112.174 127.097 108.538 125.414C108.087 125.205 106.383 123.544 108.099 124.219C109.815 124.896 116.456 126.413 120.288 126.413C134.702 126.413 144.9 114.494 144.9 100.08C144.9 95.3201 142.997 91.0955 142.684 86.7495C142.647 86.2455 142.57 85.77 142.997 85.5158Z" fill="#00160A"/>
<path fill-rule="evenodd" clip-rule="evenodd" d="M53.8628 153.632C54.1807 153.25 54.7484 152.479 55.1304 152.797C56.6971 154.102 58.369 155.614 60.1574 155.906C62.0186 156.209 64.2265 156.209 66.7782 155.9C67.2718 155.841 67.72 156.192 67.7797 156.686C67.8395 157.179 67.4878 157.627 66.9946 157.687C64.2845 158.015 61.9099 158.015 59.8676 157.682C57.7526 157.337 55.7856 156.405 53.9784 154.9C53.5964 154.581 53.5446 154.014 53.8628 153.632Z" fill="#00160A"/>
<path d="M72.972 122.144C71.8099 121.214 69.323 118.472 67.4406 116.055C66.4646 114.777 65.3724 112.174 64.7215 109.548C64.4195 108.363 64.1174 107.294 64.0476 107.154C63.9547 107.038 63.5828 105.388 63.211 103.482C62.6533 100.787 62.7714 99.918 62.2814 96.6934C62.0741 95.328 61.8865 94.2418 61.8865 94.2418L62.4906 93.466C62.8391 93.0013 63.2801 92.232 63.4435 91.7928C64.1873 89.7915 69.6485 83.5193 69.8112 83.682C69.8576 83.7284 69.6719 84.8207 69.3464 86.099C69.0444 87.377 68.6725 89.3059 68.5098 90.3981C68.2772 92.2111 68.1844 92.4203 67.464 93.0243C66.5575 93.7915 64.8378 96.2546 64.8378 96.7662C64.8378 97.4631 65.8836 96.9984 66.9758 95.8597L68.0915 94.6976V95.976C68.0915 96.8126 67.9288 97.5794 67.6267 98.1835C67.0457 99.3225 67.0457 100.531 67.6033 101.461C67.8823 101.925 68.1379 103.041 68.3006 104.365C69.021 110.361 70.555 115.567 73.1812 120.796C73.8317 122.098 74.3429 123.166 74.3198 123.166C74.2734 123.166 73.669 122.702 72.972 122.144Z" fill="white"/>
<path fill-rule="evenodd" clip-rule="evenodd" d="M169.673 136.483L171.346 137.227C171.693 137.387 175.521 139.226 180.118 141.435C187.531 144.997 196.946 149.521 197.003 149.521C197.096 149.521 197.532 148.512 197.63 147.336C197.863 144.803 198.723 141.363 199.722 138.97C200.187 137.901 200.559 136.565 200.559 136.449C200.559 136.395 200.181 136.243 199.562 135.994C198.826 135.697 197.749 135.262 196.561 134.694C190.705 131.882 179.248 126.141 177.83 125.281C176.436 124.468 176.157 124.398 176.157 124.933C176.157 125.63 174.739 128.861 173.647 130.603C173.066 131.556 171.927 133.276 171.114 134.415L169.673 136.483ZM196.608 145.337C197.274 145.724 196.12 146.29 195.841 146.383C194.199 146.523 192.266 146.214 190.682 145.291C189.854 144.704 183.332 141.081 179.006 138.677C177.029 137.579 175.51 136.735 175.204 136.553C174.228 135.972 173.298 135.345 173.136 135.158C172.648 134.531 173.112 134.252 174.483 134.368C175.308 134.438 195.168 144.503 196.608 145.337Z" fill="white"/>
<path d="M152.987 138.575C152.383 138.366 151.732 137.901 151.313 137.366L150.616 136.506L153.08 134.066C156.868 130.348 159.656 126.284 162.166 121.752C163.003 120.242 165.49 114.149 165.792 113.476C166.257 112.5 166.605 112.128 167.604 111.57C168.79 110.873 170.138 110.64 170.719 111.036C171.834 111.779 171.834 114.126 170.719 118.17C169.487 122.609 167.837 125.793 164.421 130.371C163.886 131.068 162.887 132.439 162.166 133.392C160.237 135.949 158.982 137.18 157.286 138.133C155.613 139.063 154.637 139.179 152.987 138.575Z" fill="white"/>
<path d="M161.748 138.039L161.26 137.551C161.26 137.551 169.36 127.26 170.811 123.468C171.919 120.574 172.571 119.753 173.451 119.753C173.942 119.753 174.344 119.866 174.53 120.145C174.855 120.633 175.169 121.237 174.75 123.305C174.053 126.652 172.984 128.859 169.777 133.624C169.033 134.716 168.081 135.924 167.662 136.343C166.686 137.249 164.49 138.179 163.212 138.388C162.399 138.504 162.166 138.457 161.748 138.039Z" fill="white"/>
<path fill-rule="evenodd" clip-rule="evenodd" d="M175.354 127.279C175.823 126.207 176.157 125.271 176.157 124.933C176.157 124.398 176.436 124.468 177.83 125.281C179.248 126.141 190.705 131.882 196.561 134.694C198.746 135.739 200.559 136.332 200.559 136.449C200.559 136.565 174.857 128.416 175.354 127.279Z" fill="#E7EAEE"/>
<path fill-rule="evenodd" clip-rule="evenodd" d="M95.8399 128.604C92.8883 126.675 88.4261 122.143 86.265 118.913C83.174 114.265 81.1289 109.292 80.1295 103.946C79.4092 100.065 79.4326 94.0928 80.1529 90.63C80.8967 87.0973 81.8492 84.4016 83.5459 80.9852C85.5212 77.0346 87.6128 74.1297 90.7502 70.9923C93.8268 67.9158 80.1529 80.6389 83.5459 103.403C86.265 122.48 97.9506 129.995 95.8399 128.604Z" fill="#E7EAEE"/>
</g>
<defs>
<clipPath id="clip0_1_301">
<rect width="270" height="270" fill="white"/>
</clipPath>
</defs>
</svg>
