<svg width="20" height="20" viewBox="0 0 20 20" fill="none" xmlns="http://www.w3.org/2000/svg">
<g clip-path="url(#clip0_1_97)">
<path fill-rule="evenodd" clip-rule="evenodd" d="M10 0C15.5191 0 20 4.48086 20 10C20 15.5191 15.5191 20 10 20C4.48086 20 0 15.5191 0 10C0 4.48086 4.48086 0 10 0ZM15.9889 6.99133C15.8451 6.45348 15.4216 6.03 14.8838 5.88625C13.9089 5.625 10 5.625 10 5.625C10 5.625 6.09113 5.625 5.11621 5.88625C4.57852 6.03 4.15488 6.45348 4.01113 6.99133C3.75 7.96613 3.75 10.0001 3.75 10.0001C3.75 10.0001 3.75 12.0339 4.01113 13.0087C4.15488 13.5465 4.57852 13.9702 5.11621 14.1139C6.09113 14.375 10 14.375 10 14.375C10 14.375 13.9089 14.375 14.8838 14.1139C15.4216 13.9702 15.8451 13.5465 15.9889 13.0087C16.25 12.0339 16.25 10.0001 16.25 10.0001C16.25 10.0001 16.25 7.96613 15.9889 6.99133ZM8.74996 11.8751V8.12504L11.9975 10.0001L8.74996 11.8751Z" fill="#FA782F"/>
</g>
<defs>
<clipPath id="clip0_1_97">
<rect width="20" height="20" fill="white"/>
</clipPath>
</defs>
</svg>
